  0
SECTION
  2
HEADER
  9
$ACADVER
  1
AC1015
  9
$ACADMAINTVER
 70
     6
  9
$DWGCODEPAGE
  3
ANSI_949
  9
$INSBASE
 10
0.0
 20
0.0
 30
0.0
  9
$EXTMIN
 10
1.000000000000000E+20
 20
1.000000000000000E+20
 30
1.000000000000000E+20
  9
$EXTMAX
 10
-1.000000000000000E+20
 20
-1.000000000000000E+20
 30
-1.000000000000000E+20
  9
$LIMMIN
 10
0.0
 20
0.0
  9
$LIMMAX
 10
12.0
 20
9.0
  9
$ORTHOMODE
 70
     0
  9
$REGENMODE
 70
     1
  9
$FILLMODE
 70
     1
  9
$QTEXTMODE
 70
     0
  9
$MIRRTEXT
 70
     1
  9
$LTSCALE
 40
1.0
  9
$ATTMODE
 70
     1
  9
$TEXTSIZE
 40
0.2
  9
$TRACEWID
 40
0.05
  9
$TEXTSTYLE
  7
Standard
  9
$CLAYER
  8
0
  9
$CELTYPE
  6
ByLayer
  9
$CECOLOR
 62
   256
  9
$CELTSCALE
 40
1.0
  9
$DISPSILH
 70
     0
  9
$DIMSCALE
 40
1.0
  9
$DIMASZ
 40
0.18
  9
$DIMEXO
 40
0.0625
  9
$DIMDLI
 40
0.38
  9
$DIMRND
 40
0.0
  9
$DIMDLE
 40
0.0
  9
$DIMEXE
 40
0.18
  9
$DIMTP
 40
0.0
  9
$DIMTM
 40
0.0
  9
$DIMTXT
 40
0.18
  9
$DIMCEN
 40
0.09
  9
$DIMTSZ
 40
0.0
  9
$DIMTOL
 70
     0
  9
$DIMLIM
 70
     0
  9
$DIMTIH
 70
     1
  9
$DIMTOH
 70
     1
  9
$DIMSE1
 70
     0
  9
$DIMSE2
 70
     0
  9
$DIMTAD
 70
     0
  9
$DIMZIN
 70
     0
  9
$DIMBLK
  1

  9
$DIMASO
 70
     1
  9
$DIMSHO
 70
     1
  9
$DIMPOST
  1

  9
$DIMAPOST
  1

  9
$DIMALT
 70
     0
  9
$DIMALTD
 70
     2
  9
$DIMALTF
 40
25.4
  9
$DIMLFAC
 40
1.0
  9
$DIMTOFL
 70
     0
  9
$DIMTVP
 40
0.0
  9
$DIMTIX
 70
     0
  9
$DIMSOXD
 70
     0
  9
$DIMSAH
 70
     0
  9
$DIMBLK1
  1

  9
$DIMBLK2
  1

  9
$DIMSTYLE
  2
Standard
  9
$DIMCLRD
 70
     0
  9
$DIMCLRE
 70
     0
  9
$DIMCLRT
 70
     0
  9
$DIMTFAC
 40
1.0
  9
$DIMGAP
 40
0.09
  9
$DIMJUST
 70
     0
  9
$DIMSD1
 70
     0
  9
$DIMSD2
 70
     0
  9
$DIMTOLJ
 70
     1
  9
$DIMTZIN
 70
     0
  9
$DIMALTZ
 70
     0
  9
$DIMALTTZ
 70
     0
  9
$DIMUPT
 70
     0
  9
$DIMDEC
 70
     4
  9
$DIMTDEC
 70
     4
  9
$DIMALTU
 70
     2
  9
$DIMALTTD
 70
     2
  9
$DIMTXSTY
  7
Standard
  9
$DIMAUNIT
 70
     0
  9
$DIMADEC
 70
     0
  9
$DIMALTRND
 40
0.0
  9
$DIMAZIN
 70
     0
  9
$DIMDSEP
 70
    46
  9
$DIMATFIT
 70
     3
  9
$DIMFRAC
 70
     0
  9
$DIMLDRBLK
  1

  9
$DIMLUNIT
 70
     2
  9
$DIMLWD
 70
    -2
  9
$DIMLWE
 70
    -2
  9
$DIMTMOVE
 70
     0
  9
$LUNITS
 70
     2
  9
$LUPREC
 70
     4
  9
$SKETCHINC
 40
0.1
  9
$FILLETRAD
 40
0.5
  9
$AUNITS
 70
     0
  9
$AUPREC
 70
     0
  9
$MENU
  1
.
  9
$ELEVATION
 40
0.0
  9
$PELEVATION
 40
0.0
  9
$THICKNESS
 40
0.0
  9
$LIMCHECK
 70
     0
  9
$CHAMFERA
 40
0.5
  9
$CHAMFERB
 40
0.5
  9
$CHAMFERC
 40
1.0
  9
$CHAMFERD
 40
0.0
  9
$SKPOLY
 70
     0
  9
$TDCREATE
 40
2458492.672806621
  9
$TDUCREATE
 40
2458492.401973287
  9
$TDUPDATE
 40
2458492.672806632
  9
$TDUUPDATE
 40
2458492.401973299
  9
$TDINDWG
 40
0.0000000116
  9
$TDUSRTIMER
 40
0.0000000116
  9
$USRTIMER
 70
     1
  9
$ANGBASE
 50
0.0
  9
$ANGDIR
 70
     0
  9
$PDMODE
 70
     0
  9
$PDSIZE
 40
0.0
  9
$PLINEWID
 40
0.0
  9
$SPLFRAME
 70
     0
  9
$SPLINETYPE
 70
     6
  9
$SPLINESEGS
 70
     8
  9
$HANDSEED
  5
121
  9
$SURFTAB1
 70
     6
  9
$SURFTAB2
 70
     6
  9
$SURFTYPE
 70
     6
  9
$SURFU
 70
     6
  9
$SURFV
 70
     6
  9
$UCSBASE
  2

  9
$UCSNAME
  2

  9
$UCSORG
 10
0.0
 20
0.0
 30
0.0
  9
$UCSXDIR
 10
1.0
 20
0.0
 30
0.0
  9
$UCSYDIR
 10
0.0
 20
1.0
 30
0.0
  9
$UCSORTHOREF
  2

  9
$UCSORTHOVIEW
 70
     0
  9
$UCSORGTOP
 10
0.0
 20
0.0
 30
0.0
  9
$UCSORGBOTTOM
 10
0.0
 20
0.0
 30
0.0
  9
$UCSORGLEFT
 10
0.0
 20
0.0
 30
0.0
  9
$UCSORGRIGHT
 10
0.0
 20
0.0
 30
0.0
  9
$UCSORGFRONT
 10
0.0
 20
0.0
 30
0.0
  9
$UCSORGBACK
 10
0.0
 20
0.0
 30
0.0
  9
$PUCSBASE
  2

  9
$PUCSNAME
  2

  9
$PUCSORG
 10
0.0
 20
0.0
 30
0.0
  9
$PUCSXDIR
 10
1.0
 20
0.0
 30
0.0
  9
$PUCSYDIR
 10
0.0
 20
1.0
 30
0.0
  9
$PUCSORTHOREF
  2

  9
$PUCSORTHOVIEW
 70
     0
  9
$PUCSORGTOP
 10
0.0
 20
0.0
 30
0.0
  9
$PUCSORGBOTTOM
 10
0.0
 20
0.0
 30
0.0
  9
$PUCSORGLEFT
 10
0.0
 20
0.0
 30
0.0
  9
$PUCSORGRIGHT
 10
0.0
 20
0.0
 30
0.0
  9
$PUCSORGFRONT
 10
0.0
 20
0.0
 30
0.0
  9
$PUCSORGBACK
 10
0.0
 20
0.0
 30
0.0
  9
$USERI1
 70
     0
  9
$USERI2
 70
     0
  9
$USERI3
 70
     0
  9
$USERI4
 70
     0
  9
$USERI5
 70
     0
  9
$USERR1
 40
0.0
  9
$USERR2
 40
0.0
  9
$USERR3
 40
0.0
  9
$USERR4
 40
0.0
  9
$USERR5
 40
0.0
  9
$WORLDVIEW
 70
     1
  9
$SHADEDGE
 70
     3
  9
$SHADEDIF
 70
    70
  9
$TILEMODE
 70
     1
  9
$MAXACTVP
 70
    64
  9
$PINSBASE
 10
0.0
 20
0.0
 30
0.0
  9
$PLIMCHECK
 70
     0
  9
$PEXTMIN
 10
1.000000000000000E+20
 20
1.000000000000000E+20
 30
1.000000000000000E+20
  9
$PEXTMAX
 10
-1.000000000000000E+20
 20
-1.000000000000000E+20
 30
-1.000000000000000E+20
  9
$PLIMMIN
 10
0.0
 20
0.0
  9
$PLIMMAX
 10
12.0
 20
9.0
  9
$UNITMODE
 70
     0
  9
$VISRETAIN
 70
     1
  9
$PLINEGEN
 70
     0
  9
$PSLTSCALE
 70
     1
  9
$TREEDEPTH
 70
  3020
  9
$CMLSTYLE
  2
Standard
  9
$CMLJUST
 70
     0
  9
$CMLSCALE
 40
1.0
  9
$PROXYGRAPHICS
 70
     1
  9
$MEASUREMENT
 70
     0
  9
$CELWEIGHT
370
    -1
  9
$ENDCAPS
280
     0
  9
$JOINSTYLE
280
     0
  9
$LWDISPLAY
290
     1
  9
$INSUNITS
 70
     1
  9
$HYPERLINKBASE
  1

  9
$STYLESHEET
  1

  9
$XEDIT
290
     1
  9
$CEPSNTYPE
380
     0
  9
$PSTYLEMODE
290
     1
  9
$FINGERPRINTGUID
  2
{129E317E-879D-4A54-BFA8-4DDA0482B463}
  9
$VERSIONGUID
  2
{FAEB1C32-E019-11D5-929B-00C0DF256EC4}
  9
$EXTNAMES
290
     1
  9
$PSVPSCALE
 40
0.0
  9
$OLESTARTUP
290
     0
  0
ENDSEC
  0
SECTION
  2
CLASSES
  0
CLASS
  1
ACDBDICTIONARYWDFLT
  2
AcDbDictionaryWithDefault
  3
ObjectDBX Classes
 90
        0
280
     0
281
     0
  0
CLASS
  1
VISUALSTYLE
  2
AcDbVisualStyle
  3
ObjectDBX Classes
 90
     4095
280
     0
281
     0
  0
CLASS
  1
ACDBPLACEHOLDER
  2
AcDbPlaceHolder
  3
ObjectDBX Classes
 90
        0
280
     0
281
     0
  0
CLASS
  1
LAYOUT
  2
AcDbLayout
  3
ObjectDBX Classes
 90
        0
280
     0
281
     0
  0
ENDSEC
  0
SECTION
  2
TABLES
  0
TABLE
  2
VPORT
  5
8
330
0
100
AcDbSymbolTable
 70
     1
  0
VPORT
  5
29
330
8
100
AcDbSymbolTableRecord
100
AcDbViewportTableRecord
  2
*Active
 70
     0
 10
0.0
 20
0.0
 11
1.0
 21
1.0
 12
0.0
 22
0.0
 13
0.0
 23
0.0
 14
0.5
 24
0.5
 15
0.5
 25
0.5
 16
0.0
 26
0.0
 36
1.0
 17
215.9001423741495
 27
139.7000921244496
 37
0.0
 40
279.4001842488993
 41
1.545454545454546
 42
50.0
 43
0.0
 44
0.0
 50
0.0
 51
0.0
 71
     0
 72
   100
 73
     1
 74
     3
 75
     0
 76
     0
 77
     0
 78
     0
281
     0
 65
     1
110
0.0
120
0.0
130
0.0
111
1.0
121
0.0
131
0.0
112
0.0
122
1.0
132
0.0
 79
     0
146
0.0
  0
ENDTAB
  0
TABLE
  2
LTYPE
  5
5
330
0
100
AcDbSymbolTable
 70
     1
  0
LTYPE
  5
14
330
5
100
AcDbSymbolTableRecord
100
AcDbLinetypeTableRecord
  2
ByBlock
 70
     0
  3

 72
    65
 73
     0
 40
0.0
  0
LTYPE
  5
15
330
5
100
AcDbSymbolTableRecord
100
AcDbLinetypeTableRecord
  2
ByLayer
 70
     0
  3

 72
    65
 73
     0
 40
0.0
  0
LTYPE
  5
16
330
5
100
AcDbSymbolTableRecord
100
AcDbLinetypeTableRecord
  2
Continuous
 70
     0
  3
Solid line
 72
    65
 73
     0
 40
0.0
  0
ENDTAB
  0
TABLE
  2
LAYER
  5
2
330
0
100
AcDbSymbolTable
 70
     2
  0
LAYER
  5
10
330
2
100
AcDbSymbolTableRecord
100
AcDbLayerTableRecord
  2
0
 70
     0
 62
     7
  6
Continuous
370
    -3
390
F
  0
LAYER
  5
3B
330
2
100
AcDbSymbolTableRecord
100
AcDbLayerTableRecord
  2
Layer 1
 70
     0
 62
     7
  6
Continuous
370
    -3
390
F
  0
ENDTAB
  0
TABLE
  2
STYLE
  5
3
330
0
100
AcDbSymbolTable
 70
     1
  0
STYLE
  5
11
330
3
100
AcDbSymbolTableRecord
100
AcDbTextStyleTableRecord
  2
Standard
 70
     0
 40
0.0
 41
1.0
 50
0.0
 71
     0
 42
0.2
  3
txt
  4

  0
ENDTAB
  0
TABLE
  2
VIEW
  5
6
330
0
100
AcDbSymbolTable
 70
     0
  0
ENDTAB
  0
TABLE
  2
UCS
  5
7
330
0
100
AcDbSymbolTable
 70
     0
  0
ENDTAB
  0
TABLE
  2
APPID
  5
9
330
0
100
AcDbSymbolTable
 70
     1
  0
APPID
  5
12
330
9
100
AcDbSymbolTableRecord
100
AcDbRegAppTableRecord
  2
ACAD
 70
     0
  0
ENDTAB
  0
TABLE
  2
DIMSTYLE
  5
A
330
0
100
AcDbSymbolTable
 70
     1
100
AcDbDimStyleTable
  0
DIMSTYLE
105
27
330
A
100
AcDbSymbolTableRecord
100
AcDbDimStyleTableRecord
  2
Standard
 70
     0
340
11
  0
ENDTAB
  0
TABLE
  2
BLOCK_RECORD
  5
1
330
0
100
AcDbSymbolTable
 70
     2
  0
BLOCK_RECORD
  5
1F
330
1
100
AcDbSymbolTableRecord
100
AcDbBlockTableRecord
  2
*Model_Space
340
22
  0
BLOCK_RECORD
  5
1B
330
1
100
AcDbSymbolTableRecord
100
AcDbBlockTableRecord
  2
*Paper_Space
340
1E
  0
BLOCK_RECORD
  5
23
330
1
100
AcDbSymbolTableRecord
100
AcDbBlockTableRecord
  2
*Paper_Space0
340
26
  0
BLOCK_RECORD
  5
43
330
1
100
AcDbSymbolTableRecord
100
AcDbBlockTableRecord
  2
block 2
340
0
102
{BLKREFS
331
44
102
}
  0
ENDTAB
  0
ENDSEC
  0
SECTION
  2
BLOCKS
  0
BLOCK
  5
20
330
1F
100
AcDbEntity
  8
0
100
AcDbBlockBegin
  2
*Model_Space
 70
     0
 71
     0
 10
0.0
 20
0.0
 30
0.0
  3
*Model_Space
  1

  0
ENDBLK
  5
21
330
1F
100
AcDbEntity
  8
0
100
AcDbBlockEnd
  0
BLOCK
  5
1C
330
1B
100
AcDbEntity
 67
     1
  8
0
100
AcDbBlockBegin
  2
*Paper_Space
 70
     0
 71
     0
 10
0.0
 20
0.0
 30
0.0
  3
*Paper_Space
  1

  0
ENDBLK
  5
1D
330
1B
100
AcDbEntity
 67
     1
  8
0
100
AcDbBlockEnd
  0
BLOCK
  5
24
330
23
100
AcDbEntity
  8
0
100
AcDbBlockBegin
  2
*Paper_Space0
 70
     0
 71
     0
 10
0.0
 20
0.0
 30
0.0
  3
*Paper_Space0
  1

  0
ENDBLK
  5
25
330
23
100
AcDbEntity
  8
0
100
AcDbBlockEnd
  0
BLOCK
  5
45
330
43
100
AcDbEntity
  8
0
100
AcDbBlockBegin
  2
block 2
 70
     0
 71
     0
 10
0.0
 20
0.0
 30
0.0
  3
block 2
  1

  0
SPLINE
  5
47
330
43
100
AcDbEntity
  8
Layer 1
 62
     7
370
    35
100
AcDbSpline
210
0.0
220
0.0
230
1.0
 70
    11
 71
     3
 72
    17
 73
    13
 74
     0
 42
0.0000000001
 43
0.0000000001
 40
0.0
 40
0.0
 40
0.0
 40
0.0
 40
1.0
 40
1.0
 40
1.0
 40
2.0
 40
2.0
 40
2.0
 40
3.0
 40
3.0
 40
3.0
 40
4.0
 40
4.0
 40
4.0
 40
4.0
 10
61.03610795825564
 20
250.1549216364504
 30
0.0
 10
61.03610795825564
 20
248.9427639903116
 30
0.0
 10
60.1407270509614
 20
247.9605666195167
 30
0.0
 10
59.03622870975888
 20
247.9605666195167
 30
0.0
 10
57.93173036855637
 20
247.9605666195167
 30
0.0
 10
57.03634946126212
 20
248.9427639903116
 30
0.0
 10
57.03634946126212
 20
250.1549216364504
 30
0.0
 10
57.03634946126212
 20
251.3667347728135
 30
0.0
 10
57.93173036855637
 20
252.3489321436083
 30
0.0
 10
59.03622870975888
 20
252.3489321436083
 30
0.0
 10
60.1407270509614
 20
252.3489321436083
 30
0.0
 10
61.03610795825564
 20
251.3667347728135
 30
0.0
 10
61.03610795825564
 20
250.1549216364504
 30
0.0
  0
SPLINE
  5
48
330
43
100
AcDbEntity
  8
Layer 1
 62
     7
370
    35
100
AcDbSpline
210
0.0
220
0.0
230
1.0
 70
    11
 71
     3
 72
    17
 73
    13
 74
     0
 42
0.0000000001
 43
0.0000000001
 40
0.0
 40
0.0
 40
0.0
 40
0.0
 40
1.0
 40
1.0
 40
1.0
 40
2.0
 40
2.0
 40
2.0
 40
3.0
 40
3.0
 40
3.0
 40
4.0
 40
4.0
 40
4.0
 40
4.0
 10
80.66937557110352
 20
250.1549216364504
 30
0.0
 10
80.66937557110352
 20
248.9427639903116
 30
0.0
 10
79.77399466380926
 20
247.9605666195167
 30
0.0
 10
78.66949632260675
 20
247.9605666195167
 30
0.0
 10
77.56499798140423
 20
247.9605666195167
 30
0.0
 10
76.66961707411
 20
248.9427639903116
 30
0.0
 10
76.66961707411
 20
250.1549216364504
 30
0.0
 10
76.66961707411
 20
251.3667347728135
 30
0.0
 10
77.56499798140423
 20
252.3489321436083
 30
0.0
 10
78.66949632260675
 20
252.3489321436083
 30
0.0
 10
79.77399466380926
 20
252.3489321436083
 30
0.0
 10
80.66937557110352
 20
251.3667347728135
 30
0.0
 10
80.66937557110352
 20
250.1549216364504
 30
0.0
  0
SPLINE
  5
49
330
43
100
AcDbEntity
  8
Layer 1
 62
     7
370
    35
100
AcDbSpline
210
0.0
220
0.0
230
1.0
 70
    11
 71
     3
 72
    17
 73
    13
 74
     0
 42
0.0000000001
 43
0.0000000001
 40
0.0
 40
0.0
 40
0.0
 40
0.0
 40
1.0
 40
1.0
 40
1.0
 40
2.0
 40
2.0
 40
2.0
 40
3.0
 40
3.0
 40
3.0
 40
4.0
 40
4.0
 40
4.0
 40
4.0
 10
61.03610795825564
 20
83.40306064204611
 30
0.0
 10
61.03610795825564
 20
82.19107525079518
 30
0.0
 10
60.1407270509614
 20
81.2092223897761
 30
0.0
 10
59.03622870975888
 20
81.2092223897761
 30
0.0
 10
57.93173036855637
 20
81.2092223897761
 30
0.0
 10
57.03634946126212
 20
82.19107525079518
 30
0.0
 10
57.03634946126212
 20
83.40306064204611
 30
0.0
 10
57.03634946126212
 20
84.61504603329703
 30
0.0
 10
57.93173036855637
 20
85.59689889431611
 30
0.0
 10
59.03622870975888
 20
85.59689889431611
 30
0.0
 10
60.1407270509614
 20
85.59689889431611
 30
0.0
 10
61.03610795825564
 20
84.61504603329703
 30
0.0
 10
61.03610795825564
 20
83.40306064204611
 30
0.0
  0
SPLINE
  5
4A
330
43
100
AcDbEntity
  8
Layer 1
 62
     7
370
    35
100
AcDbSpline
210
0.0
220
0.0
230
1.0
 70
    11
 71
     3
 72
    17
 73
    13
 74
     0
 42
0.0000000001
 43
0.0000000001
 40
0.0
 40
0.0
 40
0.0
 40
0.0
 40
1.0
 40
1.0
 40
1.0
 40
2.0
 40
2.0
 40
2.0
 40
3.0
 40
3.0
 40
3.0
 40
4.0
 40
4.0
 40
4.0
 40
4.0
 10
80.66937557110352
 20
83.40306064204611
 30
0.0
 10
80.66937557110352
 20
82.19107525079518
 30
0.0
 10
79.77399466380926
 20
81.2092223897761
 30
0.0
 10
78.66949632260675
 20
81.2092223897761
 30
0.0
 10
77.56499798140423
 20
81.2092223897761
 30
0.0
 10
76.66961707411
 20
82.19107525079518
 30
0.0
 10
76.66961707411
 20
83.40306064204611
 30
0.0
 10
76.66961707411
 20
84.61504603329703
 30
0.0
 10
77.56499798140423
 20
85.59689889431611
 30
0.0
 10
78.66949632260675
 20
85.59689889431611
 30
0.0
 10
79.77399466380926
 20
85.59689889431611
 30
0.0
 10
80.66937557110352
 20
84.61504603329703
 30
0.0
 10
80.66937557110352
 20
83.40306064204611
 30
0.0
  0
POLYLINE
  5
4B
330
43
100
AcDbEntity
  8
Layer 1
 62
     7
370
    35
100
AcDb2dPolyline
 66
     1
 10
0.0
 20
0.0
 30
0.0
  0
VERTEX
  5
4C
330
4B
100
AcDbEntity
  8
Layer 1
 62
     7
370
    35
100
AcDbVertex
100
AcDb2dVertex
 10
79.76555417430227
 20
110.2582866849091
 30
0.0
  0
VERTEX
  5
4D
330
4B
100
AcDbEntity
  8
Layer 1
 62
     7
370
    35
100
AcDbVertex
100
AcDb2dVertex
 10
56.13235580957298
 20
110.2582866849091
 30
0.0
  0
VERTEX
  5
4E
330
4B
100
AcDbEntity
  8
Layer 1
 62
     7
370
    35
100
AcDbVertex
100
AcDb2dVertex
 10
56.13235580957298
 20
235.6884393861056
 30
0.0
  0
VERTEX
  5
4F
330
4B
100
AcDbEntity
  8
Layer 1
 62
     7
370
    35
100
AcDbVertex
100
AcDb2dVertex
 10
79.76555417430227
 20
235.6884393861056
 30
0.0
  0
VERTEX
  5
50
330
4B
100
AcDbEntity
  8
Layer 1
 62
     7
370
    35
100
AcDbVertex
100
AcDb2dVertex
 10
79.76555417430227
 20
110.2582866849091
 30
0.0
  0
SEQEND
  5
51
330
4B
100
AcDbEntity
  8
Layer 1
370
    35
  0
POLYLINE
  5
52
330
43
100
AcDbEntity
  8
Layer 1
 62
     7
370
    35
100
AcDb2dPolyline
 66
     1
 10
0.0
 20
0.0
 30
0.0
  0
VERTEX
  5
53
330
52
100
AcDbEntity
  8
Layer 1
 62
     7
370
    35
100
AcDbVertex
100
AcDb2dVertex
 10
76.85306852972145
 20
130.9133702927684
 30
0.0
  0
VERTEX
  5
54
330
52
100
AcDbEntity
  8
Layer 1
 62
     7
370
    35
100
AcDbVertex
100
AcDb2dVertex
 10
61.219731668755
 20
130.9133702927684
 30
0.0
  0
VERTEX
  5
55
330
52
100
AcDbEntity
  8
Layer 1
 62
     7
370
    35
100
AcDbVertex
100
AcDb2dVertex
 10
61.219731668755
 20
219.6349728535557
 30
0.0
  0
VERTEX
  5
56
330
52
100
AcDbEntity
  8
Layer 1
 62
     7
370
    35
100
AcDbVertex
100
AcDb2dVertex
 10
76.85306852972145
 20
219.6349728535557
 30
0.0
  0
VERTEX
  5
57
330
52
100
AcDbEntity
  8
Layer 1
 62
     7
370
    35
100
AcDbVertex
100
AcDb2dVertex
 10
76.85306852972145
 20
130.9133702927684
 30
0.0
  0
SEQEND
  5
58
330
52
100
AcDbEntity
  8
Layer 1
370
    35
  0
POLYLINE
  5
59
330
43
100
AcDbEntity
  8
Layer 1
 62
     7
370
    35
100
AcDb2dPolyline
 66
     1
 10
0.0
 20
0.0
 30
0.0
  0
VERTEX
  5
5A
330
59
100
AcDbEntity
  8
Layer 1
 62
     7
370
    35
100
AcDbVertex
100
AcDb2dVertex
 10
73.26913333211391
 20
144.7376863210291
 30
0.0
  0
VERTEX
  5
5B
330
59
100
AcDbEntity
  8
Layer 1
 62
     7
370
    35
100
AcDbVertex
100
AcDb2dVertex
 10
64.80280559192306
 20
144.7376863210291
 30
0.0
  0
VERTEX
  5
5C
330
59
100
AcDbEntity
  8
Layer 1
 62
     7
370
    35
100
AcDbVertex
100
AcDb2dVertex
 10
64.80280559192306
 20
191.1154200838215
 30
0.0
  0
VERTEX
  5
5D
330
59
100
AcDbEntity
  8
Layer 1
 62
     7
370
    35
100
AcDbVertex
100
AcDb2dVertex
 10
73.26913333211391
 20
191.1154200838215
 30
0.0
  0
VERTEX
  5
5E
330
59
100
AcDbEntity
  8
Layer 1
 62
     7
370
    35
100
AcDbVertex
100
AcDb2dVertex
 10
73.26913333211391
 20
144.7376863210291
 30
0.0
  0
SEQEND
  5
5F
330
59
100
AcDbEntity
  8
Layer 1
370
    35
  0
POLYLINE
  5
60
330
43
100
AcDbEntity
  8
Layer 1
 62
     7
370
    35
100
AcDb2dPolyline
 66
     1
 10
0.0
 20
0.0
 30
0.0
  0
VERTEX
  5
61
330
60
100
AcDbEntity
  8
Layer 1
 62
     7
370
    35
100
AcDbVertex
100
AcDb2dVertex
 10
353.6065564260667
 20
60.07251411535375
 30
0.0
  0
VERTEX
  5
62
330
60
100
AcDbEntity
  8
Layer 1
 62
     7
370
    35
100
AcDbVertex
100
AcDb2dVertex
 10
313.6065598877009
 20
60.07251411535375
 30
0.0
  0
VERTEX
  5
63
330
60
100
AcDbEntity
  8
Layer 1
 62
     7
370
    35
100
AcDbVertex
100
AcDb2dVertex
 10
313.6065598877009
 20
259.0727294378221
 30
0.0
  0
VERTEX
  5
64
330
60
100
AcDbEntity
  8
Layer 1
 62
     7
370
    35
100
AcDbVertex
100
AcDb2dVertex
 10
353.6065564260667
 20
259.0727294378221
 30
0.0
  0
VERTEX
  5
65
330
60
100
AcDbEntity
  8
Layer 1
 62
     7
370
    35
100
AcDbVertex
100
AcDb2dVertex
 10
353.6065564260667
 20
60.07251411535375
 30
0.0
  0
SEQEND
  5
66
330
60
100
AcDbEntity
  8
Layer 1
370
    35
  0
SPLINE
  5
67
330
43
100
AcDbEntity
  8
Layer 1
 62
     7
370
    35
100
AcDbSpline
210
0.0
220
0.0
230
1.0
 70
    11
 71
     3
 72
    17
 73
    13
 74
     0
 42
0.0000000001
 43
0.0000000001
 40
0.0
 40
0.0
 40
0.0
 40
0.0
 40
1.0
 40
1.0
 40
1.0
 40
2.0
 40
2.0
 40
2.0
 40
3.0
 40
3.0
 40
3.0
 40
4.0
 40
4.0
 40
4.0
 40
4.0
 10
325.606524398233
 20
251.3469254607052
 30
0.0
 10
325.606524398233
 20
250.1347678145663
 30
0.0
 10
324.7111434909388
 20
249.1525704437715
 30
0.0
 10
323.6066451497363
 20
249.1525704437715
 30
0.0
 10
322.501802298758
 20
249.1525704437715
 30
0.0
 10
321.6067659012396
 20
250.1347678145663
 30
0.0
 10
321.6067659012396
 20
251.3469254607052
 30
0.0
 10
321.6067659012396
 20
252.5587385970682
 30
0.0
 10
322.501802298758
 20
253.5409359678631
 30
0.0
 10
323.6066451497363
 20
253.5409359678631
 30
0.0
 10
324.7111434909388
 20
253.5409359678631
 30
0.0
 10
325.606524398233
 20
252.5587385970682
 30
0.0
 10
325.606524398233
 20
251.3469254607052
 30
0.0
  0
SPLINE
  5
68
330
43
100
AcDbEntity
  8
Layer 1
 62
     7
370
    35
100
AcDbSpline
210
0.0
220
0.0
230
1.0
 70
    11
 71
     3
 72
    17
 73
    13
 74
     0
 42
0.0000000001
 43
0.0000000001
 40
0.0
 40
0.0
 40
0.0
 40
0.0
 40
1.0
 40
1.0
 40
1.0
 40
2.0
 40
2.0
 40
2.0
 40
3.0
 40
3.0
 40
3.0
 40
4.0
 40
4.0
 40
4.0
 40
4.0
 10
345.2397920110809
 20
251.3469254607052
 30
0.0
 10
345.2397920110809
 20
250.1347678145663
 30
0.0
 10
344.3444111037867
 20
249.1525704437715
 30
0.0
 10
343.2399127625841
 20
249.1525704437715
 30
0.0
 10
342.1354144213817
 20
249.1525704437715
 30
0.0
 10
341.2396890043116
 20
250.1347678145663
 30
0.0
 10
341.2396890043116
 20
251.3469254607052
 30
0.0
 10
341.2396890043116
 20
252.5587385970682
 30
0.0
 10
342.1354144213817
 20
253.5409359678631
 30
0.0
 10
343.2399127625841
 20
253.5409359678631
 30
0.0
 10
344.3444111037867
 20
253.5409359678631
 30
0.0
 10
345.2397920110809
 20
252.5587385970682
 30
0.0
 10
345.2397920110809
 20
251.3469254607052
 30
0.0
  0
SPLINE
  5
69
330
43
100
AcDbEntity
  8
Layer 1
 62
     7
370
    35
100
AcDbSpline
210
0.0
220
0.0
230
1.0
 70
    11
 71
     3
 72
    17
 73
    13
 74
     0
 42
0.0000000001
 43
0.0000000001
 40
0.0
 40
0.0
 40
0.0
 40
0.0
 40
1.0
 40
1.0
 40
1.0
 40
2.0
 40
2.0
 40
2.0
 40
3.0
 40
3.0
 40
3.0
 40
4.0
 40
4.0
 40
4.0
 40
4.0
 10
325.606524398233
 20
84.59506446630085
 30
0.0
 10
325.606524398233
 20
83.38307907504993
 30
0.0
 10
324.7111434909388
 20
82.40122621403086
 30
0.0
 10
323.6066451497363
 20
82.40122621403086
 30
0.0
 10
322.501802298758
 20
82.40122621403086
 30
0.0
 10
321.6067659012396
 20
83.38307907504993
 30
0.0
 10
321.6067659012396
 20
84.59506446630085
 30
0.0
 10
321.6067659012396
 20
85.80704985755177
 30
0.0
 10
322.501802298758
 20
86.78890271857085
 30
0.0
 10
323.6066451497363
 20
86.78890271857085
 30
0.0
 10
324.7111434909388
 20
86.78890271857085
 30
0.0
 10
325.606524398233
 20
85.80704985755177
 30
0.0
 10
325.606524398233
 20
84.59506446630085
 30
0.0
  0
SPLINE
  5
6A
330
43
100
AcDbEntity
  8
Layer 1
 62
     7
370
    35
100
AcDbSpline
210
0.0
220
0.0
230
1.0
 70
    11
 71
     3
 72
    17
 73
    13
 74
     0
 42
0.0000000001
 43
0.0000000001
 40
0.0
 40
0.0
 40
0.0
 40
0.0
 40
1.0
 40
1.0
 40
1.0
 40
2.0
 40
2.0
 40
2.0
 40
3.0
 40
3.0
 40
3.0
 40
4.0
 40
4.0
 40
4.0
 40
4.0
 10
345.2397920110809
 20
84.59506446630085
 30
0.0
 10
345.2397920110809
 20
83.38307907504993
 30
0.0
 10
344.3444111037867
 20
82.40122621403086
 30
0.0
 10
343.2399127625841
 20
82.40122621403086
 30
0.0
 10
342.1354144213817
 20
82.40122621403086
 30
0.0
 10
341.2396890043116
 20
83.38307907504993
 30
0.0
 10
341.2396890043116
 20
84.59506446630085
 30
0.0
 10
341.2396890043116
 20
85.80704985755177
 30
0.0
 10
342.1354144213817
 20
86.78890271857085
 30
0.0
 10
343.2399127625841
 20
86.78890271857085
 30
0.0
 10
344.3444111037867
 20
86.78890271857085
 30
0.0
 10
345.2397920110809
 20
85.80704985755177
 30
0.0
 10
345.2397920110809
 20
84.59506446630085
 30
0.0
  0
POLYLINE
  5
6B
330
43
100
AcDbEntity
  8
Layer 1
 62
     7
370
    35
100
AcDb2dPolyline
 66
     1
 10
0.0
 20
0.0
 30
0.0
  0
VERTEX
  5
6C
330
6B
100
AcDbEntity
  8
Layer 1
 62
     7
370
    35
100
AcDbVertex
100
AcDb2dVertex
 10
344.3361428691676
 20
111.4502905091638
 30
0.0
  0
VERTEX
  5
6D
330
6B
100
AcDbEntity
  8
Layer 1
 62
     7
370
    35
100
AcDbVertex
100
AcDb2dVertex
 10
320.7027722495504
 20
111.4502905091638
 30
0.0
  0
VERTEX
  5
6E
330
6B
100
AcDbEntity
  8
Layer 1
 62
     7
370
    35
100
AcDbVertex
100
AcDb2dVertex
 10
320.7027722495504
 20
236.8806154652482
 30
0.0
  0
VERTEX
  5
6F
330
6B
100
AcDbEntity
  8
Layer 1
 62
     7
370
    35
100
AcDbVertex
100
AcDb2dVertex
 10
344.3361428691676
 20
236.8806154652482
 30
0.0
  0
VERTEX
  5
70
330
6B
100
AcDbEntity
  8
Layer 1
 62
     7
370
    35
100
AcDbVertex
100
AcDb2dVertex
 10
344.3361428691676
 20
111.4502905091638
 30
0.0
  0
SEQEND
  5
71
330
6B
100
AcDbEntity
  8
Layer 1
370
    35
  0
POLYLINE
  5
72
330
43
100
AcDbEntity
  8
Layer 1
 62
     7
370
    35
100
AcDb2dPolyline
 66
     1
 10
0.0
 20
0.0
 30
0.0
  0
VERTEX
  5
73
330
72
100
AcDbEntity
  8
Layer 1
 62
     7
370
    35
100
AcDbVertex
100
AcDb2dVertex
 10
341.4229682050351
 20
132.1053741170231
 30
0.0
  0
VERTEX
  5
74
330
72
100
AcDbEntity
  8
Layer 1
 62
     7
370
    35
100
AcDbVertex
100
AcDb2dVertex
 10
325.7898035989566
 20
132.1053741170231
 30
0.0
  0
VERTEX
  5
75
330
72
100
AcDbEntity
  8
Layer 1
 62
     7
370
    35
100
AcDbVertex
100
AcDb2dVertex
 10
325.7898035989566
 20
220.8269766778105
 30
0.0
  0
VERTEX
  5
76
330
72
100
AcDbEntity
  8
Layer 1
 62
     7
370
    35
100
AcDbVertex
100
AcDb2dVertex
 10
341.4229682050351
 20
220.8269766778105
 30
0.0
  0
VERTEX
  5
77
330
72
100
AcDbEntity
  8
Layer 1
 62
     7
370
    35
100
AcDbVertex
100
AcDb2dVertex
 10
341.4229682050351
 20
132.1053741170231
 30
0.0
  0
SEQEND
  5
78
330
72
100
AcDbEntity
  8
Layer 1
370
    35
  0
POLYLINE
  5
79
330
43
100
AcDbEntity
  8
Layer 1
 62
     7
370
    35
100
AcDb2dPolyline
 66
     1
 10
0.0
 20
0.0
 30
0.0
  0
VERTEX
  5
7A
330
79
100
AcDbEntity
  8
Layer 1
 62
     7
370
    35
100
AcDbVertex
100
AcDb2dVertex
 10
337.8397220269792
 20
145.9298624001718
 30
0.0
  0
VERTEX
  5
7B
330
79
100
AcDbEntity
  8
Layer 1
 62
     7
370
    35
100
AcDbVertex
100
AcDb2dVertex
 10
329.3733942867884
 20
145.9298624001718
 30
0.0
  0
VERTEX
  5
7C
330
79
100
AcDbEntity
  8
Layer 1
 62
     7
370
    35
100
AcDbVertex
100
AcDb2dVertex
 10
329.3733942867884
 20
192.3074239080762
 30
0.0
  0
VERTEX
  5
7D
330
79
100
AcDbEntity
  8
Layer 1
 62
     7
370
    35
100
AcDbVertex
100
AcDb2dVertex
 10
337.8397220269792
 20
192.3074239080762
 30
0.0
  0
VERTEX
  5
7E
330
79
100
AcDbEntity
  8
Layer 1
 62
     7
370
    35
100
AcDbVertex
100
AcDb2dVertex
 10
337.8397220269792
 20
145.9298624001718
 30
0.0
  0
SEQEND
  5
7F
330
79
100
AcDbEntity
  8
Layer 1
370
    35
  0
SPLINE
  5
80
330
43
100
AcDbEntity
  8
Layer 1
 62
     7
370
    35
100
AcDbSpline
210
0.0
220
0.0
230
1.0
 70
     8
 71
     3
 72
     8
 73
     4
 74
     0
 42
0.0000000001
 43
0.0000000001
 40
0.0
 40
0.0
 40
0.0
 40
0.0
 40
1.0
 40
1.0
 40
1.0
 40
1.0
 10
263.8779517906271
 20
241.0872520826074
 30
0.0
 10
263.8779517906271
 20
219.5035423740895
 30
0.0
 10
263.8779517906271
 20
197.8316381629678
 30
0.0
 10
263.8689945364564
 20
176.0699891552512
 30
0.0
  0
POLYLINE
  5
81
330
43
100
AcDbEntity
  8
Layer 1
 62
     7
370
    35
100
AcDb2dPolyline
 66
     1
 10
0.0
 20
0.0
 30
0.0
  0
VERTEX
  5
82
330
81
100
AcDbEntity
  8
Layer 1
 62
     7
370
    35
100
AcDbVertex
100
AcDb2dVertex
 10
279.1266434869171
 20
176.0661995477174
 30
0.0
  0
VERTEX
  5
83
330
81
100
AcDbEntity
  8
Layer 1
 62
     7
370
    35
100
AcDbVertex
100
AcDb2dVertex
 10
287.3115067402825
 20
175.7575187886041
 30
0.0
  0
VERTEX
  5
84
330
81
100
AcDbEntity
  8
Layer 1
 62
     7
370
    35
100
AcDbVertex
100
AcDb2dVertex
 10
293.8840642429219
 20
173.9788148161685
 30
0.0
  0
VERTEX
  5
85
330
81
100
AcDbEntity
  8
Layer 1
 62
     7
370
    35
100
AcDbVertex
100
AcDb2dVertex
 10
299.9184974757675
 20
170.100668270031
 30
0.0
  0
VERTEX
  5
86
330
81
100
AcDbEntity
  8
Layer 1
 62
     7
370
    35
100
AcDbVertex
100
AcDb2dVertex
 10
302.358315707956
 20
164.6386380296706
 30
0.0
  0
VERTEX
  5
87
330
81
100
AcDbEntity
  8
Layer 1
 62
     7
370
    35
100
AcDbVertex
100
AcDb2dVertex
 10
300.6636721208146
 20
160.0409828167828
 30
0.0
  0
VERTEX
  5
88
330
81
100
AcDbEntity
  8
Layer 1
 62
     7
370
    35
100
AcDbVertex
100
AcDb2dVertex
 10
296.7028432284861
 20
156.6876969140708
 30
0.0
  0
VERTEX
  5
89
330
81
100
AcDbEntity
  8
Layer 1
 62
     7
370
    35
100
AcDbVertex
100
AcDb2dVertex
 10
290.7424795974366
 20
154.2404717217028
 30
0.0
  0
VERTEX
  5
8A
330
81
100
AcDbEntity
  8
Layer 1
 62
     7
370
    35
100
AcDbVertex
100
AcDb2dVertex
 10
284.6642936230647
 20
153.2143493544939
 30
0.0
  0
VERTEX
  5
8B
330
81
100
AcDbEntity
  8
Layer 1
 62
     7
370
    35
100
AcDbVertex
100
AcDb2dVertex
 10
281.8696303218063
 20
153.1056565202302
 30
0.0
  0
VERTEX
  5
8C
330
81
100
AcDbEntity
  8
Layer 1
 62
     7
370
    35
100
AcDbVertex
100
AcDb2dVertex
 10
263.9127472779825
 20
153.1056565202302
 30
0.0
  0
SEQEND
  5
8D
330
81
100
AcDbEntity
  8
Layer 1
370
    35
  0
POLYLINE
  5
8E
330
43
100
AcDbEntity
  8
Layer 1
 62
     7
370
    35
100
AcDb2dPolyline
 66
     1
 10
0.0
 20
0.0
 30
0.0
  0
VERTEX
  5
8F
330
8E
100
AcDbEntity
  8
Layer 1
 62
     7
370
    35
100
AcDbVertex
100
AcDb2dVertex
 10
263.7556508202195
 20
176.1721363037747
 30
0.0
  0
VERTEX
  5
90
330
8E
100
AcDbEntity
  8
Layer 1
 62
     7
370
    35
100
AcDbVertex
100
AcDb2dVertex
 10
282.9279643530521
 20
176.1721363037747
 30
0.0
  0
SEQEND
  5
91
330
8E
100
AcDbEntity
  8
Layer 1
370
    35
  0
POLYLINE
  5
92
330
43
100
AcDbEntity
  8
Layer 1
 62
     7
370
    35
100
AcDb2dPolyline
 66
     1
 10
0.0
 20
0.0
 30
0.0
  0
VERTEX
  5
93
330
92
100
AcDbEntity
  8
Layer 1
 62
     7
370
    35
100
AcDbVertex
100
AcDb2dVertex
 10
130.7552403056779
 20
153.1721469069588
 30
0.0
  0
VERTEX
  5
94
330
92
100
AcDbEntity
  8
Layer 1
 62
     7
370
    35
100
AcDbVertex
100
AcDb2dVertex
 10
116.0439838596299
 20
153.1721469069588
 30
0.0
  0
VERTEX
  5
95
330
92
100
AcDbEntity
  8
Layer 1
 62
     7
370
    35
100
AcDbVertex
100
AcDb2dVertex
 10
107.8691113897626
 20
154.456307096239
 30
0.0
  0
VERTEX
  5
96
330
92
100
AcDbEntity
  8
Layer 1
 62
     7
370
    35
100
AcDbVertex
100
AcDb2dVertex
 10
101.4309126996838
 20
157.9303436753676
 30
0.0
  0
VERTEX
  5
97
330
92
100
AcDbEntity
  8
Layer 1
 62
     7
370
    35
100
AcDbVertex
100
AcDb2dVertex
 10
97.92742053472469
 20
162.2780570459153
 30
0.0
  0
VERTEX
  5
98
330
92
100
AcDbEntity
  8
Layer 1
 62
     7
370
    35
100
AcDbVertex
100
AcDb2dVertex
 10
98.83193095107752
 20
168.3533146871928
 30
0.0
  0
VERTEX
  5
99
330
92
100
AcDbEntity
  8
Layer 1
 62
     7
370
    35
100
AcDbVertex
100
AcDb2dVertex
 10
102.4670258503908
 20
172.382356515129
 30
0.0
  0
VERTEX
  5
9A
330
92
100
AcDbEntity
  8
Layer 1
 62
     7
370
    35
100
AcDbVertex
100
AcDb2dVertex
 10
107.5201229868811
 20
174.9251831702805
 30
0.0
  0
VERTEX
  5
9B
330
92
100
AcDbEntity
  8
Layer 1
 62
     7
370
    35
100
AcDbVertex
100
AcDb2dVertex
 10
114.3415888025332
 20
176.0660272928295
 30
0.0
  0
VERTEX
  5
9C
330
92
100
AcDbEntity
  8
Layer 1
 62
     7
370
    35
100
AcDbVertex
100
AcDb2dVertex
 10
119.4885648529279
 20
176.0699891552512
 30
0.0
  0
VERTEX
  5
9D
330
92
100
AcDbEntity
  8
Layer 1
 62
     7
370
    35
100
AcDbVertex
100
AcDb2dVertex
 10
121.7280506504909
 20
176.2804846282627
 30
0.0
  0
SEQEND
  5
9E
330
92
100
AcDbEntity
  8
Layer 1
370
    35
  0
POLYLINE
  5
9F
330
43
100
AcDbEntity
  8
Layer 1
 62
     7
370
    35
100
AcDb2dPolyline
 66
     1
 10
0.0
 20
0.0
 30
0.0
  0
VERTEX
  5
A0
330
9F
100
AcDbEntity
  8
Layer 1
 62
     7
370
    35
100
AcDbVertex
100
AcDb2dVertex
 10
130.7552403056779
 20
176.1721363037747
 30
0.0
  0
VERTEX
  5
A1
330
9F
100
AcDbEntity
  8
Layer 1
 62
     7
370
    35
100
AcDbVertex
100
AcDb2dVertex
 10
113.1375271361255
 20
176.1721363037747
 30
0.0
  0
SEQEND
  5
A2
330
9F
100
AcDbEntity
  8
Layer 1
370
    35
  0
SPLINE
  5
A3
330
43
100
AcDbEntity
  8
Layer 1
 62
     7
370
    35
100
AcDbSpline
210
0.0
220
0.0
230
1.0
 70
    11
 71
     3
 72
    17
 73
    13
 74
     0
 42
0.0000000001
 43
0.0000000001
 40
0.0
 40
0.0
 40
0.0
 40
0.0
 40
1.0
 40
1.0
 40
1.0
 40
2.0
 40
2.0
 40
2.0
 40
3.0
 40
3.0
 40
3.0
 40
4.0
 40
4.0
 40
4.0
 40
4.0
 10
145.0580804125196
 20
250.1547493815625
 30
0.0
 10
145.0580804125196
 20
248.7739542001715
 30
0.0
 10
143.9387681509578
 20
247.6546419386097
 30
0.0
 10
142.5579729695668
 20
247.6546419386097
 30
0.0
 10
141.1775222979515
 20
247.6546419386097
 30
0.0
 10
140.0582100363898
 20
248.7739542001715
 30
0.0
 10
140.0582100363898
 20
250.1547493815625
 30
0.0
 10
140.0582100363898
 20
251.5355445629536
 30
0.0
 10
141.1775222979515
 20
252.6545123147395
 30
0.0
 10
142.5579729695668
 20
252.6545123147395
 30
0.0
 10
143.9387681509578
 20
252.6545123147395
 30
0.0
 10
145.0580804125196
 20
251.5355445629536
 30
0.0
 10
145.0580804125196
 20
250.1547493815625
 30
0.0
  0
SPLINE
  5
A4
330
43
100
AcDbEntity
  8
Layer 1
 62
     7
370
    35
100
AcDbSpline
210
0.0
220
0.0
230
1.0
 70
    11
 71
     3
 72
    17
 73
    13
 74
     0
 42
0.0000000001
 43
0.0000000001
 40
0.0
 40
0.0
 40
0.0
 40
0.0
 40
1.0
 40
1.0
 40
1.0
 40
2.0
 40
2.0
 40
2.0
 40
3.0
 40
3.0
 40
3.0
 40
4.0
 40
4.0
 40
4.0
 40
4.0
 10
145.0580804125196
 20
83.40306064204611
 30
0.0
 10
145.0580804125196
 20
82.02226546065506
 30
0.0
 10
143.9387681509578
 20
80.90295319909332
 30
0.0
 10
142.5579729695668
 20
80.90295319909332
 30
0.0
 10
141.1775222979515
 20
80.90295319909332
 30
0.0
 10
140.0582100363898
 20
82.02226546065506
 30
0.0
 10
140.0582100363898
 20
83.40306064204611
 30
0.0
 10
140.0582100363898
 20
84.78351131366135
 30
0.0
 10
141.1775222979515
 20
85.90316808499891
 30
0.0
 10
142.5579729695668
 20
85.90316808499891
 30
0.0
 10
143.9387681509578
 20
85.90316808499891
 30
0.0
 10
145.0580804125196
 20
84.78351131366135
 30
0.0
 10
145.0580804125196
 20
83.40306064204611
 30
0.0
  0
SPLINE
  5
A5
330
43
100
AcDbEntity
  8
Layer 1
 62
     7
370
    35
100
AcDbSpline
210
0.0
220
0.0
230
1.0
 70
    11
 71
     3
 72
    17
 73
    13
 74
     0
 42
0.0000000001
 43
0.0000000001
 40
0.0
 40
0.0
 40
0.0
 40
0.0
 40
1.0
 40
1.0
 40
1.0
 40
2.0
 40
2.0
 40
2.0
 40
3.0
 40
3.0
 40
3.0
 40
4.0
 40
4.0
 40
4.0
 40
4.0
 10
254.5899682351624
 20
250.1547493815625
 30
0.0
 10
254.5899682351624
 20
248.7739542001715
 30
0.0
 10
253.4710004833765
 20
247.6546419386097
 30
0.0
 10
252.0902053019854
 20
247.6546419386097
 30
0.0
 10
250.7094101205944
 20
247.6546419386097
 30
0.0
 10
249.5900978590326
 20
248.7739542001715
 30
0.0
 10
249.5900978590326
 20
250.1547493815625
 30
0.0
 10
249.5900978590326
 20
251.5355445629536
 30
0.0
 10
250.7094101205944
 20
252.6545123147395
 30
0.0
 10
252.0902053019854
 20
252.6545123147395
 30
0.0
 10
253.4710004833765
 20
252.6545123147395
 30
0.0
 10
254.5899682351624
 20
251.5355445629536
 30
0.0
 10
254.5899682351624
 20
250.1547493815625
 30
0.0
  0
SPLINE
  5
A6
330
43
100
AcDbEntity
  8
Layer 1
 62
     7
370
    35
100
AcDbSpline
210
0.0
220
0.0
230
1.0
 70
    11
 71
     3
 72
    17
 73
    13
 74
     0
 42
0.0000000001
 43
0.0000000001
 40
0.0
 40
0.0
 40
0.0
 40
0.0
 40
1.0
 40
1.0
 40
1.0
 40
2.0
 40
2.0
 40
2.0
 40
3.0
 40
3.0
 40
3.0
 40
4.0
 40
4.0
 40
4.0
 40
4.0
 10
254.5899682351624
 20
83.40306064204611
 30
0.0
 10
254.5899682351624
 20
82.02226546065506
 30
0.0
 10
253.4710004833765
 20
80.90295319909332
 30
0.0
 10
252.0902053019854
 20
80.90295319909332
 30
0.0
 10
250.7094101205944
 20
80.90295319909332
 30
0.0
 10
249.5900978590326
 20
82.02226546065506
 30
0.0
 10
249.5900978590326
 20
83.40306064204611
 30
0.0
 10
249.5900978590326
 20
84.78385582343715
 30
0.0
 10
250.7094101205944
 20
85.90282357522311
 30
0.0
 10
252.0902053019854
 20
85.90282357522311
 30
0.0
 10
253.4710004833765
 20
85.90282357522311
 30
0.0
 10
254.5899682351624
 20
84.78385582343715
 30
0.0
 10
254.5899682351624
 20
83.40306064204611
 30
0.0
  0
SPLINE
  5
A7
330
43
100
AcDbEntity
  8
Layer 1
 62
     7
370
    35
100
AcDbSpline
210
0.0
220
0.0
230
1.0
 70
    11
 71
     3
 72
    17
 73
    13
 74
     0
 42
0.0000000001
 43
0.0000000001
 40
0.0
 40
0.0
 40
0.0
 40
0.0
 40
1.0
 40
1.0
 40
1.0
 40
2.0
 40
2.0
 40
2.0
 40
3.0
 40
3.0
 40
3.0
 40
4.0
 40
4.0
 40
4.0
 40
4.0
 10
153.4825502149512
 20
233.1885041980407
 30
0.0
 10
153.4825502149512
 20
231.8077090166497
 30
0.0
 10
152.3632379533894
 20
230.6883967550879
 30
0.0
 10
150.9824427719984
 20
230.6883967550879
 30
0.0
 10
149.6019921003831
 20
230.6883967550879
 30
0.0
 10
148.4826798388214
 20
231.8077090166497
 30
0.0
 10
148.4826798388214
 20
233.1885041980407
 30
0.0
 10
148.4826798388214
 20
234.5692993794318
 30
0.0
 10
149.6019921003831
 20
235.6882671312177
 30
0.0
 10
150.9824427719984
 20
235.6882671312177
 30
0.0
 10
152.3632379533894
 20
235.6882671312177
 30
0.0
 10
153.4825502149512
 20
234.5692993794318
 30
0.0
 10
153.4825502149512
 20
233.1885041980407
 30
0.0
  0
SPLINE
  5
A8
330
43
100
AcDbEntity
  8
Layer 1
 62
     7
370
    35
100
AcDbSpline
210
0.0
220
0.0
230
1.0
 70
    11
 71
     3
 72
    17
 73
    13
 74
     0
 42
0.0000000001
 43
0.0000000001
 40
0.0
 40
0.0
 40
0.0
 40
0.0
 40
1.0
 40
1.0
 40
1.0
 40
2.0
 40
2.0
 40
2.0
 40
3.0
 40
3.0
 40
3.0
 40
4.0
 40
4.0
 40
4.0
 40
4.0
 10
159.4596225701268
 20
233.1886764529286
 30
0.0
 10
159.4596225701268
 20
231.8078812715376
 30
0.0
 10
158.3403103085651
 20
230.6885690099758
 30
0.0
 10
156.959515127174
 20
230.6885690099758
 30
0.0
 10
155.5790644555588
 20
230.6885690099758
 30
0.0
 10
154.459752193997
 20
231.8078812715376
 30
0.0
 10
154.459752193997
 20
233.1886764529286
 30
0.0
 10
154.459752193997
 20
234.5694716343197
 30
0.0
 10
155.5790644555588
 20
235.6884393861056
 30
0.0
 10
156.959515127174
 20
235.6884393861056
 30
0.0
 10
158.3403103085651
 20
235.6884393861056
 30
0.0
 10
159.4596225701268
 20
234.5694716343197
 30
0.0
 10
159.4596225701268
 20
233.1886764529286
 30
0.0
  0
SPLINE
  5
A9
330
43
100
AcDbEntity
  8
Layer 1
 62
     7
370
    35
100
AcDbSpline
210
0.0
220
0.0
230
1.0
 70
    11
 71
     3
 72
    17
 73
    13
 74
     0
 42
0.0000000001
 43
0.0000000001
 40
0.0
 40
0.0
 40
0.0
 40
0.0
 40
1.0
 40
1.0
 40
1.0
 40
2.0
 40
2.0
 40
2.0
 40
3.0
 40
3.0
 40
3.0
 40
4.0
 40
4.0
 40
4.0
 40
4.0
 10
147.7769515631029
 20
233.1885041980407
 30
0.0
 10
147.7769515631029
 20
231.8077090166497
 30
0.0
 10
146.6576393015412
 20
230.6883967550879
 30
0.0
 10
145.2768441201501
 20
230.6883967550879
 30
0.0
 10
143.8963934485349
 20
230.6883967550879
 30
0.0
 10
142.7770811869731
 20
231.8077090166497
 30
0.0
 10
142.7770811869731
 20
233.1885041980407
 30
0.0
 10
142.7770811869731
 20
234.5692993794318
 30
0.0
 10
143.8963934485349
 20
235.6882671312177
 30
0.0
 10
145.2768441201501
 20
235.6882671312177
 30
0.0
 10
146.6576393015412
 20
235.6882671312177
 30
0.0
 10
147.7769515631029
 20
234.5692993794318
 30
0.0
 10
147.7769515631029
 20
233.1885041980407
 30
0.0
  0
SPLINE
  5
AA
330
43
100
AcDbEntity
  8
Layer 1
 62
     7
370
    35
100
AcDbSpline
210
0.0
220
0.0
230
1.0
 70
    11
 71
     3
 72
    17
 73
    13
 74
     0
 42
0.0000000001
 43
0.0000000001
 40
0.0
 40
0.0
 40
0.0
 40
0.0
 40
1.0
 40
1.0
 40
1.0
 40
2.0
 40
2.0
 40
2.0
 40
3.0
 40
3.0
 40
3.0
 40
4.0
 40
4.0
 40
4.0
 40
4.0
 10
153.4825502149512
 20
197.8660891405474
 30
0.0
 10
153.4825502149512
 20
196.4852939591564
 30
0.0
 10
152.3632379533894
 20
195.3659816975946
 30
0.0
 10
150.9824427719984
 20
195.3659816975946
 30
0.0
 10
149.6019921003831
 20
195.3659816975946
 30
0.0
 10
148.4826798388214
 20
196.4852939591564
 30
0.0
 10
148.4826798388214
 20
197.8660891405474
 30
0.0
 10
148.4826798388214
 20
199.2468843219385
 30
0.0
 10
149.6019921003831
 20
200.3658520737244
 30
0.0
 10
150.9824427719984
 20
200.3658520737244
 30
0.0
 10
152.3632379533894
 20
200.3658520737244
 30
0.0
 10
153.4825502149512
 20
199.2468843219385
 30
0.0
 10
153.4825502149512
 20
197.8660891405474
 30
0.0
  0
SPLINE
  5
AB
330
43
100
AcDbEntity
  8
Layer 1
 62
     7
370
    35
100
AcDbSpline
210
0.0
220
0.0
230
1.0
 70
    11
 71
     3
 72
    17
 73
    13
 74
     0
 42
0.0000000001
 43
0.0000000001
 40
0.0
 40
0.0
 40
0.0
 40
0.0
 40
1.0
 40
1.0
 40
1.0
 40
2.0
 40
2.0
 40
2.0
 40
3.0
 40
3.0
 40
3.0
 40
4.0
 40
4.0
 40
4.0
 40
4.0
 10
159.4596225701268
 20
197.8356000253895
 30
0.0
 10
159.4596225701268
 20
196.4548048439984
 30
0.0
 10
158.3403103085651
 20
195.3354925824366
 30
0.0
 10
156.959515127174
 20
195.3354925824366
 30
0.0
 10
155.5790644555588
 20
195.3354925824366
 30
0.0
 10
154.459752193997
 20
196.4548048439984
 30
0.0
 10
154.459752193997
 20
197.8356000253895
 30
0.0
 10
154.459752193997
 20
199.2163952067805
 30
0.0
 10
155.5790644555588
 20
200.3353629585665
 30
0.0
 10
156.959515127174
 20
200.3353629585665
 30
0.0
 10
158.3403103085651
 20
200.3353629585665
 30
0.0
 10
159.4596225701268
 20
199.2163952067805
 30
0.0
 10
159.4596225701268
 20
197.8356000253895
 30
0.0
  0
SPLINE
  5
AC
330
43
100
AcDbEntity
  8
Layer 1
 62
     7
370
    35
100
AcDbSpline
210
0.0
220
0.0
230
1.0
 70
    11
 71
     3
 72
    17
 73
    13
 74
     0
 42
0.0000000001
 43
0.0000000001
 40
0.0
 40
0.0
 40
0.0
 40
0.0
 40
1.0
 40
1.0
 40
1.0
 40
2.0
 40
2.0
 40
2.0
 40
3.0
 40
3.0
 40
3.0
 40
4.0
 40
4.0
 40
4.0
 40
4.0
 10
147.7769515631029
 20
197.8660891405474
 30
0.0
 10
147.7769515631029
 20
196.4852939591564
 30
0.0
 10
146.6576393015412
 20
195.3659816975946
 30
0.0
 10
145.2768441201501
 20
195.3659816975946
 30
0.0
 10
143.8963934485349
 20
195.3659816975946
 30
0.0
 10
142.7770811869731
 20
196.4852939591564
 30
0.0
 10
142.7770811869731
 20
197.8660891405474
 30
0.0
 10
142.7770811869731
 20
199.2468843219385
 30
0.0
 10
143.8963934485349
 20
200.3658520737244
 30
0.0
 10
145.2768441201501
 20
200.3658520737244
 30
0.0
 10
146.6576393015412
 20
200.3658520737244
 30
0.0
 10
147.7769515631029
 20
199.2468843219385
 30
0.0
 10
147.7769515631029
 20
197.8660891405474
 30
0.0
  0
SPLINE
  5
AD
330
43
100
AcDbEntity
  8
Layer 1
 62
     7
370
    35
100
AcDbSpline
210
0.0
220
0.0
230
1.0
 70
    11
 71
     3
 72
    17
 73
    13
 74
     0
 42
0.0000000001
 43
0.0000000001
 40
0.0
 40
0.0
 40
0.0
 40
0.0
 40
1.0
 40
1.0
 40
1.0
 40
2.0
 40
2.0
 40
2.0
 40
3.0
 40
3.0
 40
3.0
 40
4.0
 40
4.0
 40
4.0
 40
4.0
 10
153.9812281154161
 20
139.6945799680369
 30
0.0
 10
153.9812281154161
 20
138.3137847866459
 30
0.0
 10
152.8619158538544
 20
137.1941280153083
 30
0.0
 10
151.4811206724633
 20
137.1941280153083
 30
0.0
 10
150.1006700008481
 20
137.1941280153083
 30
0.0
 10
148.9813577392864
 20
138.3137847866459
 30
0.0
 10
148.9813577392864
 20
139.6945799680369
 30
0.0
 10
148.9813577392864
 20
141.075375149428
 30
0.0
 10
150.1006700008481
 20
142.1943429012139
 30
0.0
 10
151.4811206724633
 20
142.1943429012139
 30
0.0
 10
152.8619158538544
 20
142.1943429012139
 30
0.0
 10
153.9812281154161
 20
141.075375149428
 30
0.0
 10
153.9812281154161
 20
139.6945799680369
 30
0.0
  0
SPLINE
  5
AE
330
43
100
AcDbEntity
  8
Layer 1
 62
     7
370
    35
100
AcDbSpline
210
0.0
220
0.0
230
1.0
 70
    11
 71
     3
 72
    17
 73
    13
 74
     0
 42
0.0000000001
 43
0.0000000001
 40
0.0
 40
0.0
 40
0.0
 40
0.0
 40
1.0
 40
1.0
 40
1.0
 40
2.0
 40
2.0
 40
2.0
 40
3.0
 40
3.0
 40
3.0
 40
4.0
 40
4.0
 40
4.0
 40
4.0
 10
159.9583004705918
 20
139.6945799680369
 30
0.0
 10
159.9583004705918
 20
138.3137847866459
 30
0.0
 10
158.83898820903
 20
137.1948170348599
 30
0.0
 10
157.458193027639
 20
137.1948170348599
 30
0.0
 10
156.0777423560237
 20
137.1948170348599
 30
0.0
 10
154.958430094462
 20
138.3137847866459
 30
0.0
 10
154.958430094462
 20
139.6945799680369
 30
0.0
 10
154.958430094462
 20
141.075375149428
 30
0.0
 10
156.0777423560237
 20
142.1946874109897
 30
0.0
 10
157.458193027639
 20
142.1946874109897
 30
0.0
 10
158.83898820903
 20
142.1946874109897
 30
0.0
 10
159.9583004705918
 20
141.075375149428
 30
0.0
 10
159.9583004705918
 20
139.6945799680369
 30
0.0
  0
SPLINE
  5
AF
330
43
100
AcDbEntity
  8
Layer 1
 62
     7
370
    35
100
AcDbSpline
210
0.0
220
0.0
230
1.0
 70
    11
 71
     3
 72
    17
 73
    13
 74
     0
 42
0.0000000001
 43
0.0000000001
 40
0.0
 40
0.0
 40
0.0
 40
0.0
 40
1.0
 40
1.0
 40
1.0
 40
2.0
 40
2.0
 40
2.0
 40
3.0
 40
3.0
 40
3.0
 40
4.0
 40
4.0
 40
4.0
 40
4.0
 10
148.2756294635679
 20
139.6945799680369
 30
0.0
 10
148.2756294635679
 20
138.3137847866459
 30
0.0
 10
147.1563172020061
 20
137.1941280153083
 30
0.0
 10
145.7755220206151
 20
137.1941280153083
 30
0.0
 10
144.3950713489998
 20
137.1941280153083
 30
0.0
 10
143.2757590874381
 20
138.3137847866459
 30
0.0
 10
143.2757590874381
 20
139.6945799680369
 30
0.0
 10
143.2757590874381
 20
141.075375149428
 30
0.0
 10
144.3950713489998
 20
142.1943429012139
 30
0.0
 10
145.7755220206151
 20
142.1943429012139
 30
0.0
 10
147.1563172020061
 20
142.1943429012139
 30
0.0
 10
148.2756294635679
 20
141.075375149428
 30
0.0
 10
148.2756294635679
 20
139.6945799680369
 30
0.0
  0
SPLINE
  5
B0
330
43
100
AcDbEntity
  8
Layer 1
 62
     7
370
    35
100
AcDbSpline
210
0.0
220
0.0
230
1.0
 70
    11
 71
     3
 72
    17
 73
    13
 74
     0
 42
0.0000000001
 43
0.0000000001
 40
0.0
 40
0.0
 40
0.0
 40
0.0
 40
1.0
 40
1.0
 40
1.0
 40
2.0
 40
2.0
 40
2.0
 40
3.0
 40
3.0
 40
3.0
 40
4.0
 40
4.0
 40
4.0
 40
4.0
 10
153.9812281154161
 20
104.3719926556557
 30
0.0
 10
153.9812281154161
 20
102.9911974742647
 30
0.0
 10
152.8619158538544
 20
101.8722297224787
 30
0.0
 10
151.4811206724633
 20
101.8722297224787
 30
0.0
 10
150.1006700008481
 20
101.8722297224787
 30
0.0
 10
148.9813577392864
 20
102.9911974742647
 30
0.0
 10
148.9813577392864
 20
104.3719926556557
 30
0.0
 10
148.9813577392864
 20
105.7527878370468
 30
0.0
 10
150.1006700008481
 20
106.8724446083843
 30
0.0
 10
151.4811206724633
 20
106.8724446083843
 30
0.0
 10
152.8619158538544
 20
106.8724446083843
 30
0.0
 10
153.9812281154161
 20
105.7527878370468
 30
0.0
 10
153.9812281154161
 20
104.3719926556557
 30
0.0
  0
SPLINE
  5
B1
330
43
100
AcDbEntity
  8
Layer 1
 62
     7
370
    35
100
AcDbSpline
210
0.0
220
0.0
230
1.0
 70
    11
 71
     3
 72
    17
 73
    13
 74
     0
 42
0.0000000001
 43
0.0000000001
 40
0.0
 40
0.0
 40
0.0
 40
0.0
 40
1.0
 40
1.0
 40
1.0
 40
2.0
 40
2.0
 40
2.0
 40
3.0
 40
3.0
 40
3.0
 40
4.0
 40
4.0
 40
4.0
 40
4.0
 10
159.9583004705918
 20
104.3416757953857
 30
0.0
 10
159.9583004705918
 20
102.9608806139946
 30
0.0
 10
158.83898820903
 20
101.8419128622087
 30
0.0
 10
157.458193027639
 20
101.8419128622087
 30
0.0
 10
156.0777423560237
 20
101.8419128622087
 30
0.0
 10
154.958430094462
 20
102.9608806139946
 30
0.0
 10
154.958430094462
 20
104.3416757953857
 30
0.0
 10
154.958430094462
 20
105.7224709767767
 30
0.0
 10
156.0777423560237
 20
106.8414387285627
 30
0.0
 10
157.458193027639
 20
106.8414387285627
 30
0.0
 10
158.83898820903
 20
106.8414387285627
 30
0.0
 10
159.9583004705918
 20
105.7224709767767
 30
0.0
 10
159.9583004705918
 20
104.3416757953857
 30
0.0
  0
SPLINE
  5
B2
330
43
100
AcDbEntity
  8
Layer 1
 62
     7
370
    35
100
AcDbSpline
210
0.0
220
0.0
230
1.0
 70
    11
 71
     3
 72
    17
 73
    13
 74
     0
 42
0.0000000001
 43
0.0000000001
 40
0.0
 40
0.0
 40
0.0
 40
0.0
 40
1.0
 40
1.0
 40
1.0
 40
2.0
 40
2.0
 40
2.0
 40
3.0
 40
3.0
 40
3.0
 40
4.0
 40
4.0
 40
4.0
 40
4.0
 10
148.2756294635679
 20
104.3719926556557
 30
0.0
 10
148.2756294635679
 20
102.9911974742647
 30
0.0
 10
147.1563172020061
 20
101.8722297224787
 30
0.0
 10
145.7755220206151
 20
101.8722297224787
 30
0.0
 10
144.3950713489998
 20
101.8722297224787
 30
0.0
 10
143.2757590874381
 20
102.9911974742647
 30
0.0
 10
143.2757590874381
 20
104.3719926556557
 30
0.0
 10
143.2757590874381
 20
105.7527878370468
 30
0.0
 10
144.3950713489998
 20
106.8724446083843
 30
0.0
 10
145.7755220206151
 20
106.8724446083843
 30
0.0
 10
147.1563172020061
 20
106.8724446083843
 30
0.0
 10
148.2756294635679
 20
105.7527878370468
 30
0.0
 10
148.2756294635679
 20
104.3719926556557
 30
0.0
  0
SPLINE
  5
B3
330
43
100
AcDbEntity
  8
Layer 1
 62
     7
370
    35
100
AcDbSpline
210
0.0
220
0.0
230
1.0
 70
    11
 71
     3
 72
    17
 73
    13
 74
     0
 42
0.0000000001
 43
0.0000000001
 40
0.0
 40
0.0
 40
0.0
 40
0.0
 40
1.0
 40
1.0
 40
1.0
 40
2.0
 40
2.0
 40
2.0
 40
3.0
 40
3.0
 40
3.0
 40
4.0
 40
4.0
 40
4.0
 40
4.0
 10
246.3251787138123
 20
233.1885041980407
 30
0.0
 10
246.3251787138123
 20
231.8077090166497
 30
0.0
 10
245.2058664522506
 20
230.6883967550879
 30
0.0
 10
243.8250712708595
 20
230.6883967550879
 30
0.0
 10
242.4446205992443
 20
230.6883967550879
 30
0.0
 10
241.3249638279067
 20
231.8077090166497
 30
0.0
 10
241.3249638279067
 20
233.1885041980407
 30
0.0
 10
241.3249638279067
 20
234.5692993794318
 30
0.0
 10
242.4446205992443
 20
235.6882671312177
 30
0.0
 10
243.8250712708595
 20
235.6882671312177
 30
0.0
 10
245.2058664522506
 20
235.6882671312177
 30
0.0
 10
246.3251787138123
 20
234.5692993794318
 30
0.0
 10
246.3251787138123
 20
233.1885041980407
 30
0.0
  0
SPLINE
  5
B4
330
43
100
AcDbEntity
  8
Layer 1
 62
     7
370
    35
100
AcDbSpline
210
0.0
220
0.0
230
1.0
 70
    11
 71
     3
 72
    17
 73
    13
 74
     0
 42
0.0000000001
 43
0.0000000001
 40
0.0
 40
0.0
 40
0.0
 40
0.0
 40
1.0
 40
1.0
 40
1.0
 40
2.0
 40
2.0
 40
2.0
 40
3.0
 40
3.0
 40
3.0
 40
4.0
 40
4.0
 40
4.0
 40
4.0
 10
252.3024233238758
 20
233.1886764529286
 30
0.0
 10
252.3024233238758
 20
231.8078812715376
 30
0.0
 10
251.1827665525383
 20
230.6885690099758
 30
0.0
 10
249.8019713711473
 20
230.6885690099758
 30
0.0
 10
248.421520699532
 20
230.6885690099758
 30
0.0
 10
247.3022084379703
 20
231.8078812715376
 30
0.0
 10
247.3022084379703
 20
233.1886764529286
 30
0.0
 10
247.3022084379703
 20
234.5694716343197
 30
0.0
 10
248.421520699532
 20
235.6884393861056
 30
0.0
 10
249.8019713711473
 20
235.6884393861056
 30
0.0
 10
251.1827665525383
 20
235.6884393861056
 30
0.0
 10
252.3024233238758
 20
234.5694716343197
 30
0.0
 10
252.3024233238758
 20
233.1886764529286
 30
0.0
  0
SPLINE
  5
B5
330
43
100
AcDbEntity
  8
Layer 1
 62
     7
370
    35
100
AcDbSpline
210
0.0
220
0.0
230
1.0
 70
    11
 71
     3
 72
    17
 73
    13
 74
     0
 42
0.0000000001
 43
0.0000000001
 40
0.0
 40
0.0
 40
0.0
 40
0.0
 40
1.0
 40
1.0
 40
1.0
 40
2.0
 40
2.0
 40
2.0
 40
3.0
 40
3.0
 40
3.0
 40
4.0
 40
4.0
 40
4.0
 40
4.0
 10
240.6194078070762
 20
233.1885041980407
 30
0.0
 10
240.6194078070762
 20
231.8077090166497
 30
0.0
 10
239.5004400552902
 20
230.6883967550879
 30
0.0
 10
238.1196448738992
 20
230.6883967550879
 30
0.0
 10
236.7388496925081
 20
230.6883967550879
 30
0.0
 10
235.6195374309464
 20
231.8077090166497
 30
0.0
 10
235.6195374309464
 20
233.1885041980407
 30
0.0
 10
235.6195374309464
 20
234.5692993794318
 30
0.0
 10
236.7388496925081
 20
235.6882671312177
 30
0.0
 10
238.1196448738992
 20
235.6882671312177
 30
0.0
 10
239.5004400552902
 20
235.6882671312177
 30
0.0
 10
240.6194078070762
 20
234.5692993794318
 30
0.0
 10
240.6194078070762
 20
233.1885041980407
 30
0.0
  0
SPLINE
  5
B6
330
43
100
AcDbEntity
  8
Layer 1
 62
     7
370
    35
100
AcDbSpline
210
0.0
220
0.0
230
1.0
 70
    11
 71
     3
 72
    17
 73
    13
 74
     0
 42
0.0000000001
 43
0.0000000001
 40
0.0
 40
0.0
 40
0.0
 40
0.0
 40
1.0
 40
1.0
 40
1.0
 40
2.0
 40
2.0
 40
2.0
 40
3.0
 40
3.0
 40
3.0
 40
4.0
 40
4.0
 40
4.0
 40
4.0
 10
246.3251787138123
 20
197.8660891405474
 30
0.0
 10
246.3251787138123
 20
196.4852939591564
 30
0.0
 10
245.2058664522506
 20
195.3659816975946
 30
0.0
 10
243.8250712708595
 20
195.3659816975946
 30
0.0
 10
242.4446205992443
 20
195.3659816975946
 30
0.0
 10
241.3249638279067
 20
196.4852939591564
 30
0.0
 10
241.3249638279067
 20
197.8660891405474
 30
0.0
 10
241.3249638279067
 20
199.2465398121627
 30
0.0
 10
242.4446205992443
 20
200.3661965835002
 30
0.0
 10
243.8250712708595
 20
200.3661965835002
 30
0.0
 10
245.2058664522506
 20
200.3661965835002
 30
0.0
 10
246.3251787138123
 20
199.2465398121627
 30
0.0
 10
246.3251787138123
 20
197.8660891405474
 30
0.0
  0
SPLINE
  5
B7
330
43
100
AcDbEntity
  8
Layer 1
 62
     7
370
    35
100
AcDbSpline
210
0.0
220
0.0
230
1.0
 70
    11
 71
     3
 72
    17
 73
    13
 74
     0
 42
0.0000000001
 43
0.0000000001
 40
0.0
 40
0.0
 40
0.0
 40
0.0
 40
1.0
 40
1.0
 40
1.0
 40
2.0
 40
2.0
 40
2.0
 40
3.0
 40
3.0
 40
3.0
 40
4.0
 40
4.0
 40
4.0
 40
4.0
 10
252.3024233238758
 20
197.8354277705016
 30
0.0
 10
252.3024233238758
 20
196.4546325891105
 30
0.0
 10
251.1827665525383
 20
195.3356648373245
 30
0.0
 10
249.8019713711473
 20
195.3356648373245
 30
0.0
 10
248.421520699532
 20
195.3356648373245
 30
0.0
 10
247.3022084379703
 20
196.4546325891105
 30
0.0
 10
247.3022084379703
 20
197.8354277705016
 30
0.0
 10
247.3022084379703
 20
199.2162229518926
 30
0.0
 10
248.421520699532
 20
200.3355352134544
 30
0.0
 10
249.8019713711473
 20
200.3355352134544
 30
0.0
 10
251.1827665525383
 20
200.3355352134544
 30
0.0
 10
252.3024233238758
 20
199.2162229518926
 30
0.0
 10
252.3024233238758
 20
197.8354277705016
 30
0.0
  0
SPLINE
  5
B8
330
43
100
AcDbEntity
  8
Layer 1
 62
     7
370
    35
100
AcDbSpline
210
0.0
220
0.0
230
1.0
 70
    11
 71
     3
 72
    17
 73
    13
 74
     0
 42
0.0000000001
 43
0.0000000001
 40
0.0
 40
0.0
 40
0.0
 40
0.0
 40
1.0
 40
1.0
 40
1.0
 40
2.0
 40
2.0
 40
2.0
 40
3.0
 40
3.0
 40
3.0
 40
4.0
 40
4.0
 40
4.0
 40
4.0
 10
240.6194078070762
 20
197.8660891405474
 30
0.0
 10
240.6194078070762
 20
196.4852939591564
 30
0.0
 10
239.5004400552902
 20
195.3659816975946
 30
0.0
 10
238.1196448738992
 20
195.3659816975946
 30
0.0
 10
236.7388496925081
 20
195.3659816975946
 30
0.0
 10
235.6195374309464
 20
196.4852939591564
 30
0.0
 10
235.6195374309464
 20
197.8660891405474
 30
0.0
 10
235.6195374309464
 20
199.2465398121627
 30
0.0
 10
236.7388496925081
 20
200.3661965835002
 30
0.0
 10
238.1196448738992
 20
200.3661965835002
 30
0.0
 10
239.5004400552902
 20
200.3661965835002
 30
0.0
 10
240.6194078070762
 20
199.2465398121627
 30
0.0
 10
240.6194078070762
 20
197.8660891405474
 30
0.0
  0
SPLINE
  5
B9
330
43
100
AcDbEntity
  8
Layer 1
 62
     7
370
    35
100
AcDbSpline
210
0.0
220
0.0
230
1.0
 70
    11
 71
     3
 72
    17
 73
    13
 74
     0
 42
0.0000000001
 43
0.0000000001
 40
0.0
 40
0.0
 40
0.0
 40
0.0
 40
1.0
 40
1.0
 40
1.0
 40
2.0
 40
2.0
 40
2.0
 40
3.0
 40
3.0
 40
3.0
 40
4.0
 40
4.0
 40
4.0
 40
4.0
 10
246.3692759651142
 20
139.7221407501006
 30
0.0
 10
246.3692759651142
 20
138.3413455687096
 30
0.0
 10
245.2499637035525
 20
137.221688797372
 30
0.0
 10
243.8691685221614
 20
137.221688797372
 30
0.0
 10
242.4887178505462
 20
137.221688797372
 30
0.0
 10
241.3690610792086
 20
138.3413455687096
 30
0.0
 10
241.3690610792086
 20
139.7221407501006
 30
0.0
 10
241.3690610792086
 20
141.1025914217159
 30
0.0
 10
242.4887178505462
 20
142.2219036832776
 30
0.0
 10
243.8691685221614
 20
142.2219036832776
 30
0.0
 10
245.2499637035525
 20
142.2219036832776
 30
0.0
 10
246.3692759651142
 20
141.1025914217159
 30
0.0
 10
246.3692759651142
 20
139.7221407501006
 30
0.0
  0
SPLINE
  5
BA
330
43
100
AcDbEntity
  8
Layer 1
 62
     7
370
    35
100
AcDbSpline
210
0.0
220
0.0
230
1.0
 70
    11
 71
     3
 72
    17
 73
    13
 74
     0
 42
0.0000000001
 43
0.0000000001
 40
0.0
 40
0.0
 40
0.0
 40
0.0
 40
1.0
 40
1.0
 40
1.0
 40
2.0
 40
2.0
 40
2.0
 40
3.0
 40
3.0
 40
3.0
 40
4.0
 40
4.0
 40
4.0
 40
4.0
 10
252.3465205751777
 20
139.7221407501006
 30
0.0
 10
252.3465205751777
 20
138.3413455687096
 30
0.0
 10
251.2268638038402
 20
137.2220333071478
 30
0.0
 10
249.8460686224492
 20
137.2220333071478
 30
0.0
 10
248.4656179508339
 20
137.2220333071478
 30
0.0
 10
247.3463056892722
 20
138.3413455687096
 30
0.0
 10
247.3463056892722
 20
139.7221407501006
 30
0.0
 10
247.3463056892722
 20
141.1029359314917
 30
0.0
 10
248.4656179508339
 20
142.2219036832776
 30
0.0
 10
249.8460686224492
 20
142.2219036832776
 30
0.0
 10
251.2268638038402
 20
142.2219036832776
 30
0.0
 10
252.3465205751777
 20
141.1029359314917
 30
0.0
 10
252.3465205751777
 20
139.7221407501006
 30
0.0
  0
SPLINE
  5
BB
330
43
100
AcDbEntity
  8
Layer 1
 62
     7
370
    35
100
AcDbSpline
210
0.0
220
0.0
230
1.0
 70
    11
 71
     3
 72
    17
 73
    13
 74
     0
 42
0.0000000001
 43
0.0000000001
 40
0.0
 40
0.0
 40
0.0
 40
0.0
 40
1.0
 40
1.0
 40
1.0
 40
2.0
 40
2.0
 40
2.0
 40
3.0
 40
3.0
 40
3.0
 40
4.0
 40
4.0
 40
4.0
 40
4.0
 10
240.6635050583781
 20
139.7221407501006
 30
0.0
 10
240.6635050583781
 20
138.3413455687096
 30
0.0
 10
239.5445373065921
 20
137.221688797372
 30
0.0
 10
238.1637421252011
 20
137.221688797372
 30
0.0
 10
236.78294694381
 20
137.221688797372
 30
0.0
 10
235.6636346822483
 20
138.3413455687096
 30
0.0
 10
235.6636346822483
 20
139.7221407501006
 30
0.0
 10
235.6636346822483
 20
141.1025914217159
 30
0.0
 10
236.78294694381
 20
142.2219036832776
 30
0.0
 10
238.1637421252011
 20
142.2219036832776
 30
0.0
 10
239.5445373065921
 20
142.2219036832776
 30
0.0
 10
240.6635050583781
 20
141.1025914217159
 30
0.0
 10
240.6635050583781
 20
139.7221407501006
 30
0.0
  0
SPLINE
  5
BC
330
43
100
AcDbEntity
  8
Layer 1
 62
     7
370
    35
100
AcDbSpline
210
0.0
220
0.0
230
1.0
 70
    11
 71
     3
 72
    17
 73
    13
 74
     0
 42
0.0000000001
 43
0.0000000001
 40
0.0
 40
0.0
 40
0.0
 40
0.0
 40
1.0
 40
1.0
 40
1.0
 40
2.0
 40
2.0
 40
2.0
 40
3.0
 40
3.0
 40
3.0
 40
4.0
 40
4.0
 40
4.0
 40
4.0
 10
246.3692759651142
 20
104.3995534377194
 30
0.0
 10
246.3692759651142
 20
103.0187582563284
 30
0.0
 10
245.2499637035525
 20
101.8994459947666
 30
0.0
 10
243.8691685221614
 20
101.8994459947666
 30
0.0
 10
242.4887178505462
 20
101.8994459947666
 30
0.0
 10
241.3690610792086
 20
103.0187582563284
 30
0.0
 10
241.3690610792086
 20
104.3995534377194
 30
0.0
 10
241.3690610792086
 20
105.7800041093347
 30
0.0
 10
242.4887178505462
 20
106.8996608806722
 30
0.0
 10
243.8691685221614
 20
106.8996608806722
 30
0.0
 10
245.2499637035525
 20
106.8996608806722
 30
0.0
 10
246.3692759651142
 20
105.7800041093347
 30
0.0
 10
246.3692759651142
 20
104.3995534377194
 30
0.0
  0
SPLINE
  5
BD
330
43
100
AcDbEntity
  8
Layer 1
 62
     7
370
    35
100
AcDbSpline
210
0.0
220
0.0
230
1.0
 70
    11
 71
     3
 72
    17
 73
    13
 74
     0
 42
0.0000000001
 43
0.0000000001
 40
0.0
 40
0.0
 40
0.0
 40
0.0
 40
1.0
 40
1.0
 40
1.0
 40
2.0
 40
2.0
 40
2.0
 40
3.0
 40
3.0
 40
3.0
 40
4.0
 40
4.0
 40
4.0
 40
4.0
 10
252.3465205751777
 20
104.3688920676736
 30
0.0
 10
252.3465205751777
 20
102.9880968862825
 30
0.0
 10
251.2268638038402
 20
101.8691291344966
 30
0.0
 10
249.8460686224492
 20
101.8691291344966
 30
0.0
 10
248.4656179508339
 20
101.8691291344966
 30
0.0
 10
247.3463056892722
 20
102.9880968862825
 30
0.0
 10
247.3463056892722
 20
104.3688920676736
 30
0.0
 10
247.3463056892722
 20
105.7496872490646
 30
0.0
 10
248.4656179508339
 20
106.8689995106264
 30
0.0
 10
249.8460686224492
 20
106.8689995106264
 30
0.0
 10
251.2268638038402
 20
106.8689995106264
 30
0.0
 10
252.3465205751777
 20
105.7496872490646
 30
0.0
 10
252.3465205751777
 20
104.3688920676736
 30
0.0
  0
SPLINE
  5
BE
330
43
100
AcDbEntity
  8
Layer 1
 62
     7
370
    35
100
AcDbSpline
210
0.0
220
0.0
230
1.0
 70
    11
 71
     3
 72
    17
 73
    13
 74
     0
 42
0.0000000001
 43
0.0000000001
 40
0.0
 40
0.0
 40
0.0
 40
0.0
 40
1.0
 40
1.0
 40
1.0
 40
2.0
 40
2.0
 40
2.0
 40
3.0
 40
3.0
 40
3.0
 40
4.0
 40
4.0
 40
4.0
 40
4.0
 10
240.6635050583781
 20
104.3995534377194
 30
0.0
 10
240.6635050583781
 20
103.0187582563284
 30
0.0
 10
239.5445373065921
 20
101.8994459947666
 30
0.0
 10
238.1637421252011
 20
101.8994459947666
 30
0.0
 10
236.78294694381
 20
101.8994459947666
 30
0.0
 10
235.6636346822483
 20
103.0187582563284
 30
0.0
 10
235.6636346822483
 20
104.3995534377194
 30
0.0
 10
235.6636346822483
 20
105.7800041093347
 30
0.0
 10
236.78294694381
 20
106.8996608806722
 30
0.0
 10
238.1637421252011
 20
106.8996608806722
 30
0.0
 10
239.5445373065921
 20
106.8996608806722
 30
0.0
 10
240.6635050583781
 20
105.7800041093347
 30
0.0
 10
240.6635050583781
 20
104.3995534377194
 30
0.0
  0
POLYLINE
  5
BF
330
43
100
AcDbEntity
  8
Layer 1
 62
     7
370
    35
100
AcDb2dPolyline
 66
     1
 10
0.0
 20
0.0
 30
0.0
  0
VERTEX
  5
C0
330
BF
100
AcDbEntity
  8
Layer 1
 62
     7
370
    35
100
AcDbVertex
100
AcDb2dVertex
 10
171.0794205430679
 20
159.5727940314759
 30
0.0
  0
VERTEX
  5
C1
330
BF
100
AcDbEntity
  8
Layer 1
 62
     7
370
    35
100
AcDbVertex
100
AcDb2dVertex
 10
147.8401691069615
 20
159.5727940314759
 30
0.0
  0
VERTEX
  5
C2
330
BF
100
AcDbEntity
  8
Layer 1
 62
     7
370
    35
100
AcDbVertex
100
AcDb2dVertex
 10
147.8401691069615
 20
176.2806568831506
 30
0.0
  0
VERTEX
  5
C3
330
BF
100
AcDbEntity
  8
Layer 1
 62
     7
370
    35
100
AcDbVertex
100
AcDb2dVertex
 10
171.0794205430679
 20
176.2806568831506
 30
0.0
  0
VERTEX
  5
C4
330
BF
100
AcDbEntity
  8
Layer 1
 62
     7
370
    35
100
AcDbVertex
100
AcDb2dVertex
 10
171.0794205430679
 20
159.5727940314759
 30
0.0
  0
SEQEND
  5
C5
330
BF
100
AcDbEntity
  8
Layer 1
370
    35
  0
POLYLINE
  5
C6
330
43
100
AcDbEntity
  8
Layer 1
 62
     7
370
    35
100
AcDb2dPolyline
 66
     1
 10
0.0
 20
0.0
 30
0.0
  0
VERTEX
  5
C7
330
C6
100
AcDbEntity
  8
Layer 1
 62
     7
370
    35
100
AcDbVertex
100
AcDb2dVertex
 10
252.2831307764312
 20
159.5727940314759
 30
0.0
  0
VERTEX
  5
C8
330
C6
100
AcDbEntity
  8
Layer 1
 62
     7
370
    35
100
AcDbVertex
100
AcDb2dVertex
 10
229.0438793403249
 20
159.5727940314759
 30
0.0
  0
VERTEX
  5
C9
330
C6
100
AcDbEntity
  8
Layer 1
 62
     7
370
    35
100
AcDbVertex
100
AcDb2dVertex
 10
229.0438793403249
 20
176.2806568831506
 30
0.0
  0
VERTEX
  5
CA
330
C6
100
AcDbEntity
  8
Layer 1
 62
     7
370
    35
100
AcDbVertex
100
AcDb2dVertex
 10
252.2831307764312
 20
176.2806568831506
 30
0.0
  0
VERTEX
  5
CB
330
C6
100
AcDbEntity
  8
Layer 1
 62
     7
370
    35
100
AcDbVertex
100
AcDb2dVertex
 10
252.2831307764312
 20
159.5727940314759
 30
0.0
  0
SEQEND
  5
CC
330
C6
100
AcDbEntity
  8
Layer 1
370
    35
  0
POLYLINE
  5
CD
330
43
100
AcDbEntity
  8
Layer 1
 62
     7
370
    35
100
AcDb2dPolyline
 66
     1
 10
0.0
 20
0.0
 30
0.0
  0
VERTEX
  5
CE
330
CD
100
AcDbEntity
  8
Layer 1
 62
     7
370
    35
100
AcDbVertex
100
AcDb2dVertex
 10
208.7749911911331
 20
114.2056796959816
 30
0.0
  0
VERTEX
  5
CF
330
CD
100
AcDbEntity
  8
Layer 1
 62
     7
370
    35
100
AcDbVertex
100
AcDb2dVertex
 10
185.5357397550267
 20
114.2056796959816
 30
0.0
  0
VERTEX
  5
D0
330
CD
100
AcDbEntity
  8
Layer 1
 62
     7
370
    35
100
AcDbVertex
100
AcDb2dVertex
 10
185.5357397550267
 20
130.9130257829926
 30
0.0
  0
VERTEX
  5
D1
330
CD
100
AcDbEntity
  8
Layer 1
 62
     7
370
    35
100
AcDbVertex
100
AcDb2dVertex
 10
208.7749911911331
 20
130.9130257829926
 30
0.0
  0
VERTEX
  5
D2
330
CD
100
AcDbEntity
  8
Layer 1
 62
     7
370
    35
100
AcDbVertex
100
AcDb2dVertex
 10
208.7749911911331
 20
114.2056796959816
 30
0.0
  0
SEQEND
  5
D3
330
CD
100
AcDbEntity
  8
Layer 1
370
    35
  0
POLYLINE
  5
D4
330
43
100
AcDbEntity
  8
Layer 1
 62
     7
370
    35
100
AcDb2dPolyline
 66
     1
 10
0.0
 20
0.0
 30
0.0
  0
VERTEX
  5
D5
330
D4
100
AcDbEntity
  8
Layer 1
 62
     7
370
    35
100
AcDbVertex
100
AcDb2dVertex
 10
208.7749911911331
 20
204.7583517151256
 30
0.0
  0
VERTEX
  5
D6
330
D4
100
AcDbEntity
  8
Layer 1
 62
     7
370
    35
100
AcDbVertex
100
AcDb2dVertex
 10
185.5357397550267
 20
204.7583517151256
 30
0.0
  0
VERTEX
  5
D7
330
D4
100
AcDbEntity
  8
Layer 1
 62
     7
370
    35
100
AcDbVertex
100
AcDb2dVertex
 10
185.5357397550267
 20
221.4662145668003
 30
0.0
  0
VERTEX
  5
D8
330
D4
100
AcDbEntity
  8
Layer 1
 62
     7
370
    35
100
AcDbVertex
100
AcDb2dVertex
 10
208.7749911911331
 20
221.4662145668003
 30
0.0
  0
VERTEX
  5
D9
330
D4
100
AcDbEntity
  8
Layer 1
 62
     7
370
    35
100
AcDbVertex
100
AcDb2dVertex
 10
208.7749911911331
 20
204.7583517151256
 30
0.0
  0
SEQEND
  5
DA
330
D4
100
AcDbEntity
  8
Layer 1
370
    35
  0
SPLINE
  5
DB
330
43
100
AcDbEntity
  8
Layer 1
 62
     7
370
    35
100
AcDbSpline
210
0.0
220
0.0
230
1.0
 70
    11
 71
     3
 72
    17
 73
    13
 74
     0
 42
0.0000000001
 43
0.0000000001
 40
0.0
 40
0.0
 40
0.0
 40
0.0
 40
1.0
 40
1.0
 40
1.0
 40
2.0
 40
2.0
 40
2.0
 40
3.0
 40
3.0
 40
3.0
 40
4.0
 40
4.0
 40
4.0
 40
4.0
 10
176.6553112643289
 20
79.30821744693284
 30
0.0
 10
176.6553112643289
 20
78.09588754590612
 30
0.0
 10
175.7599303570346
 20
77.11403468488705
 30
0.0
 10
174.6554320158321
 20
77.11403468488705
 30
0.0
 10
173.5509336746296
 20
77.11403468488705
 30
0.0
 10
172.6555527673354
 20
78.09588754590612
 30
0.0
 10
172.6555527673354
 20
79.30821744693284
 30
0.0
 10
172.6555527673354
 20
80.51985832840798
 30
0.0
 10
173.5509336746296
 20
81.50205569920284
 30
0.0
 10
174.6554320158321
 20
81.50205569920284
 30
0.0
 10
175.7599303570346
 20
81.50205569920284
 30
0.0
 10
176.6553112643289
 20
80.51985832840798
 30
0.0
 10
176.6553112643289
 20
79.30821744693284
 30
0.0
  0
SPLINE
  5
DC
330
43
100
AcDbEntity
  8
Layer 1
 62
     7
370
    35
100
AcDbSpline
210
0.0
220
0.0
230
1.0
 70
    11
 71
     3
 72
    17
 73
    13
 74
     0
 42
0.0000000001
 43
0.0000000001
 40
0.0
 40
0.0
 40
0.0
 40
0.0
 40
1.0
 40
1.0
 40
1.0
 40
2.0
 40
2.0
 40
2.0
 40
3.0
 40
3.0
 40
3.0
 40
4.0
 40
4.0
 40
4.0
 40
4.0
 10
221.6555226886003
 20
79.30821744693284
 30
0.0
 10
221.6555226886003
 20
78.09588754590612
 30
0.0
 10
220.760141781306
 20
77.11403468488705
 30
0.0
 10
219.6556434401035
 20
77.11403468488705
 30
0.0
 10
218.5508005891252
 20
77.11403468488705
 30
0.0
 10
217.6557641916067
 20
78.09588754590612
 30
0.0
 10
217.6557641916067
 20
79.30821744693284
 30
0.0
 10
217.6557641916067
 20
80.51985832840798
 30
0.0
 10
218.5508005891252
 20
81.50205569920284
 30
0.0
 10
219.6556434401035
 20
81.50205569920284
 30
0.0
 10
220.760141781306
 20
81.50205569920284
 30
0.0
 10
221.6555226886003
 20
80.51985832840798
 30
0.0
 10
221.6555226886003
 20
79.30821744693284
 30
0.0
  0
POLYLINE
  5
DD
330
43
100
AcDbEntity
  8
Layer 1
 62
     7
370
    35
100
AcDb2dPolyline
 66
     1
 10
0.0
 20
0.0
 30
0.0
  0
VERTEX
  5
DE
330
DD
100
AcDbEntity
  8
Layer 1
 62
     7
370
    35
100
AcDbVertex
100
AcDb2dVertex
 10
97.92759278961259
 20
57.93586448586592
 30
0.0
  0
VERTEX
  5
DF
330
DD
100
AcDbEntity
  8
Layer 1
 62
     7
370
    35
100
AcDbVertex
100
AcDb2dVertex
 10
302.358315707956
 20
58.79679441558054
 30
0.0
  0
SEQEND
  5
E0
330
DD
100
AcDbEntity
  8
Layer 1
370
    35
  0
POLYLINE
  5
E1
330
43
100
AcDbEntity
  8
Layer 1
 62
     7
370
    35
100
AcDb2dPolyline
 66
     1
 10
0.0
 20
0.0
 30
0.0
  0
VERTEX
  5
E2
330
E1
100
AcDbEntity
  8
Layer 1
 62
     7
370
    35
100
AcDbVertex
100
AcDb2dVertex
 10
97.92759278961259
 20
257.8807256135674
 30
0.0
  0
VERTEX
  5
E3
330
E1
100
AcDbEntity
  8
Layer 1
 62
     7
370
    35
100
AcDbVertex
100
AcDb2dVertex
 10
302.358315707956
 20
257.8807256135674
 30
0.0
  0
SEQEND
  5
E4
330
E1
100
AcDbEntity
  8
Layer 1
370
    35
  0
POLYLINE
  5
E5
330
43
100
AcDbEntity
  8
Layer 1
 62
     7
370
    35
100
AcDb2dPolyline
 66
     1
 10
0.0
 20
0.0
 30
0.0
  0
VERTEX
  5
E6
330
E5
100
AcDbEntity
  8
Layer 1
 62
     7
370
    35
100
AcDbVertex
100
AcDb2dVertex
 10
130.7552403056779
 20
176.1721363037747
 30
0.0
  0
VERTEX
  5
E7
330
E5
100
AcDbEntity
  8
Layer 1
 62
     7
370
    35
100
AcDbVertex
100
AcDb2dVertex
 10
130.7552403056779
 20
241.1721737423411
 30
0.0
  0
SEQEND
  5
E8
330
E5
100
AcDbEntity
  8
Layer 1
370
    35
  0
POLYLINE
  5
E9
330
43
100
AcDbEntity
  8
Layer 1
 62
     7
370
    35
100
AcDb2dPolyline
 66
     1
 10
0.0
 20
0.0
 30
0.0
  0
VERTEX
  5
EA
330
E9
100
AcDbEntity
  8
Layer 1
 62
     7
370
    35
100
AcDbVertex
100
AcDb2dVertex
 10
130.7552403056779
 20
153.1721469069588
 30
0.0
  0
VERTEX
  5
EB
330
E9
100
AcDbEntity
  8
Layer 1
 62
     7
370
    35
100
AcDbVertex
100
AcDb2dVertex
 10
130.7552403056779
 20
88.17210946839248
 30
0.0
  0
SEQEND
  5
EC
330
E9
100
AcDbEntity
  8
Layer 1
370
    35
  0
POLYLINE
  5
ED
330
43
100
AcDbEntity
  8
Layer 1
 62
     7
370
    35
100
AcDb2dPolyline
 66
     1
 10
0.0
 20
0.0
 30
0.0
  0
VERTEX
  5
EE
330
ED
100
AcDbEntity
  8
Layer 1
 62
     7
370
    35
100
AcDbVertex
100
AcDb2dVertex
 10
263.9127472779825
 20
153.1056565202302
 30
0.0
  0
VERTEX
  5
EF
330
ED
100
AcDbEntity
  8
Layer 1
 62
     7
370
    35
100
AcDbVertex
100
AcDb2dVertex
 10
263.9127472779825
 20
88.10561908166382
 30
0.0
  0
SEQEND
  5
F0
330
ED
100
AcDbEntity
  8
Layer 1
370
    35
  0
POLYLINE
  5
F1
330
43
100
AcDbEntity
  8
Layer 1
 62
     7
370
    35
100
AcDb2dPolyline
 66
     1
 10
0.0
 20
0.0
 30
0.0
  0
VERTEX
  5
F2
330
F1
100
AcDbEntity
  8
Layer 1
 62
     7
370
    35
100
AcDbVertex
100
AcDb2dVertex
 10
130.7552403056779
 20
241.1721737423411
 30
0.0
  0
VERTEX
  5
F3
330
F1
100
AcDbEntity
  8
Layer 1
 62
     7
370
    35
100
AcDbVertex
100
AcDb2dVertex
 10
97.92742053472469
 20
241.0870798277195
 30
0.0
  0
SEQEND
  5
F4
330
F1
100
AcDbEntity
  8
Layer 1
370
    35
  0
POLYLINE
  5
F5
330
43
100
AcDbEntity
  8
Layer 1
 62
     7
370
    35
100
AcDb2dPolyline
 66
     1
 10
0.0
 20
0.0
 30
0.0
  0
VERTEX
  5
F6
330
F5
100
AcDbEntity
  8
Layer 1
 62
     7
370
    35
100
AcDbVertex
100
AcDb2dVertex
 10
263.8779517906271
 20
241.0872520826074
 30
0.0
  0
VERTEX
  5
F7
330
F5
100
AcDbEntity
  8
Layer 1
 62
     7
370
    35
100
AcDbVertex
100
AcDb2dVertex
 10
302.358315707956
 20
241.0872520826074
 30
0.0
  0
SEQEND
  5
F8
330
F5
100
AcDbEntity
  8
Layer 1
370
    35
  0
POLYLINE
  5
F9
330
43
100
AcDbEntity
  8
Layer 1
 62
     7
370
    35
100
AcDb2dPolyline
 66
     1
 10
0.0
 20
0.0
 30
0.0
  0
VERTEX
  5
FA
330
F9
100
AcDbEntity
  8
Layer 1
 62
     7
370
    35
100
AcDbVertex
100
AcDb2dVertex
 10
130.7552403056779
 20
88.17210946839248
 30
0.0
  0
VERTEX
  5
FB
330
F9
100
AcDbEntity
  8
Layer 1
 62
     7
370
    35
100
AcDbVertex
100
AcDb2dVertex
 10
97.92742053472469
 20
88.17210946839248
 30
0.0
  0
SEQEND
  5
FC
330
F9
100
AcDbEntity
  8
Layer 1
370
    35
  0
POLYLINE
  5
FD
330
43
100
AcDbEntity
  8
Layer 1
 62
     7
370
    35
100
AcDb2dPolyline
 66
     1
 10
0.0
 20
0.0
 30
0.0
  0
VERTEX
  5
FE
330
FD
100
AcDbEntity
  8
Layer 1
 62
     7
370
    35
100
AcDbVertex
100
AcDb2dVertex
 10
263.9127472779825
 20
88.10561908166382
 30
0.0
  0
VERTEX
  5
FF
330
FD
100
AcDbEntity
  8
Layer 1
 62
     7
370
    35
100
AcDbVertex
100
AcDb2dVertex
 10
302.3579711981802
 20
88.17176495861668
 30
0.0
  0
SEQEND
  5
100
330
FD
100
AcDbEntity
  8
Layer 1
370
    35
  0
POLYLINE
  5
101
330
43
100
AcDbEntity
  8
Layer 1
 62
     7
370
    35
100
AcDb2dPolyline
 66
     1
 10
0.0
 20
0.0
 30
0.0
  0
VERTEX
  5
102
330
101
100
AcDbEntity
  8
Layer 1
 62
     7
370
    35
100
AcDbVertex
100
AcDb2dVertex
 10
97.92759278961259
 20
241.0872520826074
 30
0.0
  0
VERTEX
  5
103
330
101
100
AcDbEntity
  8
Layer 1
 62
     7
370
    35
100
AcDbVertex
100
AcDb2dVertex
 10
97.92759278961259
 20
257.8808978684553
 30
0.0
  0
SEQEND
  5
104
330
101
100
AcDbEntity
  8
Layer 1
370
    35
  0
POLYLINE
  5
105
330
43
100
AcDbEntity
  8
Layer 1
 62
     7
370
    35
100
AcDb2dPolyline
 66
     1
 10
0.0
 20
0.0
 30
0.0
  0
VERTEX
  5
106
330
105
100
AcDbEntity
  8
Layer 1
 62
     7
370
    35
100
AcDbVertex
100
AcDb2dVertex
 10
302.358315707956
 20
257.8807256135674
 30
0.0
  0
VERTEX
  5
107
330
105
100
AcDbEntity
  8
Layer 1
 62
     7
370
    35
100
AcDbVertex
100
AcDb2dVertex
 10
302.358315707956
 20
241.0870798277195
 30
0.0
  0
SEQEND
  5
108
330
105
100
AcDbEntity
  8
Layer 1
370
    35
  0
POLYLINE
  5
109
330
43
100
AcDbEntity
  8
Layer 1
 62
     7
370
    35
100
AcDb2dPolyline
 66
     1
 10
0.0
 20
0.0
 30
0.0
  0
VERTEX
  5
10A
330
109
100
AcDbEntity
  8
Layer 1
 62
     7
370
    35
100
AcDbVertex
100
AcDb2dVertex
 10
302.358315707956
 20
88.17210946839248
 30
0.0
  0
VERTEX
  5
10B
330
109
100
AcDbEntity
  8
Layer 1
 62
     7
370
    35
100
AcDbVertex
100
AcDb2dVertex
 10
302.358315707956
 20
58.79679441558054
 30
0.0
  0
SEQEND
  5
10C
330
109
100
AcDbEntity
  8
Layer 1
370
    35
  0
POLYLINE
  5
10D
330
43
100
AcDbEntity
  8
Layer 1
 62
     7
370
    35
100
AcDb2dPolyline
 66
     1
 10
0.0
 20
0.0
 30
0.0
  0
VERTEX
  5
10E
330
10D
100
AcDbEntity
  8
Layer 1
 62
     7
370
    35
100
AcDbVertex
100
AcDb2dVertex
 10
97.92759278961259
 20
57.93586448586592
 30
0.0
  0
VERTEX
  5
10F
330
10D
100
AcDbEntity
  8
Layer 1
 62
     7
370
    35
100
AcDbVertex
100
AcDb2dVertex
 10
97.92759278961259
 20
88.17210946839248
 30
0.0
  0
SEQEND
  5
110
330
10D
100
AcDbEntity
  8
Layer 1
370
    35
  0
POLYLINE
  5
111
330
43
100
AcDbEntity
  8
Layer 1
 62
     7
370
    35
100
AcDb2dPolyline
 66
     1
 10
0.0
 20
0.0
 30
0.0
  0
VERTEX
  5
112
330
111
100
AcDbEntity
  8
Layer 1
 62
     7
370
    35
100
AcDbVertex
100
AcDb2dVertex
 10
122.5579747003839
 20
250.1547493815625
 30
0.0
  0
VERTEX
  5
113
330
111
100
AcDbEntity
  8
Layer 1
 62
     7
370
    35
100
AcDbVertex
100
AcDb2dVertex
 10
122.5579747003839
 20
250.1547493815625
 30
0.0
  0
SEQEND
  5
114
330
111
100
AcDbEntity
  8
Layer 1
370
    35
  0
SPLINE
  5
115
330
43
100
AcDbEntity
  8
Layer 1
 62
     7
370
    35
100
AcDbSpline
210
0.0
220
0.0
230
1.0
 70
    11
 71
     3
 72
    17
 73
    13
 74
     0
 42
0.0000000001
 43
0.0000000001
 40
0.0
 40
0.0
 40
0.0
 40
0.0
 40
1.0
 40
1.0
 40
1.0
 40
2.0
 40
2.0
 40
2.0
 40
3.0
 40
3.0
 40
3.0
 40
4.0
 40
4.0
 40
4.0
 40
4.0
 10
125.0579098884488
 20
250.1549216364504
 30
0.0
 10
125.0579098884488
 20
248.7741264550594
 30
0.0
 10
123.938597626887
 20
247.6548141934976
 30
0.0
 10
122.557802445496
 20
247.6548141934976
 30
0.0
 10
121.1773517738807
 20
247.6548141934976
 30
0.0
 10
120.058039512319
 20
248.7741264550594
 30
0.0
 10
120.058039512319
 20
250.1549216364504
 30
0.0
 10
120.058039512319
 20
251.5357168178415
 30
0.0
 10
121.1773517738807
 20
252.6546845696274
 30
0.0
 10
122.557802445496
 20
252.6546845696274
 30
0.0
 10
123.938597626887
 20
252.6546845696274
 30
0.0
 10
125.0579098884488
 20
251.5357168178415
 30
0.0
 10
125.0579098884488
 20
250.1549216364504
 30
0.0
  0
SPLINE
  5
116
330
43
100
AcDbEntity
  8
Layer 1
 62
     7
370
    35
100
AcDbSpline
210
0.0
220
0.0
230
1.0
 70
    11
 71
     3
 72
    17
 73
    13
 74
     0
 42
0.0000000001
 43
0.0000000001
 40
0.0
 40
0.0
 40
0.0
 40
0.0
 40
1.0
 40
1.0
 40
1.0
 40
2.0
 40
2.0
 40
2.0
 40
3.0
 40
3.0
 40
3.0
 40
4.0
 40
4.0
 40
4.0
 40
4.0
 10
125.0579098884488
 20
83.40271613227031
 30
0.0
 10
125.0579098884488
 20
82.02226546065506
 30
0.0
 10
123.938597626887
 20
80.90295319909332
 30
0.0
 10
122.557802445496
 20
80.90295319909332
 30
0.0
 10
121.1773517738807
 20
80.90295319909332
 30
0.0
 10
120.058039512319
 20
82.02226546065506
 30
0.0
 10
120.058039512319
 20
83.40271613227031
 30
0.0
 10
120.058039512319
 20
84.78351131366135
 30
0.0
 10
121.1773517738807
 20
85.90282357522311
 30
0.0
 10
122.557802445496
 20
85.90282357522311
 30
0.0
 10
123.938597626887
 20
85.90282357522311
 30
0.0
 10
125.0579098884488
 20
84.78351131366135
 30
0.0
 10
125.0579098884488
 20
83.40271613227031
 30
0.0
  0
SPLINE
  5
117
330
43
100
AcDbEntity
  8
Layer 1
 62
     7
370
    35
100
AcDbSpline
210
0.0
220
0.0
230
1.0
 70
    11
 71
     3
 72
    17
 73
    13
 74
     0
 42
0.0000000001
 43
0.0000000001
 40
0.0
 40
0.0
 40
0.0
 40
0.0
 40
1.0
 40
1.0
 40
1.0
 40
2.0
 40
2.0
 40
2.0
 40
3.0
 40
3.0
 40
3.0
 40
4.0
 40
4.0
 40
4.0
 40
4.0
 10
275.8417427747007
 20
250.1547493815625
 30
0.0
 10
275.8417427747007
 20
248.7739542001715
 30
0.0
 10
274.7224305131389
 20
247.6546419386097
 30
0.0
 10
273.3419798415237
 20
247.6546419386097
 30
0.0
 10
271.9611846601326
 20
247.6546419386097
 30
0.0
 10
270.8418723985709
 20
248.7739542001715
 30
0.0
 10
270.8418723985709
 20
250.1547493815625
 30
0.0
 10
270.8418723985709
 20
251.5355445629536
 30
0.0
 10
271.9611846601326
 20
252.6545123147395
 30
0.0
 10
273.3419798415237
 20
252.6545123147395
 30
0.0
 10
274.7224305131389
 20
252.6545123147395
 30
0.0
 10
275.8417427747007
 20
251.5355445629536
 30
0.0
 10
275.8417427747007
 20
250.1547493815625
 30
0.0
  0
SPLINE
  5
118
330
43
100
AcDbEntity
  8
Layer 1
 62
     7
370
    35
100
AcDbSpline
210
0.0
220
0.0
230
1.0
 70
    11
 71
     3
 72
    17
 73
    13
 74
     0
 42
0.0000000001
 43
0.0000000001
 40
0.0
 40
0.0
 40
0.0
 40
0.0
 40
1.0
 40
1.0
 40
1.0
 40
2.0
 40
2.0
 40
2.0
 40
3.0
 40
3.0
 40
3.0
 40
4.0
 40
4.0
 40
4.0
 40
4.0
 10
275.8417427747007
 20
83.40271613227031
 30
0.0
 10
275.8417427747007
 20
82.02226546065506
 30
0.0
 10
274.7224305131389
 20
80.90295319909332
 30
0.0
 10
273.3419798415237
 20
80.90295319909332
 30
0.0
 10
271.9611846601326
 20
80.90295319909332
 30
0.0
 10
270.8418723985709
 20
82.02226546065506
 30
0.0
 10
270.8418723985709
 20
83.40271613227031
 30
0.0
 10
270.8418723985709
 20
84.78351131366135
 30
0.0
 10
271.9611846601326
 20
85.90282357522311
 30
0.0
 10
273.3419798415237
 20
85.90282357522311
 30
0.0
 10
274.7224305131389
 20
85.90282357522311
 30
0.0
 10
275.8417427747007
 20
84.78351131366135
 30
0.0
 10
275.8417427747007
 20
83.40271613227031
 30
0.0
  0
POLYLINE
  5
119
330
43
100
AcDbEntity
  8
Layer 1
370
     0
100
AcDb2dPolyline
 66
     1
 10
0.0
 20
0.0
 30
0.0
  0
VERTEX
  5
11A
330
119
100
AcDbEntity
  8
Layer 1
370
     0
100
AcDbVertex
100
AcDb2dVertex
 10
0.0
 20
279.4001842488993
 30
0.0
  0
VERTEX
  5
11B
330
119
100
AcDbEntity
  8
Layer 1
370
     0
100
AcDbVertex
100
AcDb2dVertex
 10
431.8002847482989
 20
279.4001842488993
 30
0.0
  0
VERTEX
  5
11C
330
119
100
AcDbEntity
  8
Layer 1
370
     0
100
AcDbVertex
100
AcDb2dVertex
 10
431.8002847482989
 20
0.0
 30
0.0
  0
VERTEX
  5
11D
330
119
100
AcDbEntity
  8
Layer 1
370
     0
100
AcDbVertex
100
AcDb2dVertex
 10
0.0
 20
0.0
 30
0.0
  0
VERTEX
  5
11E
330
119
100
AcDbEntity
  8
Layer 1
370
     0
100
AcDbVertex
100
AcDb2dVertex
 10
0.0
 20
279.4001842488993
 30
0.0
  0
SEQEND
  5
11F
330
119
100
AcDbEntity
  8
Layer 1
370
     0
  0
ENDBLK
  5
46
330
43
100
AcDbEntity
  8
0
100
AcDbBlockEnd
  0
ENDSEC
  0
SECTION
  2
ENTITIES
  0
POLYLINE
  5
3C
330
1F
100
AcDbEntity
  8
Layer 1
 62
     7
370
    35
100
AcDb2dPolyline
 66
     1
 10
0.0
 20
0.0
 30
0.0
  0
VERTEX
  5
3D
330
3C
100
AcDbEntity
  8
Layer 1
 62
     7
370
    35
100
AcDbVertex
100
AcDb2dVertex
 10
89.03631224097717
 20
58.88051029109901
 30
0.0
  0
VERTEX
  5
3E
330
3C
100
AcDbEntity
  8
Layer 1
 62
     7
370
    35
100
AcDbVertex
100
AcDb2dVertex
 10
49.03614344772349
 20
58.88051029109901
 30
0.0
  0
VERTEX
  5
3F
330
3C
100
AcDbEntity
  8
Layer 1
 62
     7
370
    35
100
AcDbVertex
100
AcDb2dVertex
 10
49.03614344772349
 20
257.8807256135674
 30
0.0
  0
VERTEX
  5
40
330
3C
100
AcDbEntity
  8
Layer 1
 62
     7
370
    35
100
AcDbVertex
100
AcDb2dVertex
 10
89.03631224097717
 20
257.8807256135674
 30
0.0
  0
VERTEX
  5
41
330
3C
100
AcDbEntity
  8
Layer 1
 62
     7
370
    35
100
AcDbVertex
100
AcDb2dVertex
 10
89.03631224097717
 20
58.88051029109901
 30
0.0
  0
SEQEND
  5
42
330
3C
100
AcDbEntity
  8
Layer 1
370
    35
  0
INSERT
  5
44
330
1F
100
AcDbEntity
  8
Layer 1
100
AcDbBlockReference
  2
block 2
 10
0.0
 20
0.0
 30
0.0
  0
ENDSEC
  0
SECTION
  2
OBJECTS
  0
DICTIONARY
  5
C
330
0
100
AcDbDictionary
281
     1
  3
ACAD_GROUP
350
D
  3
ACAD_LAYOUT
350
1A
  3
ACAD_MLINESTYLE
350
17
  3
ACAD_PLOTSETTINGS
350
19
  3
ACAD_PLOTSTYLENAME
350
E
  3
ACAD_TABLESTYLE
350
120
  3
ACAD_VISUALSTYLE
350
2A
  0
DICTIONARY
  5
D
102
{ACAD_REACTORS
330
C
102
}
330
C
100
AcDbDictionary
281
     1
  0
DICTIONARY
  5
1A
102
{ACAD_REACTORS
330
C
102
}
330
C
100
AcDbDictionary
281
     1
  3
Layout1
350
1E
  3
Layout2
350
26
  3
Model
350
22
  0
DICTIONARY
  5
17
102
{ACAD_REACTORS
330
C
102
}
330
C
100
AcDbDictionary
281
     1
  3
Standard
350
18
  0
DICTIONARY
  5
19
102
{ACAD_REACTORS
330
C
102
}
330
C
100
AcDbDictionary
281
     1
  0
ACDBDICTIONARYWDFLT
  5
E
102
{ACAD_REACTORS
330
C
102
}
330
C
100
AcDbDictionary
281
     1
  3
Normal
350
F
100
AcDbDictionaryWithDefault
340
F
  0
DICTIONARY
  5
120
102
{ACAD_REACTORS
330
C
102
}
330
C
100
AcDbDictionary
281
     1
  0
DICTIONARY
  5
2A
102
{ACAD_REACTORS
330
C
102
}
330
C
100
AcDbDictionary
281
     1
  3
2dWireframe
350
2F
  3
3D Hidden
350
31
  3
3dWireframe
350
30
  3
Basic
350
32
  3
Brighten
350
36
  3
ColorChange
350
3A
  3
Conceptual
350
34
  3
Dim
350
35
  3
Facepattern
350
39
  3
Flat
350
2B
  3
FlatWithEdges
350
2C
  3
Gouraud
350
2D
  3
GouraudWithEdges
350
2E
  3
Linepattern
350
38
  3
Realistic
350
33
  3
Thicken
350
37
  0
LAYOUT
  5
1E
102
{ACAD_REACTORS
330
1A
102
}
330
1A
100
AcDbPlotSettings
  1

  2
none_device
  4

  6

 40
0.0
 41
0.0
 42
0.0
 43
0.0
 44
0.0
 45
0.0
 46
0.0
 47
0.0
 48
0.0
 49
0.0
140
0.0
141
0.0
142
1.0
143
1.0
 70
   688
 72
     0
 73
     0
 74
     5
  7

 75
    16
147
1.0
148
0.0
149
0.0
100
AcDbLayout
  1
Layout1
 70
     1
 71
     1
 10
0.0
 20
0.0
 11
12.0
 21
9.0
 12
0.0
 22
0.0
 32
0.0
 14
1.000000000000000E+20
 24
1.000000000000000E+20
 34
1.000000000000000E+20
 15
-1.000000000000000E+20
 25
-1.000000000000000E+20
 35
-1.000000000000000E+20
146
0.0
 13
0.0
 23
0.0
 33
0.0
 16
1.0
 26
0.0
 36
0.0
 17
0.0
 27
1.0
 37
0.0
 76
     0
330
1B
  0
LAYOUT
  5
26
102
{ACAD_REACTORS
330
1A
102
}
330
1A
100
AcDbPlotSettings
  1

  2
none_device
  4

  6

 40
0.0
 41
0.0
 42
0.0
 43
0.0
 44
0.0
 45
0.0
 46
0.0
 47
0.0
 48
0.0
 49
0.0
140
0.0
141
0.0
142
1.0
143
1.0
 70
   688
 72
     0
 73
     0
 74
     5
  7

 75
    16
147
1.0
148
0.0
149
0.0
100
AcDbLayout
  1
Layout2
 70
     1
 71
     2
 10
0.0
 20
0.0
 11
0.0
 21
0.0
 12
0.0
 22
0.0
 32
0.0
 14
0.0
 24
0.0
 34
0.0
 15
0.0
 25
0.0
 35
0.0
146
0.0
 13
0.0
 23
0.0
 33
0.0
 16
1.0
 26
0.0
 36
0.0
 17
0.0
 27
1.0
 37
0.0
 76
     0
330
23
  0
LAYOUT
  5
22
102
{ACAD_REACTORS
330
1A
102
}
330
1A
100
AcDbPlotSettings
  1

  2
none_device
  4

  6

 40
0.0
 41
0.0
 42
0.0
 43
0.0
 44
0.0
 45
0.0
 46
0.0
 47
0.0
 48
0.0
 49
0.0
140
0.0
141
0.0
142
1.0
143
1.0
 70
  1712
 72
     0
 73
     0
 74
     0
  7

 75
     0
147
1.0
148
0.0
149
0.0
100
AcDbLayout
  1
Model
 70
     1
 71
     0
 10
0.0
 20
0.0
 11
12.0
 21
9.0
 12
0.0
 22
0.0
 32
0.0
 14
1.000000000000000E+20
 24
1.000000000000000E+20
 34
1.000000000000000E+20
 15
-1.000000000000000E+20
 25
-1.000000000000000E+20
 35
-1.000000000000000E+20
146
0.0
 13
0.0
 23
0.0
 33
0.0
 16
1.0
 26
0.0
 36
0.0
 17
0.0
 27
1.0
 37
0.0
 76
     0
330
1F
331
29
  0
MLINESTYLE
  5
18
102
{ACAD_REACTORS
330
17
102
}
330
17
100
AcDbMlineStyle
  2
Standard
 70
     0
  3

 62
   256
 51
90.0
 52
90.0
 71
     2
 49
0.5
 62
   256
  6
BYLAYER
 49
-0.5
 62
   256
  6
BYLAYER
  0
ACDBPLACEHOLDER
  5
F
102
{ACAD_REACTORS
330
E
102
}
330
E
  0
VISUALSTYLE
  5
2F
102
{ACAD_REACTORS
330
2A
102
}
330
2A
100
AcDbVisualStyle
  2
2dWireframe
 70
     4
 71
     0
 72
     2
 73
     0
 90
        0
 40
-0.6
 41
-30.0
 62
     5
 63
     7
 74
     1
 91
        4
 64
     7
 65
   257
 75
     1
175
     1
 42
1.0
 92
        0
 66
   257
 43
1.0
 76
     1
 77
     6
 78
     2
 67
     7
 79
     5
170
     0
171
     0
290
     0
174
     0
 93
        1
 44
0.0
173
     0
291
     0
 45
0.0
1001
ACAD
1000
AcDbSavedByObjectVersion
1070
     0
  0
VISUALSTYLE
  5
31
102
{ACAD_REACTORS
330
2A
102
}
330
2A
100
AcDbVisualStyle
  2
3D Hidden
 70
     6
 71
     1
 72
     2
 73
     2
 90
        0
 40
-0.6
 41
-30.0
 62
     5
 63
     7
 74
     2
 91
        2
 64
     7
 65
   257
 75
     2
175
     1
 42
40.0
 92
        0
 66
   257
 43
1.0
 76
     1
 77
     6
 78
     2
 67
     7
 79
     3
170
     0
171
     0
290
     0
174
     0
 93
        1
 44
0.0
173
     0
291
     0
 45
0.0
1001
ACAD
1000
AcDbSavedByObjectVersion
1070
     0
  0
VISUALSTYLE
  5
30
102
{ACAD_REACTORS
330
2A
102
}
330
2A
100
AcDbVisualStyle
  2
3dWireframe
 70
     5
 71
     0
 72
     2
 73
     0
 90
        0
 40
-0.6
 41
-30.0
 62
     5
 63
     7
 74
     1
 91
        4
 64
     7
 65
   257
 75
     1
175
     1
 42
1.0
 92
        0
 66
   257
 43
1.0
 76
     1
 77
     6
 78
     2
 67
     7
 79
     5
170
     0
171
     0
290
     0
174
     0
 93
        1
 44
0.0
173
     0
291
     0
 45
0.0
1001
ACAD
1000
AcDbSavedByObjectVersion
1070
     0
  0
VISUALSTYLE
  5
32
102
{ACAD_REACTORS
330
2A
102
}
330
2A
100
AcDbVisualStyle
  2
Basic
 70
     7
 71
     1
 72
     0
 73
     1
 90
        0
 40
-0.6
 41
-30.0
 62
     5
 63
     7
 74
     0
 91
        4
 64
     7
 65
   257
 75
     1
175
     1
 42
1.0
 92
        8
 66
     7
 43
1.0
 76
     1
 77
     6
 78
     2
 67
     7
 79
     5
170
     0
171
     0
290
     0
174
     0
 93
        1
 44
0.0
173
     0
291
     1
 45
0.0
1001
ACAD
1000
AcDbSavedByObjectVersion
1070
     0
  0
VISUALSTYLE
  5
36
102
{ACAD_REACTORS
330
2A
102
}
330
2A
100
AcDbVisualStyle
  2
Brighten
 70
    12
 71
     2
 72
     2
 73
     0
 90
        0
 40
-0.6
 41
-30.0
 62
     5
 63
     7
 74
     1
 91
        4
 64
     7
 65
   257
 75
     1
175
     1
 42
1.0
 92
        8
 66
     7
 43
1.0
 76
     1
 77
     6
 78
     2
 67
     7
 79
     5
170
     0
171
     0
290
     0
174
     0
 93
        1
 44
50.0
173
     0
291
     1
 45
0.0
1001
ACAD
1000
AcDbSavedByObjectVersion
1070
     0
  0
VISUALSTYLE
  5
3A
102
{ACAD_REACTORS
330
2A
102
}
330
2A
100
AcDbVisualStyle
  2
ColorChange
 70
    16
 71
     2
 72
     2
 73
     3
 90
        0
 40
-0.6
 41
-30.0
 62
     5
 63
     8
 74
     1
 91
        4
 64
     7
 65
   257
 75
     1
175
     1
 42
1.0
 92
        8
 66
     8
 43
1.0
 76
     1
 77
     6
 78
     2
 67
     7
 79
     5
170
     0
171
     0
290
     0
174
     0
 93
        1
 44
0.0
173
     0
291
     1
 45
0.0
1001
ACAD
1000
AcDbSavedByObjectVersion
1070
     0
  0
VISUALSTYLE
  5
34
102
{ACAD_REACTORS
330
2A
102
}
330
2A
100
AcDbVisualStyle
  2
Conceptual
 70
     9
 71
     3
 72
     2
 73
     0
 90
        0
 40
-0.6
 41
-30.0
 62
     5
 63
     7
 74
     2
 91
        2
 64
     7
 65
   257
 75
     1
175
     1
 42
40.0
 92
        8
 66
     7
 43
1.0
 76
     1
 77
     6
 78
     2
 67
     7
 79
     3
170
     0
171
     0
290
     0
174
     0
 93
        1
 44
0.0
173
     0
291
     0
 45
0.0
1001
ACAD
1000
AcDbSavedByObjectVersion
1070
     0
  0
VISUALSTYLE
  5
35
102
{ACAD_REACTORS
330
2A
102
}
330
2A
100
AcDbVisualStyle
  2
Dim
 70
    11
 71
     2
 72
     2
 73
     0
 90
        0
 40
-0.6
 41
-30.0
 62
     5
 63
     7
 74
     1
 91
        4
 64
     7
 65
   257
 75
     1
175
     1
 42
1.0
 92
        8
 66
     7
 43
1.0
 76
     1
 77
     6
 78
     2
 67
     7
 79
     5
170
     0
171
     0
290
     0
174
     0
 93
        1
 44
-50.0
173
     0
291
     1
 45
0.0
1001
ACAD
1000
AcDbSavedByObjectVersion
1070
     0
  0
VISUALSTYLE
  5
39
102
{ACAD_REACTORS
330
2A
102
}
330
2A
100
AcDbVisualStyle
  2
Facepattern
 70
    15
 71
     2
 72
     2
 73
     0
 90
        0
 40
-0.6
 41
-30.0
 62
     5
 63
     7
 74
     1
 91
        4
 64
     7
 65
   257
 75
     1
175
     1
 42
1.0
 92
        8
 66
     7
 43
1.0
 76
     1
 77
     6
 78
     2
 67
     7
 79
     5
170
     0
171
     0
290
     0
174
     0
 93
        1
 44
0.0
173
     0
291
     1
 45
0.0
1001
ACAD
1000
AcDbSavedByObjectVersion
1070
     0
  0
VISUALSTYLE
  5
2B
102
{ACAD_REACTORS
330
2A
102
}
330
2A
100
AcDbVisualStyle
  2
Flat
 70
     0
 71
     2
 72
     1
 73
     1
 90
        2
 40
-0.6
 41
30.0
 62
     5
 63
     7
 74
     0
 91
        4
 64
     7
 65
   257
 75
     1
175
     1
 42
1.0
 92
        8
 66
     7
 43
1.0
 76
     1
 77
     6
 78
     2
 67
     7
 79
     5
170
     0
171
     0
290
     0
174
     0
 93
       13
 44
0.0
173
     0
291
     1
 45
0.0
1001
ACAD
1000
AcDbSavedByObjectVersion
1070
     0
  0
VISUALSTYLE
  5
2C
102
{ACAD_REACTORS
330
2A
102
}
330
2A
100
AcDbVisualStyle
  2
FlatWithEdges
 70
     1
 71
     2
 72
     1
 73
     1
 90
        2
 40
-0.6
 41
30.0
 62
     5
 63
     7
 74
     1
 91
        4
 64
     7
 65
   257
 75
     1
175
     1
 42
1.0
 92
        0
 66
   257
 43
1.0
 76
     1
 77
     6
 78
     2
 67
     7
 79
     5
170
     0
171
     0
290
     0
174
     0
 93
       13
 44
0.0
173
     0
291
     1
 45
0.0
1001
ACAD
1000
AcDbSavedByObjectVersion
1070
     0
  0
VISUALSTYLE
  5
2D
102
{ACAD_REACTORS
330
2A
102
}
330
2A
100
AcDbVisualStyle
  2
Gouraud
 70
     2
 71
     2
 72
     2
 73
     1
 90
        2
 40
-0.6
 41
30.0
 62
     5
 63
     7
 74
     0
 91
        4
 64
     7
 65
   257
 75
     1
175
     1
 42
1.0
 92
        0
 66
     7
 43
1.0
 76
     1
 77
     6
 78
     2
 67
     7
 79
     5
170
     0
171
     0
290
     0
174
     0
 93
       13
 44
0.0
173
     0
291
     1
 45
0.0
1001
ACAD
1000
AcDbSavedByObjectVersion
1070
     0
  0
VISUALSTYLE
  5
2E
102
{ACAD_REACTORS
330
2A
102
}
330
2A
100
AcDbVisualStyle
  2
GouraudWithEdges
 70
     3
 71
     2
 72
     2
 73
     1
 90
        2
 40
-0.6
 41
30.0
 62
     5
 63
     7
 74
     1
 91
        4
 64
     7
 65
   257
 75
     1
175
     1
 42
1.0
 92
        0
 66
   257
 43
1.0
 76
     1
 77
     6
 78
     2
 67
     7
 79
     5
170
     0
171
     0
290
     0
174
     0
 93
       13
 44
0.0
173
     0
291
     1
 45
0.0
1001
ACAD
1000
AcDbSavedByObjectVersion
1070
     0
  0
VISUALSTYLE
  5
38
102
{ACAD_REACTORS
330
2A
102
}
330
2A
100
AcDbVisualStyle
  2
Linepattern
 70
    14
 71
     2
 72
     2
 73
     0
 90
        0
 40
-0.6
 41
-30.0
 62
     5
 63
     7
 74
     1
 91
        4
 64
     7
 65
   257
 75
     7
175
     7
 42
1.0
 92
        8
 66
     7
 43
1.0
 76
     1
 77
     6
 78
     2
 67
     7
 79
     5
170
     0
171
     0
290
     0
174
     0
 93
        1
 44
0.0
173
     0
291
     1
 45
0.0
1001
ACAD
1000
AcDbSavedByObjectVersion
1070
     0
  0
VISUALSTYLE
  5
33
102
{ACAD_REACTORS
330
2A
102
}
330
2A
100
AcDbVisualStyle
  2
Realistic
 70
     8
 71
     2
 72
     2
 73
     0
 90
        0
 40
-0.6
 41
-30.0
 62
     5
 63
     7
 74
     1
 91
        0
 64
     7
 65
   257
 75
     1
175
     1
 42
1.0
 92
        8
 66
     8
 43
1.0
 76
     1
 77
     6
 78
     2
 67
     7
 79
     5
170
     0
171
     0
290
     0
174
     0
 93
       13
 44
0.0
173
     0
291
     0
 45
0.0
1001
ACAD
1000
AcDbSavedByObjectVersion
1070
     0
  0
VISUALSTYLE
  5
37
102
{ACAD_REACTORS
330
2A
102
}
330
2A
100
AcDbVisualStyle
  2
Thicken
 70
    13
 71
     2
 72
     2
 73
     0
 90
        0
 40
-0.6
 41
-30.0
 62
     5
 63
     7
 74
     1
 91
        4
 64
     7
 65
   257
 75
     1
175
     1
 42
1.0
 92
       12
 66
     7
 43
1.0
 76
     1
 77
     6
 78
     2
 67
     7
 79
     5
170
     0
171
     0
290
     0
174
     0
 93
        1
 44
0.0
173
     0
291
     1
 45
0.0
1001
ACAD
1000
AcDbSavedByObjectVersion
1070
     0
  0
ENDSEC
  0
EOF
