  0
SECTION
  2
HEADER
  9
$ACADVER
  1
AC1015
  9
$ACADMAINTVER
 70
     6
  9
$DWGCODEPAGE
  3
ANSI_949
  9
$INSBASE
 10
0.0
 20
0.0
 30
0.0
  9
$EXTMIN
 10
1.000000000000000E+20
 20
1.000000000000000E+20
 30
1.000000000000000E+20
  9
$EXTMAX
 10
-1.000000000000000E+20
 20
-1.000000000000000E+20
 30
-1.000000000000000E+20
  9
$LIMMIN
 10
0.0
 20
0.0
  9
$LIMMAX
 10
12.0
 20
9.0
  9
$ORTHOMODE
 70
     0
  9
$REGENMODE
 70
     1
  9
$FILLMODE
 70
     1
  9
$QTEXTMODE
 70
     0
  9
$MIRRTEXT
 70
     1
  9
$LTSCALE
 40
1.0
  9
$ATTMODE
 70
     1
  9
$TEXTSIZE
 40
0.2
  9
$TRACEWID
 40
0.05
  9
$TEXTSTYLE
  7
Standard
  9
$CLAYER
  8
0
  9
$CELTYPE
  6
ByLayer
  9
$CECOLOR
 62
   256
  9
$CELTSCALE
 40
1.0
  9
$DISPSILH
 70
     0
  9
$DIMSCALE
 40
1.0
  9
$DIMASZ
 40
0.18
  9
$DIMEXO
 40
0.0625
  9
$DIMDLI
 40
0.38
  9
$DIMRND
 40
0.0
  9
$DIMDLE
 40
0.0
  9
$DIMEXE
 40
0.18
  9
$DIMTP
 40
0.0
  9
$DIMTM
 40
0.0
  9
$DIMTXT
 40
0.18
  9
$DIMCEN
 40
0.09
  9
$DIMTSZ
 40
0.0
  9
$DIMTOL
 70
     0
  9
$DIMLIM
 70
     0
  9
$DIMTIH
 70
     1
  9
$DIMTOH
 70
     1
  9
$DIMSE1
 70
     0
  9
$DIMSE2
 70
     0
  9
$DIMTAD
 70
     0
  9
$DIMZIN
 70
     0
  9
$DIMBLK
  1

  9
$DIMASO
 70
     1
  9
$DIMSHO
 70
     1
  9
$DIMPOST
  1

  9
$DIMAPOST
  1

  9
$DIMALT
 70
     0
  9
$DIMALTD
 70
     2
  9
$DIMALTF
 40
25.4
  9
$DIMLFAC
 40
1.0
  9
$DIMTOFL
 70
     0
  9
$DIMTVP
 40
0.0
  9
$DIMTIX
 70
     0
  9
$DIMSOXD
 70
     0
  9
$DIMSAH
 70
     0
  9
$DIMBLK1
  1

  9
$DIMBLK2
  1

  9
$DIMSTYLE
  2
Standard
  9
$DIMCLRD
 70
     0
  9
$DIMCLRE
 70
     0
  9
$DIMCLRT
 70
     0
  9
$DIMTFAC
 40
1.0
  9
$DIMGAP
 40
0.09
  9
$DIMJUST
 70
     0
  9
$DIMSD1
 70
     0
  9
$DIMSD2
 70
     0
  9
$DIMTOLJ
 70
     1
  9
$DIMTZIN
 70
     0
  9
$DIMALTZ
 70
     0
  9
$DIMALTTZ
 70
     0
  9
$DIMUPT
 70
     0
  9
$DIMDEC
 70
     4
  9
$DIMTDEC
 70
     4
  9
$DIMALTU
 70
     2
  9
$DIMALTTD
 70
     2
  9
$DIMTXSTY
  7
Standard
  9
$DIMAUNIT
 70
     0
  9
$DIMADEC
 70
     0
  9
$DIMALTRND
 40
0.0
  9
$DIMAZIN
 70
     0
  9
$DIMDSEP
 70
    46
  9
$DIMATFIT
 70
     3
  9
$DIMFRAC
 70
     0
  9
$DIMLDRBLK
  1

  9
$DIMLUNIT
 70
     2
  9
$DIMLWD
 70
    -2
  9
$DIMLWE
 70
    -2
  9
$DIMTMOVE
 70
     0
  9
$LUNITS
 70
     2
  9
$LUPREC
 70
     4
  9
$SKETCHINC
 40
0.1
  9
$FILLETRAD
 40
0.5
  9
$AUNITS
 70
     0
  9
$AUPREC
 70
     0
  9
$MENU
  1
.
  9
$ELEVATION
 40
0.0
  9
$PELEVATION
 40
0.0
  9
$THICKNESS
 40
0.0
  9
$LIMCHECK
 70
     0
  9
$CHAMFERA
 40
0.5
  9
$CHAMFERB
 40
0.5
  9
$CHAMFERC
 40
1.0
  9
$CHAMFERD
 40
0.0
  9
$SKPOLY
 70
     0
  9
$TDCREATE
 40
2458492.67316375
  9
$TDUCREATE
 40
2458492.402330417
  9
$TDUPDATE
 40
2458492.673163761
  9
$TDUUPDATE
 40
2458492.402330428
  9
$TDINDWG
 40
0.0000000116
  9
$TDUSRTIMER
 40
0.0000000116
  9
$USRTIMER
 70
     1
  9
$ANGBASE
 50
0.0
  9
$ANGDIR
 70
     0
  9
$PDMODE
 70
     0
  9
$PDSIZE
 40
0.0
  9
$PLINEWID
 40
0.0
  9
$SPLFRAME
 70
     0
  9
$SPLINETYPE
 70
     6
  9
$SPLINESEGS
 70
     8
  9
$HANDSEED
  5
1D3
  9
$SURFTAB1
 70
     6
  9
$SURFTAB2
 70
     6
  9
$SURFTYPE
 70
     6
  9
$SURFU
 70
     6
  9
$SURFV
 70
     6
  9
$UCSBASE
  2

  9
$UCSNAME
  2

  9
$UCSORG
 10
0.0
 20
0.0
 30
0.0
  9
$UCSXDIR
 10
1.0
 20
0.0
 30
0.0
  9
$UCSYDIR
 10
0.0
 20
1.0
 30
0.0
  9
$UCSORTHOREF
  2

  9
$UCSORTHOVIEW
 70
     0
  9
$UCSORGTOP
 10
0.0
 20
0.0
 30
0.0
  9
$UCSORGBOTTOM
 10
0.0
 20
0.0
 30
0.0
  9
$UCSORGLEFT
 10
0.0
 20
0.0
 30
0.0
  9
$UCSORGRIGHT
 10
0.0
 20
0.0
 30
0.0
  9
$UCSORGFRONT
 10
0.0
 20
0.0
 30
0.0
  9
$UCSORGBACK
 10
0.0
 20
0.0
 30
0.0
  9
$PUCSBASE
  2

  9
$PUCSNAME
  2

  9
$PUCSORG
 10
0.0
 20
0.0
 30
0.0
  9
$PUCSXDIR
 10
1.0
 20
0.0
 30
0.0
  9
$PUCSYDIR
 10
0.0
 20
1.0
 30
0.0
  9
$PUCSORTHOREF
  2

  9
$PUCSORTHOVIEW
 70
     0
  9
$PUCSORGTOP
 10
0.0
 20
0.0
 30
0.0
  9
$PUCSORGBOTTOM
 10
0.0
 20
0.0
 30
0.0
  9
$PUCSORGLEFT
 10
0.0
 20
0.0
 30
0.0
  9
$PUCSORGRIGHT
 10
0.0
 20
0.0
 30
0.0
  9
$PUCSORGFRONT
 10
0.0
 20
0.0
 30
0.0
  9
$PUCSORGBACK
 10
0.0
 20
0.0
 30
0.0
  9
$USERI1
 70
     0
  9
$USERI2
 70
     0
  9
$USERI3
 70
     0
  9
$USERI4
 70
     0
  9
$USERI5
 70
     0
  9
$USERR1
 40
0.0
  9
$USERR2
 40
0.0
  9
$USERR3
 40
0.0
  9
$USERR4
 40
0.0
  9
$USERR5
 40
0.0
  9
$WORLDVIEW
 70
     1
  9
$SHADEDGE
 70
     3
  9
$SHADEDIF
 70
    70
  9
$TILEMODE
 70
     1
  9
$MAXACTVP
 70
    64
  9
$PINSBASE
 10
0.0
 20
0.0
 30
0.0
  9
$PLIMCHECK
 70
     0
  9
$PEXTMIN
 10
1.000000000000000E+20
 20
1.000000000000000E+20
 30
1.000000000000000E+20
  9
$PEXTMAX
 10
-1.000000000000000E+20
 20
-1.000000000000000E+20
 30
-1.000000000000000E+20
  9
$PLIMMIN
 10
0.0
 20
0.0
  9
$PLIMMAX
 10
12.0
 20
9.0
  9
$UNITMODE
 70
     0
  9
$VISRETAIN
 70
     1
  9
$PLINEGEN
 70
     0
  9
$PSLTSCALE
 70
     1
  9
$TREEDEPTH
 70
  3020
  9
$CMLSTYLE
  2
Standard
  9
$CMLJUST
 70
     0
  9
$CMLSCALE
 40
1.0
  9
$PROXYGRAPHICS
 70
     1
  9
$MEASUREMENT
 70
     0
  9
$CELWEIGHT
370
    -1
  9
$ENDCAPS
280
     0
  9
$JOINSTYLE
280
     0
  9
$LWDISPLAY
290
     1
  9
$INSUNITS
 70
     1
  9
$HYPERLINKBASE
  1

  9
$STYLESHEET
  1

  9
$XEDIT
290
     1
  9
$CEPSNTYPE
380
     0
  9
$PSTYLEMODE
290
     1
  9
$FINGERPRINTGUID
  2
{0E3DAED1-405E-40E8-A59F-0F326DA049E7}
  9
$VERSIONGUID
  2
{FAEB1C32-E019-11D5-929B-00C0DF256EC4}
  9
$EXTNAMES
290
     1
  9
$PSVPSCALE
 40
0.0
  9
$OLESTARTUP
290
     0
  0
ENDSEC
  0
SECTION
  2
CLASSES
  0
CLASS
  1
ACDBDICTIONARYWDFLT
  2
AcDbDictionaryWithDefault
  3
ObjectDBX Classes
 90
        0
280
     0
281
     0
  0
CLASS
  1
VISUALSTYLE
  2
AcDbVisualStyle
  3
ObjectDBX Classes
 90
     4095
280
     0
281
     0
  0
CLASS
  1
ACDBPLACEHOLDER
  2
AcDbPlaceHolder
  3
ObjectDBX Classes
 90
        0
280
     0
281
     0
  0
CLASS
  1
LAYOUT
  2
AcDbLayout
  3
ObjectDBX Classes
 90
        0
280
     0
281
     0
  0
ENDSEC
  0
SECTION
  2
TABLES
  0
TABLE
  2
VPORT
  5
8
330
0
100
AcDbSymbolTable
 70
     1
  0
VPORT
  5
29
330
8
100
AcDbSymbolTableRecord
100
AcDbViewportTableRecord
  2
*Active
 70
     0
 10
0.0
 20
0.0
 11
1.0
 21
1.0
 12
0.0
 22
0.0
 13
0.0
 23
0.0
 14
0.5
 24
0.5
 15
0.5
 25
0.5
 16
0.0
 26
0.0
 36
1.0
 17
215.9001423741495
 27
139.7000921244496
 37
0.0
 40
279.4001842488993
 41
1.545454545454546
 42
50.0
 43
0.0
 44
0.0
 50
0.0
 51
0.0
 71
     0
 72
   100
 73
     1
 74
     3
 75
     0
 76
     0
 77
     0
 78
     0
281
     0
 65
     1
110
0.0
120
0.0
130
0.0
111
1.0
121
0.0
131
0.0
112
0.0
122
1.0
132
0.0
 79
     0
146
0.0
  0
ENDTAB
  0
TABLE
  2
LTYPE
  5
5
330
0
100
AcDbSymbolTable
 70
     1
  0
LTYPE
  5
14
330
5
100
AcDbSymbolTableRecord
100
AcDbLinetypeTableRecord
  2
ByBlock
 70
     0
  3

 72
    65
 73
     0
 40
0.0
  0
LTYPE
  5
15
330
5
100
AcDbSymbolTableRecord
100
AcDbLinetypeTableRecord
  2
ByLayer
 70
     0
  3

 72
    65
 73
     0
 40
0.0
  0
LTYPE
  5
16
330
5
100
AcDbSymbolTableRecord
100
AcDbLinetypeTableRecord
  2
Continuous
 70
     0
  3
Solid line
 72
    65
 73
     0
 40
0.0
  0
ENDTAB
  0
TABLE
  2
LAYER
  5
2
330
0
100
AcDbSymbolTable
 70
     2
  0
LAYER
  5
10
330
2
100
AcDbSymbolTableRecord
100
AcDbLayerTableRecord
  2
0
 70
     0
 62
     7
  6
Continuous
370
    -3
390
F
  0
LAYER
  5
3B
330
2
100
AcDbSymbolTableRecord
100
AcDbLayerTableRecord
  2
Layer 1
 70
     0
 62
     7
  6
Continuous
370
    -3
390
F
  0
ENDTAB
  0
TABLE
  2
STYLE
  5
3
330
0
100
AcDbSymbolTable
 70
     1
  0
STYLE
  5
11
330
3
100
AcDbSymbolTableRecord
100
AcDbTextStyleTableRecord
  2
Standard
 70
     0
 40
0.0
 41
1.0
 50
0.0
 71
     0
 42
0.2
  3
txt
  4

  0
ENDTAB
  0
TABLE
  2
VIEW
  5
6
330
0
100
AcDbSymbolTable
 70
     0
  0
ENDTAB
  0
TABLE
  2
UCS
  5
7
330
0
100
AcDbSymbolTable
 70
     0
  0
ENDTAB
  0
TABLE
  2
APPID
  5
9
330
0
100
AcDbSymbolTable
 70
     1
  0
APPID
  5
12
330
9
100
AcDbSymbolTableRecord
100
AcDbRegAppTableRecord
  2
ACAD
 70
     0
  0
ENDTAB
  0
TABLE
  2
DIMSTYLE
  5
A
330
0
100
AcDbSymbolTable
 70
     1
100
AcDbDimStyleTable
  0
DIMSTYLE
105
27
330
A
100
AcDbSymbolTableRecord
100
AcDbDimStyleTableRecord
  2
Standard
 70
     0
340
11
  0
ENDTAB
  0
TABLE
  2
BLOCK_RECORD
  5
1
330
0
100
AcDbSymbolTable
 70
     2
  0
BLOCK_RECORD
  5
1F
330
1
100
AcDbSymbolTableRecord
100
AcDbBlockTableRecord
  2
*Model_Space
340
22
  0
BLOCK_RECORD
  5
1B
330
1
100
AcDbSymbolTableRecord
100
AcDbBlockTableRecord
  2
*Paper_Space
340
1E
  0
BLOCK_RECORD
  5
23
330
1
100
AcDbSymbolTableRecord
100
AcDbBlockTableRecord
  2
*Paper_Space0
340
26
  0
BLOCK_RECORD
  5
97
330
1
100
AcDbSymbolTableRecord
100
AcDbBlockTableRecord
  2
block 2
340
0
102
{BLKREFS
331
98
102
}
  0
ENDTAB
  0
ENDSEC
  0
SECTION
  2
BLOCKS
  0
BLOCK
  5
20
330
1F
100
AcDbEntity
  8
0
100
AcDbBlockBegin
  2
*Model_Space
 70
     0
 71
     0
 10
0.0
 20
0.0
 30
0.0
  3
*Model_Space
  1

  0
ENDBLK
  5
21
330
1F
100
AcDbEntity
  8
0
100
AcDbBlockEnd
  0
BLOCK
  5
1C
330
1B
100
AcDbEntity
 67
     1
  8
0
100
AcDbBlockBegin
  2
*Paper_Space
 70
     0
 71
     0
 10
0.0
 20
0.0
 30
0.0
  3
*Paper_Space
  1

  0
ENDBLK
  5
1D
330
1B
100
AcDbEntity
 67
     1
  8
0
100
AcDbBlockEnd
  0
BLOCK
  5
24
330
23
100
AcDbEntity
  8
0
100
AcDbBlockBegin
  2
*Paper_Space0
 70
     0
 71
     0
 10
0.0
 20
0.0
 30
0.0
  3
*Paper_Space0
  1

  0
ENDBLK
  5
25
330
23
100
AcDbEntity
  8
0
100
AcDbBlockEnd
  0
BLOCK
  5
99
330
97
100
AcDbEntity
  8
0
100
AcDbBlockBegin
  2
block 2
 70
     0
 71
     0
 10
0.0
 20
0.0
 30
0.0
  3
block 2
  1

  0
SPLINE
  5
9B
330
97
100
AcDbEntity
  8
Layer 1
 62
     7
370
    35
100
AcDbSpline
210
0.0
220
0.0
230
1.0
 70
    11
 71
     3
 72
    17
 73
    13
 74
     0
 42
0.0000000001
 43
0.0000000001
 40
0.0
 40
0.0
 40
0.0
 40
0.0
 40
1.0
 40
1.0
 40
1.0
 40
2.0
 40
2.0
 40
2.0
 40
3.0
 40
3.0
 40
3.0
 40
4.0
 40
4.0
 40
4.0
 40
4.0
 10
54.76482425455008
 20
240.9981963055641
 30
0.0
 10
54.76482425455008
 20
239.617401124173
 30
0.0
 10
53.64551199298833
 20
238.4980888626113
 30
0.0
 10
52.26471681159729
 20
238.4980888626113
 30
0.0
 10
50.88426613998204
 20
238.4980888626113
 30
0.0
 10
49.76495387842029
 20
239.617401124173
 30
0.0
 10
49.76495387842029
 20
240.9981963055641
 30
0.0
 10
49.76495387842029
 20
242.3789914869551
 30
0.0
 10
50.88426613998204
 20
243.4979592387411
 30
0.0
 10
52.26471681159729
 20
243.4979592387411
 30
0.0
 10
53.64551199298833
 20
243.4979592387411
 30
0.0
 10
54.76482425455008
 20
242.3789914869551
 30
0.0
 10
54.76482425455008
 20
240.9981963055641
 30
0.0
  0
SPLINE
  5
9C
330
97
100
AcDbEntity
  8
Layer 1
 62
     7
370
    35
100
AcDbSpline
210
0.0
220
0.0
230
1.0
 70
    11
 71
     3
 72
    17
 73
    13
 74
     0
 42
0.0000000001
 43
0.0000000001
 40
0.0
 40
0.0
 40
0.0
 40
0.0
 40
1.0
 40
1.0
 40
1.0
 40
2.0
 40
2.0
 40
2.0
 40
3.0
 40
3.0
 40
3.0
 40
4.0
 40
4.0
 40
4.0
 40
4.0
 10
54.76482425455008
 20
74.24667982093553
 30
0.0
 10
54.76482425455008
 20
72.86588463954449
 30
0.0
 10
53.64551199298833
 20
71.74622786820694
 30
0.0
 10
52.26471681159729
 20
71.74622786820694
 30
0.0
 10
50.88426613998204
 20
71.74622786820694
 30
0.0
 10
49.76495387842029
 20
72.86588463954449
 30
0.0
 10
49.76495387842029
 20
74.24667982093553
 30
0.0
 10
49.76495387842029
 20
75.62678598277499
 30
0.0
 10
50.88426613998204
 20
76.74644275411254
 30
0.0
 10
52.26471681159729
 20
76.74644275411254
 30
0.0
 10
53.64551199298833
 20
76.74644275411254
 30
0.0
 10
54.76482425455008
 20
75.62678598277499
 30
0.0
 10
54.76482425455008
 20
74.24667982093553
 30
0.0
  0
SPLINE
  5
9D
330
97
100
AcDbEntity
  8
Layer 1
 62
     7
370
    35
100
AcDbSpline
210
0.0
220
0.0
230
1.0
 70
    11
 71
     3
 72
    17
 73
    13
 74
     0
 42
0.0000000001
 43
0.0000000001
 40
0.0
 40
0.0
 40
0.0
 40
0.0
 40
1.0
 40
1.0
 40
1.0
 40
2.0
 40
2.0
 40
2.0
 40
3.0
 40
3.0
 40
3.0
 40
4.0
 40
4.0
 40
4.0
 40
4.0
 10
164.2967120771929
 20
240.9981963055641
 30
0.0
 10
164.2967120771929
 20
239.617401124173
 30
0.0
 10
163.177744325407
 20
238.4980888626113
 30
0.0
 10
161.7969491440159
 20
238.4980888626113
 30
0.0
 10
160.4161539626249
 20
238.4980888626113
 30
0.0
 10
159.2968417010631
 20
239.617401124173
 30
0.0
 10
159.2968417010631
 20
240.9981963055641
 30
0.0
 10
159.2968417010631
 20
242.3789914869551
 30
0.0
 10
160.4161539626249
 20
243.4979592387411
 30
0.0
 10
161.7969491440159
 20
243.4979592387411
 30
0.0
 10
163.177744325407
 20
243.4979592387411
 30
0.0
 10
164.2967120771929
 20
242.3789914869551
 30
0.0
 10
164.2967120771929
 20
240.9981963055641
 30
0.0
  0
SPLINE
  5
9E
330
97
100
AcDbEntity
  8
Layer 1
 62
     7
370
    35
100
AcDbSpline
210
0.0
220
0.0
230
1.0
 70
    11
 71
     3
 72
    17
 73
    13
 74
     0
 42
0.0000000001
 43
0.0000000001
 40
0.0
 40
0.0
 40
0.0
 40
0.0
 40
1.0
 40
1.0
 40
1.0
 40
2.0
 40
2.0
 40
2.0
 40
3.0
 40
3.0
 40
3.0
 40
4.0
 40
4.0
 40
4.0
 40
4.0
 10
164.2967120771929
 20
74.24667982093553
 30
0.0
 10
164.2967120771929
 20
72.86588463954449
 30
0.0
 10
163.177744325407
 20
71.74622786820694
 30
0.0
 10
161.7969491440159
 20
71.74622786820694
 30
0.0
 10
160.4161539626249
 20
71.74622786820694
 30
0.0
 10
159.2968417010631
 20
72.86588463954449
 30
0.0
 10
159.2968417010631
 20
74.24667982093553
 30
0.0
 10
159.2968417010631
 20
75.62747500232658
 30
0.0
 10
160.4161539626249
 20
76.74644275411254
 30
0.0
 10
161.7969491440159
 20
76.74644275411254
 30
0.0
 10
163.177744325407
 20
76.74644275411254
 30
0.0
 10
164.2967120771929
 20
75.62747500232658
 30
0.0
 10
164.2967120771929
 20
74.24667982093553
 30
0.0
  0
POLYLINE
  5
9F
330
97
100
AcDbEntity
  8
Layer 1
 62
     7
370
    35
100
AcDb2dPolyline
 66
     1
 10
0.0
 20
0.0
 30
0.0
  0
VERTEX
  5
A0
330
9F
100
AcDbEntity
  8
Layer 1
 62
     7
370
    35
100
AcDbVertex
100
AcDb2dVertex
 10
32.61749655282967
 20
241.3509743159793
 30
0.0
  0
VERTEX
  5
A1
330
9F
100
AcDbEntity
  8
Layer 1
 62
     7
370
    35
100
AcDbVertex
100
AcDb2dVertex
 10
32.61749655282967
 20
241.3509743159793
 30
0.0
  0
SEQEND
  5
A2
330
9F
100
AcDbEntity
  8
Layer 1
370
    35
  0
SPLINE
  5
A3
330
97
100
AcDbEntity
  8
Layer 1
 62
     7
370
    35
100
AcDbSpline
210
0.0
220
0.0
230
1.0
 70
    11
 71
     3
 72
    17
 73
    13
 74
     0
 42
0.0000000001
 43
0.0000000001
 40
0.0
 40
0.0
 40
0.0
 40
0.0
 40
1.0
 40
1.0
 40
1.0
 40
2.0
 40
2.0
 40
2.0
 40
3.0
 40
3.0
 40
3.0
 40
4.0
 40
4.0
 40
4.0
 40
4.0
 10
35.11743174089457
 20
241.3511465708672
 30
0.0
 10
35.11743174089457
 20
239.9703513894762
 30
0.0
 10
33.99811947933282
 20
238.8510391279144
 30
0.0
 10
32.61732429794178
 20
238.8510391279144
 30
0.0
 10
31.23687362632653
 20
238.8510391279144
 30
0.0
 10
30.11756136476478
 20
239.9703513894762
 30
0.0
 10
30.11756136476478
 20
241.3511465708672
 30
0.0
 10
30.11756136476478
 20
242.7319417522583
 30
0.0
 10
31.23687362632653
 20
243.8509095040442
 30
0.0
 10
32.61732429794178
 20
243.8509095040442
 30
0.0
 10
33.99811947933282
 20
243.8509095040442
 30
0.0
 10
35.11743174089457
 20
242.7319417522583
 30
0.0
 10
35.11743174089457
 20
241.3511465708672
 30
0.0
  0
SPLINE
  5
A4
330
97
100
AcDbEntity
  8
Layer 1
 62
     7
370
    35
100
AcDbSpline
210
0.0
220
0.0
230
1.0
 70
    11
 71
     3
 72
    17
 73
    13
 74
     0
 42
0.0000000001
 43
0.0000000001
 40
0.0
 40
0.0
 40
0.0
 40
0.0
 40
1.0
 40
1.0
 40
1.0
 40
2.0
 40
2.0
 40
2.0
 40
3.0
 40
3.0
 40
3.0
 40
4.0
 40
4.0
 40
4.0
 40
4.0
 10
35.11743174089457
 20
74.59876881179922
 30
0.0
 10
35.11743174089457
 20
73.21866264995977
 30
0.0
 10
33.99811947933282
 20
72.09900587862222
 30
0.0
 10
32.61732429794178
 20
72.09900587862222
 30
0.0
 10
31.23687362632653
 20
72.09900587862222
 30
0.0
 10
30.11756136476478
 20
73.21866264995977
 30
0.0
 10
30.11756136476478
 20
74.59876881179922
 30
0.0
 10
30.11756136476478
 20
75.97956399319027
 30
0.0
 10
31.23687362632653
 20
77.09922076452781
 30
0.0
 10
32.61732429794178
 20
77.09922076452781
 30
0.0
 10
33.99811947933282
 20
77.09922076452781
 30
0.0
 10
35.11743174089457
 20
75.97956399319027
 30
0.0
 10
35.11743174089457
 20
74.59876881179922
 30
0.0
  0
SPLINE
  5
A5
330
97
100
AcDbEntity
  8
Layer 1
 62
     7
370
    35
100
AcDbSpline
210
0.0
220
0.0
230
1.0
 70
    11
 71
     3
 72
    17
 73
    13
 74
     0
 42
0.0000000001
 43
0.0000000001
 40
0.0
 40
0.0
 40
0.0
 40
0.0
 40
1.0
 40
1.0
 40
1.0
 40
2.0
 40
2.0
 40
2.0
 40
3.0
 40
3.0
 40
3.0
 40
4.0
 40
4.0
 40
4.0
 40
4.0
 10
185.9012646271465
 20
241.3509743159793
 30
0.0
 10
185.9012646271465
 20
239.9701791345883
 30
0.0
 10
184.7819523655847
 20
238.8508668730265
 30
0.0
 10
183.4015016939695
 20
238.8508668730265
 30
0.0
 10
182.0207065125784
 20
238.8508668730265
 30
0.0
 10
180.9013942510167
 20
239.9701791345883
 30
0.0
 10
180.9013942510167
 20
241.3509743159793
 30
0.0
 10
180.9013942510167
 20
242.7317694973704
 30
0.0
 10
182.0207065125784
 20
243.8507372491563
 30
0.0
 10
183.4015016939695
 20
243.8507372491563
 30
0.0
 10
184.7819523655847
 20
243.8507372491563
 30
0.0
 10
185.9012646271465
 20
242.7317694973704
 30
0.0
 10
185.9012646271465
 20
241.3509743159793
 30
0.0
  0
SPLINE
  5
A6
330
97
100
AcDbEntity
  8
Layer 1
 62
     7
370
    35
100
AcDbSpline
210
0.0
220
0.0
230
1.0
 70
    11
 71
     3
 72
    17
 73
    13
 74
     0
 42
0.0000000001
 43
0.0000000001
 40
0.0
 40
0.0
 40
0.0
 40
0.0
 40
1.0
 40
1.0
 40
1.0
 40
2.0
 40
2.0
 40
2.0
 40
3.0
 40
3.0
 40
3.0
 40
4.0
 40
4.0
 40
4.0
 40
4.0
 10
185.9012646271465
 20
74.59876881179922
 30
0.0
 10
185.9012646271465
 20
73.21866264995977
 30
0.0
 10
184.7819523655847
 20
72.09900587862222
 30
0.0
 10
183.4015016939695
 20
72.09900587862222
 30
0.0
 10
182.0207065125784
 20
72.09900587862222
 30
0.0
 10
180.9013942510167
 20
73.21866264995977
 30
0.0
 10
180.9013942510167
 20
74.59876881179922
 30
0.0
 10
180.9013942510167
 20
75.97956399319027
 30
0.0
 10
182.0207065125784
 20
77.09922076452781
 30
0.0
 10
183.4015016939695
 20
77.09922076452781
 30
0.0
 10
184.7819523655847
 20
77.09922076452781
 30
0.0
 10
185.9012646271465
 20
75.97956399319027
 30
0.0
 10
185.9012646271465
 20
74.59876881179922
 30
0.0
  0
POLYLINE
  5
A7
330
97
100
AcDbEntity
  8
Layer 1
 62
     7
370
    35
100
AcDb2dPolyline
 66
     1
 10
0.0
 20
0.0
 30
0.0
  0
VERTEX
  5
A8
330
A7
100
AcDbEntity
  8
Layer 1
 62
     7
370
    35
100
AcDbVertex
100
AcDb2dVertex
 10
220.3553427947455
 20
93.45585589977831
 30
0.0
  0
VERTEX
  5
A9
330
A7
100
AcDbEntity
  8
Layer 1
 62
     7
370
    35
100
AcDbVertex
100
AcDb2dVertex
 10
220.3553427947455
 20
12.91704953370155
 30
0.0
  0
SEQEND
  5
AA
330
A7
100
AcDbEntity
  8
Layer 1
370
    35
  0
POLYLINE
  5
AB
330
97
100
AcDbEntity
  8
Layer 1
 62
     7
370
    35
100
AcDb2dPolyline
 66
     1
 10
0.0
 20
0.0
 30
0.0
  0
VERTEX
  5
AC
330
AB
100
AcDbEntity
  8
Layer 1
 62
     7
370
    35
100
AcDbVertex
100
AcDb2dVertex
 10
227.2551845843912
 20
68.25668834916755
 30
0.0
  0
VERTEX
  5
AD
330
AB
100
AcDbEntity
  8
Layer 1
 62
     7
370
    35
100
AcDbVertex
100
AcDb2dVertex
 10
222.2553142082614
 20
68.25668834916755
 30
0.0
  0
VERTEX
  5
AE
330
AB
100
AcDbEntity
  8
Layer 1
 62
     7
370
    35
100
AcDbVertex
100
AcDb2dVertex
 10
222.2553142082614
 20
81.53099452036973
 30
0.0
  0
VERTEX
  5
AF
330
AB
100
AcDbEntity
  8
Layer 1
 62
     7
370
    35
100
AcDbVertex
100
AcDb2dVertex
 10
227.2551845843912
 20
81.53099452036973
 30
0.0
  0
VERTEX
  5
B0
330
AB
100
AcDbEntity
  8
Layer 1
 62
     7
370
    35
100
AcDbVertex
100
AcDb2dVertex
 10
227.2551845843912
 20
68.25668834916755
 30
0.0
  0
SEQEND
  5
B1
330
AB
100
AcDbEntity
  8
Layer 1
370
    35
  0
POLYLINE
  5
B2
330
97
100
AcDbEntity
  8
Layer 1
 62
     7
370
    35
100
AcDb2dPolyline
 66
     1
 10
0.0
 20
0.0
 30
0.0
  0
VERTEX
  5
B3
330
B2
100
AcDbEntity
  8
Layer 1
 62
     7
370
    35
100
AcDbVertex
100
AcDb2dVertex
 10
420.8662334840801
 20
68.25668834916755
 30
0.0
  0
VERTEX
  5
B4
330
B2
100
AcDbEntity
  8
Layer 1
 62
     7
370
    35
100
AcDbVertex
100
AcDb2dVertex
 10
415.8667076177261
 20
68.25668834916755
 30
0.0
  0
VERTEX
  5
B5
330
B2
100
AcDbEntity
  8
Layer 1
 62
     7
370
    35
100
AcDbVertex
100
AcDb2dVertex
 10
415.8667076177261
 20
81.53099452036973
 30
0.0
  0
VERTEX
  5
B6
330
B2
100
AcDbEntity
  8
Layer 1
 62
     7
370
    35
100
AcDbVertex
100
AcDb2dVertex
 10
420.8662334840801
 20
81.53099452036973
 30
0.0
  0
VERTEX
  5
B7
330
B2
100
AcDbEntity
  8
Layer 1
 62
     7
370
    35
100
AcDbVertex
100
AcDb2dVertex
 10
420.8662334840801
 20
68.25668834916755
 30
0.0
  0
SEQEND
  5
B8
330
B2
100
AcDbEntity
  8
Layer 1
370
    35
  0
POLYLINE
  5
B9
330
97
100
AcDbEntity
  8
Layer 1
 62
     7
370
    35
100
AcDb2dPolyline
 66
     1
 10
0.0
 20
0.0
 30
0.0
  0
VERTEX
  5
BA
330
B9
100
AcDbEntity
  8
Layer 1
 62
     7
370
    35
100
AcDbVertex
100
AcDb2dVertex
 10
422.8120246977769
 20
93.53991628507258
 30
0.0
  0
VERTEX
  5
BB
330
B9
100
AcDbEntity
  8
Layer 1
 62
     7
370
    35
100
AcDbVertex
100
AcDb2dVertex
 10
422.8120246977769
 20
12.75926405638691
 30
0.0
  0
SEQEND
  5
BC
330
B9
100
AcDbEntity
  8
Layer 1
370
    35
  0
POLYLINE
  5
BD
330
97
100
AcDbEntity
  8
Layer 1
 62
     7
370
    35
100
AcDb2dPolyline
 66
     1
 10
0.0
 20
0.0
 30
0.0
  0
VERTEX
  5
BE
330
BD
100
AcDbEntity
  8
Layer 1
 62
     7
370
    35
100
AcDbVertex
100
AcDb2dVertex
 10
227.2779222295937
 20
44.04557483554019
 30
0.0
  0
VERTEX
  5
BF
330
BD
100
AcDbEntity
  8
Layer 1
 62
     7
370
    35
100
AcDbVertex
100
AcDb2dVertex
 10
222.2783963632397
 20
44.04557483554019
 30
0.0
  0
VERTEX
  5
C0
330
BD
100
AcDbEntity
  8
Layer 1
 62
     7
370
    35
100
AcDbVertex
100
AcDb2dVertex
 10
222.2783963632397
 20
57.32057002629396
 30
0.0
  0
VERTEX
  5
C1
330
BD
100
AcDbEntity
  8
Layer 1
 62
     7
370
    35
100
AcDbVertex
100
AcDb2dVertex
 10
227.2779222295937
 20
57.32057002629396
 30
0.0
  0
VERTEX
  5
C2
330
BD
100
AcDbEntity
  8
Layer 1
 62
     7
370
    35
100
AcDbVertex
100
AcDb2dVertex
 10
227.2779222295937
 20
44.04557483554019
 30
0.0
  0
SEQEND
  5
C3
330
BD
100
AcDbEntity
  8
Layer 1
370
    35
  0
POLYLINE
  5
C4
330
97
100
AcDbEntity
  8
Layer 1
 62
     7
370
    35
100
AcDb2dPolyline
 66
     1
 10
0.0
 20
0.0
 30
0.0
  0
VERTEX
  5
C5
330
C4
100
AcDbEntity
  8
Layer 1
 62
     7
370
    35
100
AcDbVertex
100
AcDb2dVertex
 10
420.8889711292827
 20
44.04557483554019
 30
0.0
  0
VERTEX
  5
C6
330
C4
100
AcDbEntity
  8
Layer 1
 62
     7
370
    35
100
AcDbVertex
100
AcDb2dVertex
 10
415.8894452629287
 20
44.04557483554019
 30
0.0
  0
VERTEX
  5
C7
330
C4
100
AcDbEntity
  8
Layer 1
 62
     7
370
    35
100
AcDbVertex
100
AcDb2dVertex
 10
415.8894452629287
 20
57.32057002629396
 30
0.0
  0
VERTEX
  5
C8
330
C4
100
AcDbEntity
  8
Layer 1
 62
     7
370
    35
100
AcDbVertex
100
AcDb2dVertex
 10
420.8889711292827
 20
57.32057002629396
 30
0.0
  0
VERTEX
  5
C9
330
C4
100
AcDbEntity
  8
Layer 1
 62
     7
370
    35
100
AcDbVertex
100
AcDb2dVertex
 10
420.8889711292827
 20
44.04557483554019
 30
0.0
  0
SEQEND
  5
CA
330
C4
100
AcDbEntity
  8
Layer 1
370
    35
  0
POLYLINE
  5
CB
330
97
100
AcDbEntity
  8
Layer 1
 62
     7
370
    35
100
AcDb2dPolyline
 66
     1
 10
0.0
 20
0.0
 30
0.0
  0
VERTEX
  5
CC
330
CB
100
AcDbEntity
  8
Layer 1
 62
     7
370
    35
100
AcDbVertex
100
AcDb2dVertex
 10
227.2779222295937
 20
20.72295203369115
 30
0.0
  0
VERTEX
  5
CD
330
CB
100
AcDbEntity
  8
Layer 1
 62
     7
370
    35
100
AcDbVertex
100
AcDb2dVertex
 10
222.2783963632397
 20
20.72295203369115
 30
0.0
  0
VERTEX
  5
CE
330
CB
100
AcDbEntity
  8
Layer 1
 62
     7
370
    35
100
AcDbVertex
100
AcDb2dVertex
 10
222.2783963632397
 20
33.99760271466913
 30
0.0
  0
VERTEX
  5
CF
330
CB
100
AcDbEntity
  8
Layer 1
 62
     7
370
    35
100
AcDbVertex
100
AcDb2dVertex
 10
227.2779222295937
 20
33.99760271466913
 30
0.0
  0
VERTEX
  5
D0
330
CB
100
AcDbEntity
  8
Layer 1
 62
     7
370
    35
100
AcDbVertex
100
AcDb2dVertex
 10
227.2779222295937
 20
20.72295203369115
 30
0.0
  0
SEQEND
  5
D1
330
CB
100
AcDbEntity
  8
Layer 1
370
    35
  0
POLYLINE
  5
D2
330
97
100
AcDbEntity
  8
Layer 1
 62
     7
370
    35
100
AcDb2dPolyline
 66
     1
 10
0.0
 20
0.0
 30
0.0
  0
VERTEX
  5
D3
330
D2
100
AcDbEntity
  8
Layer 1
 62
     7
370
    35
100
AcDbVertex
100
AcDb2dVertex
 10
420.8889711292827
 20
20.72295203369115
 30
0.0
  0
VERTEX
  5
D4
330
D2
100
AcDbEntity
  8
Layer 1
 62
     7
370
    35
100
AcDbVertex
100
AcDb2dVertex
 10
415.8894452629287
 20
20.72295203369115
 30
0.0
  0
VERTEX
  5
D5
330
D2
100
AcDbEntity
  8
Layer 1
 62
     7
370
    35
100
AcDbVertex
100
AcDb2dVertex
 10
415.8894452629287
 20
33.99760271466913
 30
0.0
  0
VERTEX
  5
D6
330
D2
100
AcDbEntity
  8
Layer 1
 62
     7
370
    35
100
AcDbVertex
100
AcDb2dVertex
 10
420.8889711292827
 20
33.99760271466913
 30
0.0
  0
VERTEX
  5
D7
330
D2
100
AcDbEntity
  8
Layer 1
 62
     7
370
    35
100
AcDbVertex
100
AcDb2dVertex
 10
420.8889711292827
 20
20.72295203369115
 30
0.0
  0
SEQEND
  5
D8
330
D2
100
AcDbEntity
  8
Layer 1
370
    35
  0
POLYLINE
  5
D9
330
97
100
AcDbEntity
  8
Layer 1
 62
     7
370
    35
100
AcDb2dPolyline
 66
     1
 10
0.0
 20
0.0
 30
0.0
  0
VERTEX
  5
DA
330
D9
100
AcDbEntity
  8
Layer 1
 62
     7
370
    35
100
AcDbVertex
100
AcDb2dVertex
 10
220.3553427947455
 20
93.45585589977831
 30
0.0
  0
VERTEX
  5
DB
330
D9
100
AcDbEntity
  8
Layer 1
 62
     7
370
    35
100
AcDbVertex
100
AcDb2dVertex
 10
229.0642054170969
 20
93.27188767950317
 30
0.0
  0
SEQEND
  5
DC
330
D9
100
AcDbEntity
  8
Layer 1
370
    35
  0
POLYLINE
  5
DD
330
97
100
AcDbEntity
  8
Layer 1
 62
     7
370
    35
100
AcDb2dPolyline
 66
     1
 10
0.0
 20
0.0
 30
0.0
  0
VERTEX
  5
DE
330
DD
100
AcDbEntity
  8
Layer 1
 62
     7
370
    35
100
AcDbVertex
100
AcDb2dVertex
 10
229.0642054170969
 20
93.27188767950317
 30
0.0
  0
VERTEX
  5
DF
330
DD
100
AcDbEntity
  8
Layer 1
 62
     7
370
    35
100
AcDbVertex
100
AcDb2dVertex
 10
229.0642054170969
 20
98.27210256540876
 30
0.0
  0
SEQEND
  5
E0
330
DD
100
AcDbEntity
  8
Layer 1
370
    35
  0
POLYLINE
  5
E1
330
97
100
AcDbEntity
  8
Layer 1
 62
     7
370
    35
100
AcDb2dPolyline
 66
     1
 10
0.0
 20
0.0
 30
0.0
  0
VERTEX
  5
E2
330
E1
100
AcDbEntity
  8
Layer 1
 62
     7
370
    35
100
AcDbVertex
100
AcDb2dVertex
 10
229.0642054170969
 20
98.27210256540876
 30
0.0
  0
VERTEX
  5
E3
330
E1
100
AcDbEntity
  8
Layer 1
 62
     7
370
    35
100
AcDbVertex
100
AcDb2dVertex
 10
249.3299929783065
 20
98.27210256540876
 30
0.0
  0
SEQEND
  5
E4
330
E1
100
AcDbEntity
  8
Layer 1
370
    35
  0
POLYLINE
  5
E5
330
97
100
AcDbEntity
  8
Layer 1
 62
     7
370
    35
100
AcDb2dPolyline
 66
     1
 10
0.0
 20
0.0
 30
0.0
  0
VERTEX
  5
E6
330
E5
100
AcDbEntity
  8
Layer 1
 62
     7
370
    35
100
AcDbVertex
100
AcDb2dVertex
 10
249.3299929783065
 20
98.27210256540876
 30
0.0
  0
VERTEX
  5
E7
330
E5
100
AcDbEntity
  8
Layer 1
 62
     7
370
    35
100
AcDbVertex
100
AcDb2dVertex
 10
249.3299929783065
 20
93.27188767950317
 30
0.0
  0
SEQEND
  5
E8
330
E5
100
AcDbEntity
  8
Layer 1
370
    35
  0
POLYLINE
  5
E9
330
97
100
AcDbEntity
  8
Layer 1
 62
     7
370
    35
100
AcDb2dPolyline
 66
     1
 10
0.0
 20
0.0
 30
0.0
  0
VERTEX
  5
EA
330
E9
100
AcDbEntity
  8
Layer 1
 62
     7
370
    35
100
AcDbVertex
100
AcDb2dVertex
 10
249.3299929783065
 20
93.27188767950317
 30
0.0
  0
VERTEX
  5
EB
330
E9
100
AcDbEntity
  8
Layer 1
 62
     7
370
    35
100
AcDbVertex
100
AcDb2dVertex
 10
269.0059798033531
 20
93.27188767950317
 30
0.0
  0
SEQEND
  5
EC
330
E9
100
AcDbEntity
  8
Layer 1
370
    35
  0
POLYLINE
  5
ED
330
97
100
AcDbEntity
  8
Layer 1
 62
     7
370
    35
100
AcDb2dPolyline
 66
     1
 10
0.0
 20
0.0
 30
0.0
  0
VERTEX
  5
EE
330
ED
100
AcDbEntity
  8
Layer 1
 62
     7
370
    35
100
AcDbVertex
100
AcDb2dVertex
 10
269.0059798033531
 20
93.27188767950317
 30
0.0
  0
VERTEX
  5
EF
330
ED
100
AcDbEntity
  8
Layer 1
 62
     7
370
    35
100
AcDbVertex
100
AcDb2dVertex
 10
269.0059798033531
 20
98.27210256540876
 30
0.0
  0
SEQEND
  5
F0
330
ED
100
AcDbEntity
  8
Layer 1
370
    35
  0
POLYLINE
  5
F1
330
97
100
AcDbEntity
  8
Layer 1
 62
     7
370
    35
100
AcDb2dPolyline
 66
     1
 10
0.0
 20
0.0
 30
0.0
  0
VERTEX
  5
F2
330
F1
100
AcDbEntity
  8
Layer 1
 62
     7
370
    35
100
AcDbVertex
100
AcDb2dVertex
 10
269.0059798033531
 20
98.27210256540876
 30
0.0
  0
VERTEX
  5
F3
330
F1
100
AcDbEntity
  8
Layer 1
 62
     7
370
    35
100
AcDbVertex
100
AcDb2dVertex
 10
289.0058058176481
 20
98.27210256540876
 30
0.0
  0
SEQEND
  5
F4
330
F1
100
AcDbEntity
  8
Layer 1
370
    35
  0
POLYLINE
  5
F5
330
97
100
AcDbEntity
  8
Layer 1
 62
     7
370
    35
100
AcDb2dPolyline
 66
     1
 10
0.0
 20
0.0
 30
0.0
  0
VERTEX
  5
F6
330
F5
100
AcDbEntity
  8
Layer 1
 62
     7
370
    35
100
AcDbVertex
100
AcDb2dVertex
 10
289.0058058176481
 20
98.27210256540876
 30
0.0
  0
VERTEX
  5
F7
330
F5
100
AcDbEntity
  8
Layer 1
 62
     7
370
    35
100
AcDbVertex
100
AcDb2dVertex
 10
289.0058058176481
 20
93.27188767950317
 30
0.0
  0
SEQEND
  5
F8
330
F5
100
AcDbEntity
  8
Layer 1
370
    35
  0
POLYLINE
  5
F9
330
97
100
AcDbEntity
  8
Layer 1
 62
     7
370
    35
100
AcDb2dPolyline
 66
     1
 10
0.0
 20
0.0
 30
0.0
  0
VERTEX
  5
FA
330
F9
100
AcDbEntity
  8
Layer 1
 62
     7
370
    35
100
AcDbVertex
100
AcDb2dVertex
 10
289.0058058176481
 20
93.27188767950317
 30
0.0
  0
VERTEX
  5
FB
330
F9
100
AcDbEntity
  8
Layer 1
 62
     7
370
    35
100
AcDbVertex
100
AcDb2dVertex
 10
309.1141524113189
 20
93.27188767950317
 30
0.0
  0
SEQEND
  5
FC
330
F9
100
AcDbEntity
  8
Layer 1
370
    35
  0
POLYLINE
  5
FD
330
97
100
AcDbEntity
  8
Layer 1
 62
     7
370
    35
100
AcDb2dPolyline
 66
     1
 10
0.0
 20
0.0
 30
0.0
  0
VERTEX
  5
FE
330
FD
100
AcDbEntity
  8
Layer 1
 62
     7
370
    35
100
AcDbVertex
100
AcDb2dVertex
 10
309.1141524113189
 20
93.27188767950317
 30
0.0
  0
VERTEX
  5
FF
330
FD
100
AcDbEntity
  8
Layer 1
 62
     7
370
    35
100
AcDbVertex
100
AcDb2dVertex
 10
309.1141524113189
 20
98.27210256540876
 30
0.0
  0
SEQEND
  5
100
330
FD
100
AcDbEntity
  8
Layer 1
370
    35
  0
POLYLINE
  5
101
330
97
100
AcDbEntity
  8
Layer 1
 62
     7
370
    35
100
AcDb2dPolyline
 66
     1
 10
0.0
 20
0.0
 30
0.0
  0
VERTEX
  5
102
330
101
100
AcDbEntity
  8
Layer 1
 62
     7
370
    35
100
AcDbVertex
100
AcDb2dVertex
 10
309.1141524113189
 20
98.27210256540876
 30
0.0
  0
VERTEX
  5
103
330
101
100
AcDbEntity
  8
Layer 1
 62
     7
370
    35
100
AcDbVertex
100
AcDb2dVertex
 10
329.1143229353897
 20
98.27210256540876
 30
0.0
  0
SEQEND
  5
104
330
101
100
AcDbEntity
  8
Layer 1
370
    35
  0
POLYLINE
  5
105
330
97
100
AcDbEntity
  8
Layer 1
 62
     7
370
    35
100
AcDb2dPolyline
 66
     1
 10
0.0
 20
0.0
 30
0.0
  0
VERTEX
  5
106
330
105
100
AcDbEntity
  8
Layer 1
 62
     7
370
    35
100
AcDbVertex
100
AcDb2dVertex
 10
329.1143229353897
 20
98.27210256540876
 30
0.0
  0
VERTEX
  5
107
330
105
100
AcDbEntity
  8
Layer 1
 62
     7
370
    35
100
AcDbVertex
100
AcDb2dVertex
 10
329.1143229353897
 20
93.27188767950317
 30
0.0
  0
SEQEND
  5
108
330
105
100
AcDbEntity
  8
Layer 1
370
    35
  0
POLYLINE
  5
109
330
97
100
AcDbEntity
  8
Layer 1
 62
     7
370
    35
100
AcDb2dPolyline
 66
     1
 10
0.0
 20
0.0
 30
0.0
  0
VERTEX
  5
10A
330
109
100
AcDbEntity
  8
Layer 1
 62
     7
370
    35
100
AcDbVertex
100
AcDb2dVertex
 10
329.1143229353897
 20
93.27188767950317
 30
0.0
  0
VERTEX
  5
10B
330
109
100
AcDbEntity
  8
Layer 1
 62
     7
370
    35
100
AcDbVertex
100
AcDb2dVertex
 10
348.8561111276133
 20
93.27188767950317
 30
0.0
  0
SEQEND
  5
10C
330
109
100
AcDbEntity
  8
Layer 1
370
    35
  0
POLYLINE
  5
10D
330
97
100
AcDbEntity
  8
Layer 1
 62
     7
370
    35
100
AcDb2dPolyline
 66
     1
 10
0.0
 20
0.0
 30
0.0
  0
VERTEX
  5
10E
330
10D
100
AcDbEntity
  8
Layer 1
 62
     7
370
    35
100
AcDbVertex
100
AcDb2dVertex
 10
348.8561111276133
 20
93.27188767950317
 30
0.0
  0
VERTEX
  5
10F
330
10D
100
AcDbEntity
  8
Layer 1
 62
     7
370
    35
100
AcDbVertex
100
AcDb2dVertex
 10
348.8561111276133
 20
98.27210256540876
 30
0.0
  0
SEQEND
  5
110
330
10D
100
AcDbEntity
  8
Layer 1
370
    35
  0
POLYLINE
  5
111
330
97
100
AcDbEntity
  8
Layer 1
 62
     7
370
    35
100
AcDb2dPolyline
 66
     1
 10
0.0
 20
0.0
 30
0.0
  0
VERTEX
  5
112
330
111
100
AcDbEntity
  8
Layer 1
 62
     7
370
    35
100
AcDbVertex
100
AcDb2dVertex
 10
348.8561111276133
 20
98.27210256540876
 30
0.0
  0
VERTEX
  5
113
330
111
100
AcDbEntity
  8
Layer 1
 62
     7
370
    35
100
AcDbVertex
100
AcDb2dVertex
 10
368.8555926321325
 20
98.27210256540876
 30
0.0
  0
SEQEND
  5
114
330
111
100
AcDbEntity
  8
Layer 1
370
    35
  0
POLYLINE
  5
115
330
97
100
AcDbEntity
  8
Layer 1
 62
     7
370
    35
100
AcDb2dPolyline
 66
     1
 10
0.0
 20
0.0
 30
0.0
  0
VERTEX
  5
116
330
115
100
AcDbEntity
  8
Layer 1
 62
     7
370
    35
100
AcDbVertex
100
AcDb2dVertex
 10
368.8555926321325
 20
98.27210256540876
 30
0.0
  0
VERTEX
  5
117
330
115
100
AcDbEntity
  8
Layer 1
 62
     7
370
    35
100
AcDbVertex
100
AcDb2dVertex
 10
368.8555926321325
 20
93.27188767950317
 30
0.0
  0
SEQEND
  5
118
330
115
100
AcDbEntity
  8
Layer 1
370
    35
  0
POLYLINE
  5
119
330
97
100
AcDbEntity
  8
Layer 1
 62
     7
370
    35
100
AcDb2dPolyline
 66
     1
 10
0.0
 20
0.0
 30
0.0
  0
VERTEX
  5
11A
330
119
100
AcDbEntity
  8
Layer 1
 62
     7
370
    35
100
AcDbVertex
100
AcDb2dVertex
 10
368.8555926321325
 20
93.27188767950317
 30
0.0
  0
VERTEX
  5
11B
330
119
100
AcDbEntity
  8
Layer 1
 62
     7
370
    35
100
AcDbVertex
100
AcDb2dVertex
 10
389.0728043149549
 20
93.27188767950317
 30
0.0
  0
SEQEND
  5
11C
330
119
100
AcDbEntity
  8
Layer 1
370
    35
  0
POLYLINE
  5
11D
330
97
100
AcDbEntity
  8
Layer 1
 62
     7
370
    35
100
AcDb2dPolyline
 66
     1
 10
0.0
 20
0.0
 30
0.0
  0
VERTEX
  5
11E
330
11D
100
AcDbEntity
  8
Layer 1
 62
     7
370
    35
100
AcDbVertex
100
AcDb2dVertex
 10
389.0728043149549
 20
93.27188767950317
 30
0.0
  0
VERTEX
  5
11F
330
11D
100
AcDbEntity
  8
Layer 1
 62
     7
370
    35
100
AcDbVertex
100
AcDb2dVertex
 10
389.0728043149549
 20
98.27210256540876
 30
0.0
  0
SEQEND
  5
120
330
11D
100
AcDbEntity
  8
Layer 1
370
    35
  0
POLYLINE
  5
121
330
97
100
AcDbEntity
  8
Layer 1
 62
     7
370
    35
100
AcDb2dPolyline
 66
     1
 10
0.0
 20
0.0
 30
0.0
  0
VERTEX
  5
122
330
121
100
AcDbEntity
  8
Layer 1
 62
     7
370
    35
100
AcDbVertex
100
AcDb2dVertex
 10
389.0728043149549
 20
98.27210256540876
 30
0.0
  0
VERTEX
  5
123
330
121
100
AcDbEntity
  8
Layer 1
 62
     7
370
    35
100
AcDbVertex
100
AcDb2dVertex
 10
409.0729748390257
 20
98.27210256540876
 30
0.0
  0
SEQEND
  5
124
330
121
100
AcDbEntity
  8
Layer 1
370
    35
  0
POLYLINE
  5
125
330
97
100
AcDbEntity
  8
Layer 1
 62
     7
370
    35
100
AcDb2dPolyline
 66
     1
 10
0.0
 20
0.0
 30
0.0
  0
VERTEX
  5
126
330
125
100
AcDbEntity
  8
Layer 1
 62
     7
370
    35
100
AcDbVertex
100
AcDb2dVertex
 10
409.0729748390257
 20
98.27210256540876
 30
0.0
  0
VERTEX
  5
127
330
125
100
AcDbEntity
  8
Layer 1
 62
     7
370
    35
100
AcDbVertex
100
AcDb2dVertex
 10
409.0729748390257
 20
93.27188767950317
 30
0.0
  0
SEQEND
  5
128
330
125
100
AcDbEntity
  8
Layer 1
370
    35
  0
POLYLINE
  5
129
330
97
100
AcDbEntity
  8
Layer 1
 62
     7
370
    35
100
AcDb2dPolyline
 66
     1
 10
0.0
 20
0.0
 30
0.0
  0
VERTEX
  5
12A
330
129
100
AcDbEntity
  8
Layer 1
 62
     7
370
    35
100
AcDbVertex
100
AcDb2dVertex
 10
409.0729748390257
 20
93.27188767950317
 30
0.0
  0
VERTEX
  5
12B
330
129
100
AcDbEntity
  8
Layer 1
 62
     7
370
    35
100
AcDbVertex
100
AcDb2dVertex
 10
422.8120246977769
 20
93.53991628507258
 30
0.0
  0
SEQEND
  5
12C
330
129
100
AcDbEntity
  8
Layer 1
370
    35
  0
POLYLINE
  5
12D
330
97
100
AcDbEntity
  8
Layer 1
 62
     7
370
    35
100
AcDb2dPolyline
 66
     1
 10
0.0
 20
0.0
 30
0.0
  0
VERTEX
  5
12E
330
12D
100
AcDbEntity
  8
Layer 1
 62
     7
370
    35
100
AcDbVertex
100
AcDb2dVertex
 10
220.3553427947455
 20
93.45585589977831
 30
0.0
  0
VERTEX
  5
12F
330
12D
100
AcDbEntity
  8
Layer 1
 62
     7
370
    35
100
AcDbVertex
100
AcDb2dVertex
 10
220.3553427947455
 20
12.91704953370155
 30
0.0
  0
SEQEND
  5
130
330
12D
100
AcDbEntity
  8
Layer 1
370
    35
  0
POLYLINE
  5
131
330
97
100
AcDbEntity
  8
Layer 1
 62
     7
370
    35
100
AcDb2dPolyline
 66
     1
 10
0.0
 20
0.0
 30
0.0
  0
VERTEX
  5
132
330
131
100
AcDbEntity
  8
Layer 1
 62
     7
370
    35
100
AcDbVertex
100
AcDb2dVertex
 10
220.3553427947455
 20
12.91704953370155
 30
0.0
  0
VERTEX
  5
133
330
131
100
AcDbEntity
  8
Layer 1
 62
     7
370
    35
100
AcDbVertex
100
AcDb2dVertex
 10
228.8833377848039
 20
12.75926405638691
 30
0.0
  0
SEQEND
  5
134
330
131
100
AcDbEntity
  8
Layer 1
370
    35
  0
POLYLINE
  5
135
330
97
100
AcDbEntity
  8
Layer 1
 62
     7
370
    35
100
AcDb2dPolyline
 66
     1
 10
0.0
 20
0.0
 30
0.0
  0
VERTEX
  5
136
330
135
100
AcDbEntity
  8
Layer 1
 62
     7
370
    35
100
AcDbVertex
100
AcDb2dVertex
 10
228.8833377848039
 20
12.75926405638691
 30
0.0
  0
VERTEX
  5
137
330
135
100
AcDbEntity
  8
Layer 1
 62
     7
370
    35
100
AcDbVertex
100
AcDb2dVertex
 10
228.8833377848039
 20
7.759738190032907
 30
0.0
  0
SEQEND
  5
138
330
135
100
AcDbEntity
  8
Layer 1
370
    35
  0
POLYLINE
  5
139
330
97
100
AcDbEntity
  8
Layer 1
 62
     7
370
    35
100
AcDb2dPolyline
 66
     1
 10
0.0
 20
0.0
 30
0.0
  0
VERTEX
  5
13A
330
139
100
AcDbEntity
  8
Layer 1
 62
     7
370
    35
100
AcDbVertex
100
AcDb2dVertex
 10
228.8833377848039
 20
7.759738190032907
 30
0.0
  0
VERTEX
  5
13B
330
139
100
AcDbEntity
  8
Layer 1
 62
     7
370
    35
100
AcDbVertex
100
AcDb2dVertex
 10
249.1491253460135
 20
7.759738190032907
 30
0.0
  0
SEQEND
  5
13C
330
139
100
AcDbEntity
  8
Layer 1
370
    35
  0
POLYLINE
  5
13D
330
97
100
AcDbEntity
  8
Layer 1
 62
     7
370
    35
100
AcDb2dPolyline
 66
     1
 10
0.0
 20
0.0
 30
0.0
  0
VERTEX
  5
13E
330
13D
100
AcDbEntity
  8
Layer 1
 62
     7
370
    35
100
AcDbVertex
100
AcDb2dVertex
 10
249.1491253460135
 20
7.759738190032907
 30
0.0
  0
VERTEX
  5
13F
330
13D
100
AcDbEntity
  8
Layer 1
 62
     7
370
    35
100
AcDbVertex
100
AcDb2dVertex
 10
249.1491253460135
 20
12.75926405638691
 30
0.0
  0
SEQEND
  5
140
330
13D
100
AcDbEntity
  8
Layer 1
370
    35
  0
POLYLINE
  5
141
330
97
100
AcDbEntity
  8
Layer 1
 62
     7
370
    35
100
AcDb2dPolyline
 66
     1
 10
0.0
 20
0.0
 30
0.0
  0
VERTEX
  5
142
330
141
100
AcDbEntity
  8
Layer 1
 62
     7
370
    35
100
AcDbVertex
100
AcDb2dVertex
 10
249.1491253460135
 20
12.75926405638691
 30
0.0
  0
VERTEX
  5
143
330
141
100
AcDbEntity
  8
Layer 1
 62
     7
370
    35
100
AcDbVertex
100
AcDb2dVertex
 10
268.8251121710601
 20
12.75926405638691
 30
0.0
  0
SEQEND
  5
144
330
141
100
AcDbEntity
  8
Layer 1
370
    35
  0
POLYLINE
  5
145
330
97
100
AcDbEntity
  8
Layer 1
 62
     7
370
    35
100
AcDb2dPolyline
 66
     1
 10
0.0
 20
0.0
 30
0.0
  0
VERTEX
  5
146
330
145
100
AcDbEntity
  8
Layer 1
 62
     7
370
    35
100
AcDbVertex
100
AcDb2dVertex
 10
268.8251121710601
 20
12.75926405638691
 30
0.0
  0
VERTEX
  5
147
330
145
100
AcDbEntity
  8
Layer 1
 62
     7
370
    35
100
AcDbVertex
100
AcDb2dVertex
 10
268.8251121710601
 20
7.759738190032907
 30
0.0
  0
SEQEND
  5
148
330
145
100
AcDbEntity
  8
Layer 1
370
    35
  0
POLYLINE
  5
149
330
97
100
AcDbEntity
  8
Layer 1
 62
     7
370
    35
100
AcDb2dPolyline
 66
     1
 10
0.0
 20
0.0
 30
0.0
  0
VERTEX
  5
14A
330
149
100
AcDbEntity
  8
Layer 1
 62
     7
370
    35
100
AcDbVertex
100
AcDb2dVertex
 10
268.8251121710601
 20
7.759738190032907
 30
0.0
  0
VERTEX
  5
14B
330
149
100
AcDbEntity
  8
Layer 1
 62
     7
370
    35
100
AcDbVertex
100
AcDb2dVertex
 10
288.8252826951309
 20
7.759738190032907
 30
0.0
  0
SEQEND
  5
14C
330
149
100
AcDbEntity
  8
Layer 1
370
    35
  0
POLYLINE
  5
14D
330
97
100
AcDbEntity
  8
Layer 1
 62
     7
370
    35
100
AcDb2dPolyline
 66
     1
 10
0.0
 20
0.0
 30
0.0
  0
VERTEX
  5
14E
330
14D
100
AcDbEntity
  8
Layer 1
 62
     7
370
    35
100
AcDbVertex
100
AcDb2dVertex
 10
288.8252826951309
 20
7.759738190032907
 30
0.0
  0
VERTEX
  5
14F
330
14D
100
AcDbEntity
  8
Layer 1
 62
     7
370
    35
100
AcDbVertex
100
AcDb2dVertex
 10
288.8252826951309
 20
12.75926405638691
 30
0.0
  0
SEQEND
  5
150
330
14D
100
AcDbEntity
  8
Layer 1
370
    35
  0
POLYLINE
  5
151
330
97
100
AcDbEntity
  8
Layer 1
 62
     7
370
    35
100
AcDb2dPolyline
 66
     1
 10
0.0
 20
0.0
 30
0.0
  0
VERTEX
  5
152
330
151
100
AcDbEntity
  8
Layer 1
 62
     7
370
    35
100
AcDbVertex
100
AcDb2dVertex
 10
288.8252826951309
 20
12.75926405638691
 30
0.0
  0
VERTEX
  5
153
330
151
100
AcDbEntity
  8
Layer 1
 62
     7
370
    35
100
AcDbVertex
100
AcDb2dVertex
 10
308.9336292888017
 20
12.75926405638691
 30
0.0
  0
SEQEND
  5
154
330
151
100
AcDbEntity
  8
Layer 1
370
    35
  0
POLYLINE
  5
155
330
97
100
AcDbEntity
  8
Layer 1
 62
     7
370
    35
100
AcDb2dPolyline
 66
     1
 10
0.0
 20
0.0
 30
0.0
  0
VERTEX
  5
156
330
155
100
AcDbEntity
  8
Layer 1
 62
     7
370
    35
100
AcDbVertex
100
AcDb2dVertex
 10
308.9336292888017
 20
12.75926405638691
 30
0.0
  0
VERTEX
  5
157
330
155
100
AcDbEntity
  8
Layer 1
 62
     7
370
    35
100
AcDbVertex
100
AcDb2dVertex
 10
308.9336292888017
 20
7.759738190032907
 30
0.0
  0
SEQEND
  5
158
330
155
100
AcDbEntity
  8
Layer 1
370
    35
  0
POLYLINE
  5
159
330
97
100
AcDbEntity
  8
Layer 1
 62
     7
370
    35
100
AcDb2dPolyline
 66
     1
 10
0.0
 20
0.0
 30
0.0
  0
VERTEX
  5
15A
330
159
100
AcDbEntity
  8
Layer 1
 62
     7
370
    35
100
AcDbVertex
100
AcDb2dVertex
 10
308.9336292888017
 20
7.759738190032907
 30
0.0
  0
VERTEX
  5
15B
330
159
100
AcDbEntity
  8
Layer 1
 62
     7
370
    35
100
AcDbVertex
100
AcDb2dVertex
 10
328.9337998128725
 20
7.759738190032907
 30
0.0
  0
SEQEND
  5
15C
330
159
100
AcDbEntity
  8
Layer 1
370
    35
  0
POLYLINE
  5
15D
330
97
100
AcDbEntity
  8
Layer 1
 62
     7
370
    35
100
AcDb2dPolyline
 66
     1
 10
0.0
 20
0.0
 30
0.0
  0
VERTEX
  5
15E
330
15D
100
AcDbEntity
  8
Layer 1
 62
     7
370
    35
100
AcDbVertex
100
AcDb2dVertex
 10
328.9337998128725
 20
7.759738190032907
 30
0.0
  0
VERTEX
  5
15F
330
15D
100
AcDbEntity
  8
Layer 1
 62
     7
370
    35
100
AcDbVertex
100
AcDb2dVertex
 10
328.9337998128725
 20
12.75926405638691
 30
0.0
  0
SEQEND
  5
160
330
15D
100
AcDbEntity
  8
Layer 1
370
    35
  0
POLYLINE
  5
161
330
97
100
AcDbEntity
  8
Layer 1
 62
     7
370
    35
100
AcDb2dPolyline
 66
     1
 10
0.0
 20
0.0
 30
0.0
  0
VERTEX
  5
162
330
161
100
AcDbEntity
  8
Layer 1
 62
     7
370
    35
100
AcDbVertex
100
AcDb2dVertex
 10
328.9337998128725
 20
12.75926405638691
 30
0.0
  0
VERTEX
  5
163
330
161
100
AcDbEntity
  8
Layer 1
 62
     7
370
    35
100
AcDbVertex
100
AcDb2dVertex
 10
348.6752434953203
 20
12.75926405638691
 30
0.0
  0
SEQEND
  5
164
330
161
100
AcDbEntity
  8
Layer 1
370
    35
  0
POLYLINE
  5
165
330
97
100
AcDbEntity
  8
Layer 1
 62
     7
370
    35
100
AcDb2dPolyline
 66
     1
 10
0.0
 20
0.0
 30
0.0
  0
VERTEX
  5
166
330
165
100
AcDbEntity
  8
Layer 1
 62
     7
370
    35
100
AcDbVertex
100
AcDb2dVertex
 10
348.6752434953203
 20
12.75926405638691
 30
0.0
  0
VERTEX
  5
167
330
165
100
AcDbEntity
  8
Layer 1
 62
     7
370
    35
100
AcDbVertex
100
AcDb2dVertex
 10
348.6752434953203
 20
7.759738190032907
 30
0.0
  0
SEQEND
  5
168
330
165
100
AcDbEntity
  8
Layer 1
370
    35
  0
POLYLINE
  5
169
330
97
100
AcDbEntity
  8
Layer 1
 62
     7
370
    35
100
AcDb2dPolyline
 66
     1
 10
0.0
 20
0.0
 30
0.0
  0
VERTEX
  5
16A
330
169
100
AcDbEntity
  8
Layer 1
 62
     7
370
    35
100
AcDbVertex
100
AcDb2dVertex
 10
348.6752434953203
 20
7.759738190032907
 30
0.0
  0
VERTEX
  5
16B
330
169
100
AcDbEntity
  8
Layer 1
 62
     7
370
    35
100
AcDbVertex
100
AcDb2dVertex
 10
368.6743804900637
 20
7.759738190032907
 30
0.0
  0
SEQEND
  5
16C
330
169
100
AcDbEntity
  8
Layer 1
370
    35
  0
POLYLINE
  5
16D
330
97
100
AcDbEntity
  8
Layer 1
 62
     7
370
    35
100
AcDb2dPolyline
 66
     1
 10
0.0
 20
0.0
 30
0.0
  0
VERTEX
  5
16E
330
16D
100
AcDbEntity
  8
Layer 1
 62
     7
370
    35
100
AcDbVertex
100
AcDb2dVertex
 10
368.6747249998395
 20
7.759738190032907
 30
0.0
  0
VERTEX
  5
16F
330
16D
100
AcDbEntity
  8
Layer 1
 62
     7
370
    35
100
AcDbVertex
100
AcDb2dVertex
 10
368.6747249998395
 20
12.75926405638691
 30
0.0
  0
SEQEND
  5
170
330
16D
100
AcDbEntity
  8
Layer 1
370
    35
  0
POLYLINE
  5
171
330
97
100
AcDbEntity
  8
Layer 1
 62
     7
370
    35
100
AcDb2dPolyline
 66
     1
 10
0.0
 20
0.0
 30
0.0
  0
VERTEX
  5
172
330
171
100
AcDbEntity
  8
Layer 1
 62
     7
370
    35
100
AcDbVertex
100
AcDb2dVertex
 10
368.6747249998395
 20
12.75926405638691
 30
0.0
  0
VERTEX
  5
173
330
171
100
AcDbEntity
  8
Layer 1
 62
     7
370
    35
100
AcDbVertex
100
AcDb2dVertex
 10
388.8919366826619
 20
12.75926405638691
 30
0.0
  0
SEQEND
  5
174
330
171
100
AcDbEntity
  8
Layer 1
370
    35
  0
POLYLINE
  5
175
330
97
100
AcDbEntity
  8
Layer 1
 62
     7
370
    35
100
AcDb2dPolyline
 66
     1
 10
0.0
 20
0.0
 30
0.0
  0
VERTEX
  5
176
330
175
100
AcDbEntity
  8
Layer 1
 62
     7
370
    35
100
AcDbVertex
100
AcDb2dVertex
 10
388.8919366826619
 20
12.75926405638691
 30
0.0
  0
VERTEX
  5
177
330
175
100
AcDbEntity
  8
Layer 1
 62
     7
370
    35
100
AcDbVertex
100
AcDb2dVertex
 10
388.8919366826619
 20
7.759738190032907
 30
0.0
  0
SEQEND
  5
178
330
175
100
AcDbEntity
  8
Layer 1
370
    35
  0
POLYLINE
  5
179
330
97
100
AcDbEntity
  8
Layer 1
 62
     7
370
    35
100
AcDb2dPolyline
 66
     1
 10
0.0
 20
0.0
 30
0.0
  0
VERTEX
  5
17A
330
179
100
AcDbEntity
  8
Layer 1
 62
     7
370
    35
100
AcDbVertex
100
AcDb2dVertex
 10
388.8919366826619
 20
7.759738190032907
 30
0.0
  0
VERTEX
  5
17B
330
179
100
AcDbEntity
  8
Layer 1
 62
     7
370
    35
100
AcDbVertex
100
AcDb2dVertex
 10
408.8921072067327
 20
7.759738190032907
 30
0.0
  0
SEQEND
  5
17C
330
179
100
AcDbEntity
  8
Layer 1
370
    35
  0
POLYLINE
  5
17D
330
97
100
AcDbEntity
  8
Layer 1
 62
     7
370
    35
100
AcDb2dPolyline
 66
     1
 10
0.0
 20
0.0
 30
0.0
  0
VERTEX
  5
17E
330
17D
100
AcDbEntity
  8
Layer 1
 62
     7
370
    35
100
AcDbVertex
100
AcDb2dVertex
 10
408.8921072067327
 20
7.759738190032907
 30
0.0
  0
VERTEX
  5
17F
330
17D
100
AcDbEntity
  8
Layer 1
 62
     7
370
    35
100
AcDbVertex
100
AcDb2dVertex
 10
408.8921072067327
 20
12.75926405638691
 30
0.0
  0
SEQEND
  5
180
330
17D
100
AcDbEntity
  8
Layer 1
370
    35
  0
POLYLINE
  5
181
330
97
100
AcDbEntity
  8
Layer 1
 62
     7
370
    35
100
AcDb2dPolyline
 66
     1
 10
0.0
 20
0.0
 30
0.0
  0
VERTEX
  5
182
330
181
100
AcDbEntity
  8
Layer 1
 62
     7
370
    35
100
AcDbVertex
100
AcDb2dVertex
 10
408.8921072067327
 20
12.75926405638691
 30
0.0
  0
VERTEX
  5
183
330
181
100
AcDbEntity
  8
Layer 1
 62
     7
370
    35
100
AcDbVertex
100
AcDb2dVertex
 10
422.8120246977769
 20
12.75926405638691
 30
0.0
  0
SEQEND
  5
184
330
181
100
AcDbEntity
  8
Layer 1
370
    35
  0
POLYLINE
  5
185
330
97
100
AcDbEntity
  8
Layer 1
 62
     7
370
    35
100
AcDb2dPolyline
 66
     1
 10
0.0
 20
0.0
 30
0.0
  0
VERTEX
  5
186
330
185
100
AcDbEntity
  8
Layer 1
 62
     7
370
    35
100
AcDbVertex
100
AcDb2dVertex
 10
219.6814816732882
 20
107.7437098313728
 30
0.0
  0
VERTEX
  5
187
330
185
100
AcDbEntity
  8
Layer 1
 62
     7
370
    35
100
AcDbVertex
100
AcDb2dVertex
 10
408.0814757042843
 20
107.7437098313728
 30
0.0
  0
SEQEND
  5
188
330
185
100
AcDbEntity
  8
Layer 1
370
    35
  0
POLYLINE
  5
189
330
97
100
AcDbEntity
  8
Layer 1
 62
     7
370
    35
100
AcDb2dPolyline
 66
     1
 10
0.0
 20
0.0
 30
0.0
  0
VERTEX
  5
18A
330
189
100
AcDbEntity
  8
Layer 1
 62
     7
370
    35
100
AcDbVertex
100
AcDb2dVertex
 10
220.0294365468423
 20
107.7437098313728
 30
0.0
  0
VERTEX
  5
18B
330
189
100
AcDbEntity
  8
Layer 1
 62
     7
370
    35
100
AcDbVertex
100
AcDb2dVertex
 10
220.0294365468423
 20
271.6401015490906
 30
0.0
  0
SEQEND
  5
18C
330
189
100
AcDbEntity
  8
Layer 1
370
    35
  0
POLYLINE
  5
18D
330
97
100
AcDbEntity
  8
Layer 1
 62
     7
370
    35
100
AcDb2dPolyline
 66
     1
 10
0.0
 20
0.0
 30
0.0
  0
VERTEX
  5
18E
330
18D
100
AcDbEntity
  8
Layer 1
 62
     7
370
    35
100
AcDbVertex
100
AcDb2dVertex
 10
408.0814757042843
 20
107.7437098313728
 30
0.0
  0
VERTEX
  5
18F
330
18D
100
AcDbEntity
  8
Layer 1
 62
     7
370
    35
100
AcDbVertex
100
AcDb2dVertex
 10
408.0814757042843
 20
271.6401015490906
 30
0.0
  0
SEQEND
  5
190
330
18D
100
AcDbEntity
  8
Layer 1
370
    35
  0
POLYLINE
  5
191
330
97
100
AcDbEntity
  8
Layer 1
 62
     7
370
    35
100
AcDb2dPolyline
 66
     1
 10
0.0
 20
0.0
 30
0.0
  0
VERTEX
  5
192
330
191
100
AcDbEntity
  8
Layer 1
 62
     7
370
    35
100
AcDbVertex
100
AcDb2dVertex
 10
219.6814816732882
 20
271.6402738039785
 30
0.0
  0
VERTEX
  5
193
330
191
100
AcDbEntity
  8
Layer 1
 62
     7
370
    35
100
AcDbVertex
100
AcDb2dVertex
 10
408.0814757042843
 20
271.6402738039785
 30
0.0
  0
SEQEND
  5
194
330
191
100
AcDbEntity
  8
Layer 1
370
    35
  0
POLYLINE
  5
195
330
97
100
AcDbEntity
  8
Layer 1
 62
     7
370
    35
100
AcDb2dPolyline
 66
     1
 10
0.0
 20
0.0
 30
0.0
  0
VERTEX
  5
196
330
195
100
AcDbEntity
  8
Layer 1
 62
     7
370
    35
100
AcDbVertex
100
AcDb2dVertex
 10
282.1169883408279
 20
263.443697218236
 30
0.0
  0
VERTEX
  5
197
330
195
100
AcDbEntity
  8
Layer 1
 62
     7
370
    35
100
AcDbVertex
100
AcDb2dVertex
 10
262.1168178167571
 20
263.443697218236
 30
0.0
  0
VERTEX
  5
198
330
195
100
AcDbEntity
  8
Layer 1
 62
     7
370
    35
100
AcDbVertex
100
AcDb2dVertex
 10
262.1168178167571
 20
268.4439121041416
 30
0.0
  0
VERTEX
  5
199
330
195
100
AcDbEntity
  8
Layer 1
 62
     7
370
    35
100
AcDbVertex
100
AcDb2dVertex
 10
282.1169883408279
 20
268.4439121041416
 30
0.0
  0
VERTEX
  5
19A
330
195
100
AcDbEntity
  8
Layer 1
 62
     7
370
    35
100
AcDbVertex
100
AcDb2dVertex
 10
282.1169883408279
 20
263.443697218236
 30
0.0
  0
SEQEND
  5
19B
330
195
100
AcDbEntity
  8
Layer 1
370
    35
  0
POLYLINE
  5
19C
330
97
100
AcDbEntity
  8
Layer 1
 62
     7
370
    35
100
AcDb2dPolyline
 66
     1
 10
0.0
 20
0.0
 30
0.0
  0
VERTEX
  5
19D
330
19C
100
AcDbEntity
  8
Layer 1
 62
     7
370
    35
100
AcDbVertex
100
AcDb2dVertex
 10
242.1166472926863
 20
263.443697218236
 30
0.0
  0
VERTEX
  5
19E
330
19C
100
AcDbEntity
  8
Layer 1
 62
     7
370
    35
100
AcDbVertex
100
AcDb2dVertex
 10
222.1164767686155
 20
263.443697218236
 30
0.0
  0
VERTEX
  5
19F
330
19C
100
AcDbEntity
  8
Layer 1
 62
     7
370
    35
100
AcDbVertex
100
AcDb2dVertex
 10
222.1164767686155
 20
268.4439121041416
 30
0.0
  0
VERTEX
  5
1A0
330
19C
100
AcDbEntity
  8
Layer 1
 62
     7
370
    35
100
AcDbVertex
100
AcDb2dVertex
 10
242.1166472926863
 20
268.4439121041416
 30
0.0
  0
VERTEX
  5
1A1
330
19C
100
AcDbEntity
  8
Layer 1
 62
     7
370
    35
100
AcDbVertex
100
AcDb2dVertex
 10
242.1166472926863
 20
263.443697218236
 30
0.0
  0
SEQEND
  5
1A2
330
19C
100
AcDbEntity
  8
Layer 1
370
    35
  0
POLYLINE
  5
1A3
330
97
100
AcDbEntity
  8
Layer 1
 62
     7
370
    35
100
AcDb2dPolyline
 66
     1
 10
0.0
 20
0.0
 30
0.0
  0
VERTEX
  5
1A4
330
1A3
100
AcDbEntity
  8
Layer 1
 62
     7
370
    35
100
AcDbVertex
100
AcDb2dVertex
 10
322.1173293889694
 20
263.528274368194
 30
0.0
  0
VERTEX
  5
1A5
330
1A3
100
AcDbEntity
  8
Layer 1
 62
     7
370
    35
100
AcDbVertex
100
AcDb2dVertex
 10
302.1171588648987
 20
263.528274368194
 30
0.0
  0
VERTEX
  5
1A6
330
1A3
100
AcDbEntity
  8
Layer 1
 62
     7
370
    35
100
AcDbVertex
100
AcDb2dVertex
 10
302.1171588648987
 20
268.5283169992117
 30
0.0
  0
VERTEX
  5
1A7
330
1A3
100
AcDbEntity
  8
Layer 1
 62
     7
370
    35
100
AcDbVertex
100
AcDb2dVertex
 10
322.1173293889694
 20
268.5283169992117
 30
0.0
  0
VERTEX
  5
1A8
330
1A3
100
AcDbEntity
  8
Layer 1
 62
     7
370
    35
100
AcDbVertex
100
AcDb2dVertex
 10
322.1173293889694
 20
263.528274368194
 30
0.0
  0
SEQEND
  5
1A9
330
1A3
100
AcDbEntity
  8
Layer 1
370
    35
  0
POLYLINE
  5
1AA
330
97
100
AcDbEntity
  8
Layer 1
 62
     7
370
    35
100
AcDb2dPolyline
 66
     1
 10
0.0
 20
0.0
 30
0.0
  0
VERTEX
  5
1AB
330
1AA
100
AcDbEntity
  8
Layer 1
 62
     7
370
    35
100
AcDbVertex
100
AcDb2dVertex
 10
361.7648924266958
 20
263.528274368194
 30
0.0
  0
VERTEX
  5
1AC
330
1AA
100
AcDbEntity
  8
Layer 1
 62
     7
370
    35
100
AcDbVertex
100
AcDb2dVertex
 10
341.7650664124008
 20
263.528274368194
 30
0.0
  0
VERTEX
  5
1AD
330
1AA
100
AcDbEntity
  8
Layer 1
 62
     7
370
    35
100
AcDbVertex
100
AcDb2dVertex
 10
341.7650664124008
 20
268.5283169992117
 30
0.0
  0
VERTEX
  5
1AE
330
1AA
100
AcDbEntity
  8
Layer 1
 62
     7
370
    35
100
AcDbVertex
100
AcDb2dVertex
 10
361.7648924266958
 20
268.5283169992117
 30
0.0
  0
VERTEX
  5
1AF
330
1AA
100
AcDbEntity
  8
Layer 1
 62
     7
370
    35
100
AcDbVertex
100
AcDb2dVertex
 10
361.7648924266958
 20
263.528274368194
 30
0.0
  0
SEQEND
  5
1B0
330
1AA
100
AcDbEntity
  8
Layer 1
370
    35
  0
POLYLINE
  5
1B1
330
97
100
AcDbEntity
  8
Layer 1
 62
     7
370
    35
100
AcDb2dPolyline
 66
     1
 10
0.0
 20
0.0
 30
0.0
  0
VERTEX
  5
1B2
330
1B1
100
AcDbEntity
  8
Layer 1
 62
     7
370
    35
100
AcDbVertex
100
AcDb2dVertex
 10
401.6439660337571
 20
263.443697218236
 30
0.0
  0
VERTEX
  5
1B3
330
1B1
100
AcDbEntity
  8
Layer 1
 62
     7
370
    35
100
AcDbVertex
100
AcDb2dVertex
 10
382.1178409611818
 20
263.443697218236
 30
0.0
  0
VERTEX
  5
1B4
330
1B1
100
AcDbEntity
  8
Layer 1
 62
     7
370
    35
100
AcDbVertex
100
AcDb2dVertex
 10
382.1178409611818
 20
268.4439121041416
 30
0.0
  0
VERTEX
  5
1B5
330
1B1
100
AcDbEntity
  8
Layer 1
 62
     7
370
    35
100
AcDbVertex
100
AcDb2dVertex
 10
401.6439660337571
 20
268.4439121041416
 30
0.0
  0
VERTEX
  5
1B6
330
1B1
100
AcDbEntity
  8
Layer 1
 62
     7
370
    35
100
AcDbVertex
100
AcDb2dVertex
 10
401.6439660337571
 20
263.443697218236
 30
0.0
  0
SEQEND
  5
1B7
330
1B1
100
AcDbEntity
  8
Layer 1
370
    35
  0
POLYLINE
  5
1B8
330
97
100
AcDbEntity
  8
Layer 1
 62
     7
370
    35
100
AcDb2dPolyline
 66
     1
 10
0.0
 20
0.0
 30
0.0
  0
VERTEX
  5
1B9
330
1B8
100
AcDbEntity
  8
Layer 1
 62
     7
370
    35
100
AcDbVertex
100
AcDb2dVertex
 10
159.2968417010631
 20
95.77165061268016
 30
0.0
  0
VERTEX
  5
1BA
330
1B8
100
AcDbEntity
  8
Layer 1
 62
     7
370
    35
100
AcDbVertex
100
AcDb2dVertex
 10
30.11738910987688
 20
95.77165061268016
 30
0.0
  0
VERTEX
  5
1BB
330
1B8
100
AcDbEntity
  8
Layer 1
 62
     7
370
    35
100
AcDbVertex
100
AcDb2dVertex
 10
30.11738910987688
 20
171.1030194627099
 30
0.0
  0
VERTEX
  5
1BC
330
1B8
100
AcDbEntity
  8
Layer 1
 62
     7
370
    35
100
AcDbVertex
100
AcDb2dVertex
 10
159.2968417010631
 20
171.1030194627099
 30
0.0
  0
VERTEX
  5
1BD
330
1B8
100
AcDbEntity
  8
Layer 1
 62
     7
370
    35
100
AcDbVertex
100
AcDb2dVertex
 10
159.2968417010631
 20
95.77165061268016
 30
0.0
  0
SEQEND
  5
1BE
330
1B8
100
AcDbEntity
  8
Layer 1
370
    35
  0
SPLINE
  5
1BF
330
97
100
AcDbEntity
  8
Layer 1
 62
     7
370
    35
100
AcDbSpline
210
0.0
220
0.0
230
1.0
 70
    11
 71
     3
 72
    17
 73
    13
 74
     0
 42
0.0000000001
 43
0.0000000001
 40
0.0
 40
0.0
 40
0.0
 40
0.0
 40
1.0
 40
1.0
 40
1.0
 40
2.0
 40
2.0
 40
2.0
 40
3.0
 40
3.0
 40
3.0
 40
4.0
 40
4.0
 40
4.0
 40
4.0
 10
38.88619643321676
 20
228.5269424217427
 30
0.0
 10
38.88619643321676
 20
227.5602479908587
 30
0.0
 10
38.10260894816837
 20
226.7768327606982
 30
0.0
 10
37.13608677217223
 20
226.7768327606982
 30
0.0
 10
36.16973685106397
 20
226.7768327606982
 30
0.0
 10
35.38632162090348
 20
227.5602479908587
 30
0.0
 10
35.38632162090348
 20
228.5269424217427
 30
0.0
 10
35.38632162090348
 20
229.4934645977389
 30
0.0
 10
36.16973685106397
 20
230.2767075730115
 30
0.0
 10
37.13608677217223
 20
230.2767075730115
 30
0.0
 10
38.10260894816837
 20
230.2767075730115
 30
0.0
 10
38.88619643321676
 20
229.4934645977389
 30
0.0
 10
38.88619643321676
 20
228.5269424217427
 30
0.0
  0
SPLINE
  5
1C0
330
97
100
AcDbEntity
  8
Layer 1
 62
     7
370
    35
100
AcDbSpline
210
0.0
220
0.0
230
1.0
 70
    11
 71
     3
 72
    17
 73
    13
 74
     0
 42
0.0000000001
 43
0.0000000001
 40
0.0
 40
0.0
 40
0.0
 40
0.0
 40
1.0
 40
1.0
 40
1.0
 40
2.0
 40
2.0
 40
2.0
 40
3.0
 40
3.0
 40
3.0
 40
4.0
 40
4.0
 40
4.0
 40
4.0
 10
81.88618409921558
 20
228.5269424217427
 30
0.0
 10
81.88618409921558
 20
227.5602479908587
 30
0.0
 10
81.1025966141672
 20
226.7768327606982
 30
0.0
 10
80.13607443817104
 20
226.7768327606982
 30
0.0
 10
79.16972451706279
 20
226.7768327606982
 30
0.0
 10
78.3863092869023
 20
227.5602479908587
 30
0.0
 10
78.3863092869023
 20
228.5269424217427
 30
0.0
 10
78.3863092869023
 20
229.4934645977389
 30
0.0
 10
79.16972451706279
 20
230.2767075730115
 30
0.0
 10
80.13607443817104
 20
230.2767075730115
 30
0.0
 10
81.1025966141672
 20
230.2767075730115
 30
0.0
 10
81.88618409921558
 20
229.4934645977389
 30
0.0
 10
81.88618409921558
 20
228.5269424217427
 30
0.0
  0
SPLINE
  5
1C1
330
97
100
AcDbEntity
  8
Layer 1
 62
     7
370
    35
100
AcDbSpline
210
0.0
220
0.0
230
1.0
 70
    11
 71
     3
 72
    17
 73
    13
 74
     0
 42
0.0000000001
 43
0.0000000001
 40
0.0
 40
0.0
 40
0.0
 40
0.0
 40
1.0
 40
1.0
 40
1.0
 40
2.0
 40
2.0
 40
2.0
 40
3.0
 40
3.0
 40
3.0
 40
4.0
 40
4.0
 40
4.0
 40
4.0
 10
136.7462653067733
 20
228.5269424217427
 30
0.0
 10
136.7462653067733
 20
227.5602479908587
 30
0.0
 10
135.9628500766128
 20
226.7768327606982
 30
0.0
 10
134.9961556457287
 20
226.7768327606982
 30
0.0
 10
134.0298057246205
 20
226.7768327606982
 30
0.0
 10
133.24639049446
 20
227.5602479908587
 30
0.0
 10
133.24639049446
 20
228.5269424217427
 30
0.0
 10
133.24639049446
 20
229.4934645977389
 30
0.0
 10
134.0298057246205
 20
230.2767075730115
 30
0.0
 10
134.9961556457287
 20
230.2767075730115
 30
0.0
 10
135.9628500766128
 20
230.2767075730115
 30
0.0
 10
136.7462653067733
 20
229.4934645977389
 30
0.0
 10
136.7462653067733
 20
228.5269424217427
 30
0.0
  0
SPLINE
  5
1C2
330
97
100
AcDbEntity
  8
Layer 1
 62
     7
370
    35
100
AcDbSpline
210
0.0
220
0.0
230
1.0
 70
    11
 71
     3
 72
    17
 73
    13
 74
     0
 42
0.0000000001
 43
0.0000000001
 40
0.0
 40
0.0
 40
0.0
 40
0.0
 40
1.0
 40
1.0
 40
1.0
 40
2.0
 40
2.0
 40
2.0
 40
3.0
 40
3.0
 40
3.0
 40
4.0
 40
4.0
 40
4.0
 40
4.0
 10
179.74642522766
 20
228.5269424217427
 30
0.0
 10
179.74642522766
 20
227.5602479908587
 30
0.0
 10
178.9628377426116
 20
226.7768327606982
 30
0.0
 10
177.9963155666155
 20
226.7768327606982
 30
0.0
 10
177.0299656455072
 20
226.7768327606982
 30
0.0
 10
176.2465504153467
 20
227.5602479908587
 30
0.0
 10
176.2465504153467
 20
228.5269424217427
 30
0.0
 10
176.2465504153467
 20
229.4934645977389
 30
0.0
 10
177.0299656455072
 20
230.2767075730115
 30
0.0
 10
177.9963155666155
 20
230.2767075730115
 30
0.0
 10
178.9628377426116
 20
230.2767075730115
 30
0.0
 10
179.74642522766
 20
229.4934645977389
 30
0.0
 10
179.74642522766
 20
228.5269424217427
 30
0.0
  0
SPLINE
  5
1C3
330
97
100
AcDbEntity
  8
Layer 1
 62
     7
370
    35
100
AcDbSpline
210
0.0
220
0.0
230
1.0
 70
    11
 71
     3
 72
    17
 73
    13
 74
     0
 42
0.0000000001
 43
0.0000000001
 40
0.0
 40
0.0
 40
0.0
 40
0.0
 40
1.0
 40
1.0
 40
1.0
 40
2.0
 40
2.0
 40
2.0
 40
3.0
 40
3.0
 40
3.0
 40
4.0
 40
4.0
 40
4.0
 40
4.0
 10
76.57332659177496
 20
228.5269424217427
 30
0.0
 10
76.57332659177496
 20
227.5602479908587
 30
0.0
 10
75.78973910672657
 20
226.7768327606982
 30
0.0
 10
74.82321693073042
 20
226.7768327606982
 30
0.0
 10
73.85686700962216
 20
226.7768327606982
 30
0.0
 10
73.07345177946168
 20
227.5602479908587
 30
0.0
 10
73.07345177946168
 20
228.5269424217427
 30
0.0
 10
73.07345177946168
 20
229.4934645977389
 30
0.0
 10
73.85686700962216
 20
230.2767075730115
 30
0.0
 10
74.82321693073042
 20
230.2767075730115
 30
0.0
 10
75.78973910672657
 20
230.2767075730115
 30
0.0
 10
76.57332659177496
 20
229.4934645977389
 30
0.0
 10
76.57332659177496
 20
228.5269424217427
 30
0.0
  0
SPLINE
  5
1C4
330
97
100
AcDbEntity
  8
Layer 1
 62
     7
370
    35
100
AcDbSpline
210
0.0
220
0.0
230
1.0
 70
    11
 71
     3
 72
    17
 73
    13
 74
     0
 42
0.0000000001
 43
0.0000000001
 40
0.0
 40
0.0
 40
0.0
 40
0.0
 40
1.0
 40
1.0
 40
1.0
 40
2.0
 40
2.0
 40
2.0
 40
3.0
 40
3.0
 40
3.0
 40
4.0
 40
4.0
 40
4.0
 40
4.0
 10
33.57333892577614
 20
228.5269424217427
 30
0.0
 10
33.57333892577614
 20
227.5602479908587
 30
0.0
 10
32.78975144072776
 20
226.7768327606982
 30
0.0
 10
31.82322926473161
 20
226.7768327606982
 30
0.0
 10
30.85687934362335
 20
226.7768327606982
 30
0.0
 10
30.07346411346287
 20
227.5602479908587
 30
0.0
 10
30.07346411346287
 20
228.5269424217427
 30
0.0
 10
30.07346411346287
 20
229.4934645977389
 30
0.0
 10
30.85687934362335
 20
230.2767075730115
 30
0.0
 10
31.82322926473161
 20
230.2767075730115
 30
0.0
 10
32.78975144072776
 20
230.2767075730115
 30
0.0
 10
33.57333892577614
 20
229.4934645977389
 30
0.0
 10
33.57333892577614
 20
228.5269424217427
 30
0.0
  0
SPLINE
  5
1C5
330
97
100
AcDbEntity
  8
Layer 1
 62
     7
370
    35
100
AcDbSpline
210
0.0
220
0.0
230
1.0
 70
    11
 71
     3
 72
    17
 73
    13
 74
     0
 42
0.0000000001
 43
0.0000000001
 40
0.0
 40
0.0
 40
0.0
 40
0.0
 40
1.0
 40
1.0
 40
1.0
 40
2.0
 40
2.0
 40
2.0
 40
3.0
 40
3.0
 40
3.0
 40
4.0
 40
4.0
 40
4.0
 40
4.0
 10
141.8863511616521
 20
228.5269424217427
 30
0.0
 10
141.8863511616521
 20
227.5602479908587
 30
0.0
 10
141.1027636766038
 20
226.7768327606982
 30
0.0
 10
140.1362415006076
 20
226.7768327606982
 30
0.0
 10
139.1698915794993
 20
226.7768327606982
 30
0.0
 10
138.3864763493389
 20
227.5602479908587
 30
0.0
 10
138.3864763493389
 20
228.5269424217427
 30
0.0
 10
138.3864763493389
 20
229.4934645977389
 30
0.0
 10
139.1698915794993
 20
230.2767075730115
 30
0.0
 10
140.1362415006076
 20
230.2767075730115
 30
0.0
 10
141.1027636766038
 20
230.2767075730115
 30
0.0
 10
141.8863511616521
 20
229.4934645977389
 30
0.0
 10
141.8863511616521
 20
228.5269424217427
 30
0.0
  0
SPLINE
  5
1C6
330
97
100
AcDbEntity
  8
Layer 1
 62
     7
370
    35
100
AcDbSpline
210
0.0
220
0.0
230
1.0
 70
    11
 71
     3
 72
    17
 73
    13
 74
     0
 42
0.0000000001
 43
0.0000000001
 40
0.0
 40
0.0
 40
0.0
 40
0.0
 40
1.0
 40
1.0
 40
1.0
 40
2.0
 40
2.0
 40
2.0
 40
3.0
 40
3.0
 40
3.0
 40
4.0
 40
4.0
 40
4.0
 40
4.0
 10
185.1514391001261
 20
228.5269424217427
 30
0.0
 10
185.1514391001261
 20
227.5602479908587
 30
0.0
 10
184.3678516150777
 20
226.7768327606982
 30
0.0
 10
183.4013294390816
 20
226.7768327606982
 30
0.0
 10
182.4349795179733
 20
226.7768327606982
 30
0.0
 10
181.6515642878128
 20
227.5602479908587
 30
0.0
 10
181.6515642878128
 20
228.5269424217427
 30
0.0
 10
181.6515642878128
 20
229.4934645977389
 30
0.0
 10
182.4349795179733
 20
230.2767075730115
 30
0.0
 10
183.4013294390816
 20
230.2767075730115
 30
0.0
 10
184.3678516150777
 20
230.2767075730115
 30
0.0
 10
185.1514391001261
 20
229.4934645977389
 30
0.0
 10
185.1514391001261
 20
228.5269424217427
 30
0.0
  0
SPLINE
  5
1C7
330
97
100
AcDbEntity
  8
Layer 1
 62
     7
370
    35
100
AcDbSpline
210
0.0
220
0.0
230
1.0
 70
    11
 71
     3
 72
    17
 73
    13
 74
     0
 42
0.0000000001
 43
0.0000000001
 40
0.0
 40
0.0
 40
0.0
 40
0.0
 40
1.0
 40
1.0
 40
1.0
 40
2.0
 40
2.0
 40
2.0
 40
3.0
 40
3.0
 40
3.0
 40
4.0
 40
4.0
 40
4.0
 40
4.0
 10
87.47516619195683
 20
228.5269424217427
 30
0.0
 10
87.47516619195683
 20
227.5602479908587
 30
0.0
 10
86.69157870690844
 20
226.7768327606982
 30
0.0
 10
85.72505653091228
 20
226.7768327606982
 30
0.0
 10
84.75870660980404
 20
226.7768327606982
 30
0.0
 10
83.97529137964355
 20
227.5602479908587
 30
0.0
 10
83.97529137964355
 20
228.5269424217427
 30
0.0
 10
83.97529137964355
 20
229.4934645977389
 30
0.0
 10
84.75870660980404
 20
230.2767075730115
 30
0.0
 10
85.72505653091228
 20
230.2767075730115
 30
0.0
 10
86.69157870690844
 20
230.2767075730115
 30
0.0
 10
87.47516619195683
 20
229.4934645977389
 30
0.0
 10
87.47516619195683
 20
228.5269424217427
 30
0.0
  0
SPLINE
  5
1C8
330
97
100
AcDbEntity
  8
Layer 1
 62
     7
370
    35
100
AcDbSpline
210
0.0
220
0.0
230
1.0
 70
    11
 71
     3
 72
    17
 73
    13
 74
     0
 42
0.0000000001
 43
0.0000000001
 40
0.0
 40
0.0
 40
0.0
 40
0.0
 40
1.0
 40
1.0
 40
1.0
 40
2.0
 40
2.0
 40
2.0
 40
3.0
 40
3.0
 40
3.0
 40
4.0
 40
4.0
 40
4.0
 40
4.0
 10
44.67137684327393
 20
228.5269424217427
 30
0.0
 10
44.67137684327393
 20
227.5602479908587
 30
0.0
 10
43.88778935822554
 20
226.7768327606982
 30
0.0
 10
42.92126718222939
 20
226.7768327606982
 30
0.0
 10
41.95491726112114
 20
226.7768327606982
 30
0.0
 10
41.17150203096065
 20
227.5602479908587
 30
0.0
 10
41.17150203096065
 20
228.5269424217427
 30
0.0
 10
41.17150203096065
 20
229.4934645977389
 30
0.0
 10
41.95491726112114
 20
230.2767075730115
 30
0.0
 10
42.92126718222939
 20
230.2767075730115
 30
0.0
 10
43.88778935822554
 20
230.2767075730115
 30
0.0
 10
44.67137684327393
 20
229.4934645977389
 30
0.0
 10
44.67137684327393
 20
228.5269424217427
 30
0.0
  0
SPLINE
  5
1C9
330
97
100
AcDbEntity
  8
Layer 1
 62
     7
370
    35
100
AcDbSpline
210
0.0
220
0.0
230
1.0
 70
    11
 71
     3
 72
    17
 73
    13
 74
     0
 42
0.0000000001
 43
0.0000000001
 40
0.0
 40
0.0
 40
0.0
 40
0.0
 40
1.0
 40
1.0
 40
1.0
 40
2.0
 40
2.0
 40
2.0
 40
3.0
 40
3.0
 40
3.0
 40
4.0
 40
4.0
 40
4.0
 40
4.0
 10
147.579030696908
 20
228.5269424217427
 30
0.0
 10
147.579030696908
 20
227.5602479908587
 30
0.0
 10
146.7954432118596
 20
226.7768327606982
 30
0.0
 10
145.8289210358635
 20
226.7768327606982
 30
0.0
 10
144.8625711147552
 20
226.7768327606982
 30
0.0
 10
144.0791558845947
 20
227.5602479908587
 30
0.0
 10
144.0791558845947
 20
228.5269424217427
 30
0.0
 10
144.0791558845947
 20
229.4934645977389
 30
0.0
 10
144.8625711147552
 20
230.2767075730115
 30
0.0
 10
145.8289210358635
 20
230.2767075730115
 30
0.0
 10
146.7954432118596
 20
230.2767075730115
 30
0.0
 10
147.579030696908
 20
229.4934645977389
 30
0.0
 10
147.579030696908
 20
228.5269424217427
 30
0.0
  0
SPLINE
  5
1CA
330
97
100
AcDbEntity
  8
Layer 1
 62
     7
370
    35
100
AcDbSpline
210
0.0
220
0.0
230
1.0
 70
    11
 71
     3
 72
    17
 73
    13
 74
     0
 42
0.0000000001
 43
0.0000000001
 40
0.0
 40
0.0
 40
0.0
 40
0.0
 40
1.0
 40
1.0
 40
1.0
 40
2.0
 40
2.0
 40
2.0
 40
3.0
 40
3.0
 40
3.0
 40
4.0
 40
4.0
 40
4.0
 40
4.0
 10
190.2517340759005
 20
228.5269424217427
 30
0.0
 10
190.2517340759005
 20
227.5602479908587
 30
0.0
 10
189.4681465908521
 20
226.7768327606982
 30
0.0
 10
188.5016244148559
 20
226.7768327606982
 30
0.0
 10
187.5352744937477
 20
226.7768327606982
 30
0.0
 10
186.7518592635872
 20
227.5602479908587
 30
0.0
 10
186.7518592635872
 20
228.5269424217427
 30
0.0
 10
186.7518592635872
 20
229.4934645977389
 30
0.0
 10
187.5352744937477
 20
230.2767075730115
 30
0.0
 10
188.5016244148559
 20
230.2767075730115
 30
0.0
 10
189.4681465908521
 20
230.2767075730115
 30
0.0
 10
190.2517340759005
 20
229.4934645977389
 30
0.0
 10
190.2517340759005
 20
228.5269424217427
 30
0.0
  0
POLYLINE
  5
1CB
330
97
100
AcDbEntity
  8
Layer 1
370
     0
100
AcDb2dPolyline
 66
     1
 10
0.0
 20
0.0
 30
0.0
  0
VERTEX
  5
1CC
330
1CB
100
AcDbEntity
  8
Layer 1
370
     0
100
AcDbVertex
100
AcDb2dVertex
 10
0.0
 20
279.4001842488993
 30
0.0
  0
VERTEX
  5
1CD
330
1CB
100
AcDbEntity
  8
Layer 1
370
     0
100
AcDbVertex
100
AcDb2dVertex
 10
431.8002847482989
 20
279.4001842488993
 30
0.0
  0
VERTEX
  5
1CE
330
1CB
100
AcDbEntity
  8
Layer 1
370
     0
100
AcDbVertex
100
AcDb2dVertex
 10
431.8002847482989
 20
0.0
 30
0.0
  0
VERTEX
  5
1CF
330
1CB
100
AcDbEntity
  8
Layer 1
370
     0
100
AcDbVertex
100
AcDb2dVertex
 10
0.0
 20
0.0
 30
0.0
  0
VERTEX
  5
1D0
330
1CB
100
AcDbEntity
  8
Layer 1
370
     0
100
AcDbVertex
100
AcDb2dVertex
 10
0.0
 20
279.4001842488993
 30
0.0
  0
SEQEND
  5
1D1
330
1CB
100
AcDbEntity
  8
Layer 1
370
     0
  0
ENDBLK
  5
9A
330
97
100
AcDbEntity
  8
0
100
AcDbBlockEnd
  0
ENDSEC
  0
SECTION
  2
ENTITIES
  0
POLYLINE
  5
3C
330
1F
100
AcDbEntity
  8
Layer 1
 62
     7
370
    35
100
AcDb2dPolyline
 66
     1
 10
0.0
 20
0.0
 30
0.0
  0
VERTEX
  5
3D
330
3C
100
AcDbEntity
  8
Layer 1
 62
     7
370
    35
100
AcDbVertex
100
AcDb2dVertex
 10
211.9878893602082
 20
49.52672536845724
 30
0.0
  0
VERTEX
  5
3E
330
3C
100
AcDbEntity
  8
Layer 1
 62
     7
370
    35
100
AcDbVertex
100
AcDb2dVertex
 10
8.98774328585835
 20
49.52672536845724
 30
0.0
  0
VERTEX
  5
3F
330
3C
100
AcDbEntity
  8
Layer 1
 62
     7
370
    35
100
AcDbVertex
100
AcDb2dVertex
 10
8.98774328585835
 20
248.5271129458135
 30
0.0
  0
VERTEX
  5
40
330
3C
100
AcDbEntity
  8
Layer 1
 62
     7
370
    35
100
AcDbVertex
100
AcDb2dVertex
 10
211.9878893602082
 20
248.5271129458135
 30
0.0
  0
VERTEX
  5
41
330
3C
100
AcDbEntity
  8
Layer 1
 62
     7
370
    35
100
AcDbVertex
100
AcDb2dVertex
 10
211.9878893602082
 20
49.52672536845724
 30
0.0
  0
SEQEND
  5
42
330
3C
100
AcDbEntity
  8
Layer 1
370
    35
  0
POLYLINE
  5
43
330
1F
100
AcDbEntity
  8
Layer 1
 62
     7
370
    35
100
AcDb2dPolyline
 66
     1
 10
0.0
 20
0.0
 30
0.0
  0
VERTEX
  5
44
330
43
100
AcDbEntity
  8
Layer 1
 62
     7
370
    35
100
AcDbVertex
100
AcDb2dVertex
 10
38.05317179534163
 20
182.7086925348434
 30
0.0
  0
VERTEX
  5
45
330
43
100
AcDbEntity
  8
Layer 1
 62
     7
370
    35
100
AcDbVertex
100
AcDb2dVertex
 10
17.78738423413199
 20
182.7086925348434
 30
0.0
  0
VERTEX
  5
46
330
43
100
AcDbEntity
  8
Layer 1
 62
     7
370
    35
100
AcDbVertex
100
AcDb2dVertex
 10
17.78738423413199
 20
187.7085629109732
 30
0.0
  0
VERTEX
  5
47
330
43
100
AcDbEntity
  8
Layer 1
 62
     7
370
    35
100
AcDbVertex
100
AcDb2dVertex
 10
38.05317179534163
 20
187.7085629109732
 30
0.0
  0
VERTEX
  5
48
330
43
100
AcDbEntity
  8
Layer 1
 62
     7
370
    35
100
AcDbVertex
100
AcDb2dVertex
 10
38.05317179534163
 20
182.7086925348434
 30
0.0
  0
SEQEND
  5
49
330
43
100
AcDbEntity
  8
Layer 1
370
    35
  0
POLYLINE
  5
4A
330
1F
100
AcDbEntity
  8
Layer 1
 62
     7
370
    35
100
AcDb2dPolyline
 66
     1
 10
0.0
 20
0.0
 30
0.0
  0
VERTEX
  5
4B
330
4A
100
AcDbEntity
  8
Layer 1
 62
     7
370
    35
100
AcDbVertex
100
AcDb2dVertex
 10
77.7289846346832
 20
182.7086925348434
 30
0.0
  0
VERTEX
  5
4C
330
4A
100
AcDbEntity
  8
Layer 1
 62
     7
370
    35
100
AcDbVertex
100
AcDb2dVertex
 10
57.72898636550032
 20
182.7086925348434
 30
0.0
  0
VERTEX
  5
4D
330
4A
100
AcDbEntity
  8
Layer 1
 62
     7
370
    35
100
AcDbVertex
100
AcDb2dVertex
 10
57.72898636550032
 20
187.7085629109732
 30
0.0
  0
VERTEX
  5
4E
330
4A
100
AcDbEntity
  8
Layer 1
 62
     7
370
    35
100
AcDbVertex
100
AcDb2dVertex
 10
77.7289846346832
 20
187.7085629109732
 30
0.0
  0
VERTEX
  5
4F
330
4A
100
AcDbEntity
  8
Layer 1
 62
     7
370
    35
100
AcDbVertex
100
AcDb2dVertex
 10
77.7289846346832
 20
182.7086925348434
 30
0.0
  0
SEQEND
  5
50
330
4A
100
AcDbEntity
  8
Layer 1
370
    35
  0
POLYLINE
  5
51
330
1F
100
AcDbEntity
  8
Layer 1
 62
     7
370
    35
100
AcDb2dPolyline
 66
     1
 10
0.0
 20
0.0
 30
0.0
  0
VERTEX
  5
52
330
51
100
AcDbEntity
  8
Layer 1
 62
     7
370
    35
100
AcDbVertex
100
AcDb2dVertex
 10
117.8376740073127
 20
182.7086925348434
 30
0.0
  0
VERTEX
  5
53
330
51
100
AcDbEntity
  8
Layer 1
 62
     7
370
    35
100
AcDbVertex
100
AcDb2dVertex
 10
97.83767573812979
 20
182.7086925348434
 30
0.0
  0
VERTEX
  5
54
330
51
100
AcDbEntity
  8
Layer 1
 62
     7
370
    35
100
AcDbVertex
100
AcDb2dVertex
 10
97.83767573812979
 20
187.7085629109732
 30
0.0
  0
VERTEX
  5
55
330
51
100
AcDbEntity
  8
Layer 1
 62
     7
370
    35
100
AcDbVertex
100
AcDb2dVertex
 10
117.8376740073127
 20
187.7085629109732
 30
0.0
  0
VERTEX
  5
56
330
51
100
AcDbEntity
  8
Layer 1
 62
     7
370
    35
100
AcDbVertex
100
AcDb2dVertex
 10
117.8376740073127
 20
182.7086925348434
 30
0.0
  0
SEQEND
  5
57
330
51
100
AcDbEntity
  8
Layer 1
370
    35
  0
POLYLINE
  5
58
330
1F
100
AcDbEntity
  8
Layer 1
 62
     7
370
    35
100
AcDb2dPolyline
 66
     1
 10
0.0
 20
0.0
 30
0.0
  0
VERTEX
  5
59
330
58
100
AcDbEntity
  8
Layer 1
 62
     7
370
    35
100
AcDbVertex
100
AcDb2dVertex
 10
157.5789437040555
 20
182.7086925348434
 30
0.0
  0
VERTEX
  5
5A
330
58
100
AcDbEntity
  8
Layer 1
 62
     7
370
    35
100
AcDbVertex
100
AcDb2dVertex
 10
137.5794621995363
 20
182.7086925348434
 30
0.0
  0
VERTEX
  5
5B
330
58
100
AcDbEntity
  8
Layer 1
 62
     7
370
    35
100
AcDbVertex
100
AcDb2dVertex
 10
137.5794621995363
 20
187.7085629109732
 30
0.0
  0
VERTEX
  5
5C
330
58
100
AcDbEntity
  8
Layer 1
 62
     7
370
    35
100
AcDbVertex
100
AcDb2dVertex
 10
157.5789437040555
 20
187.7085629109732
 30
0.0
  0
VERTEX
  5
5D
330
58
100
AcDbEntity
  8
Layer 1
 62
     7
370
    35
100
AcDbVertex
100
AcDb2dVertex
 10
157.5789437040555
 20
182.7086925348434
 30
0.0
  0
SEQEND
  5
5E
330
58
100
AcDbEntity
  8
Layer 1
370
    35
  0
POLYLINE
  5
5F
330
1F
100
AcDbEntity
  8
Layer 1
370
     0
100
AcDb2dPolyline
 66
     1
 10
0.0
 20
0.0
 30
0.0
  0
VERTEX
  5
60
330
5F
100
AcDbEntity
  8
Layer 1
370
     0
100
AcDbVertex
100
AcDb2dVertex
 10
197.7963259109487
 20
182.7086925348434
 30
0.0
  0
VERTEX
  5
61
330
5F
100
AcDbEntity
  8
Layer 1
370
     0
100
AcDbVertex
100
AcDb2dVertex
 10
177.7963276417658
 20
182.7086925348434
 30
0.0
  0
VERTEX
  5
62
330
5F
100
AcDbEntity
  8
Layer 1
370
     0
100
AcDbVertex
100
AcDb2dVertex
 10
177.7963276417658
 20
187.7085629109732
 30
0.0
  0
VERTEX
  5
63
330
5F
100
AcDbEntity
  8
Layer 1
370
     0
100
AcDbVertex
100
AcDb2dVertex
 10
197.7963259109487
 20
187.7085629109732
 30
0.0
  0
VERTEX
  5
64
330
5F
100
AcDbEntity
  8
Layer 1
370
     0
100
AcDbVertex
100
AcDb2dVertex
 10
197.7963259109487
 20
182.7086925348434
 30
0.0
  0
SEQEND
  5
65
330
5F
100
AcDbEntity
  8
Layer 1
370
     0
  0
POLYLINE
  5
66
330
1F
100
AcDbEntity
  8
Layer 1
 62
     7
370
    35
100
AcDb2dPolyline
 66
     1
 10
0.0
 20
0.0
 30
0.0
  0
VERTEX
  5
67
330
66
100
AcDbEntity
  8
Layer 1
 62
     7
370
    35
100
AcDbVertex
100
AcDb2dVertex
 10
197.7963259109487
 20
182.7086925348434
 30
0.0
  0
VERTEX
  5
68
330
66
100
AcDbEntity
  8
Layer 1
 62
     7
370
    35
100
AcDbVertex
100
AcDb2dVertex
 10
177.7963276417658
 20
182.7086925348434
 30
0.0
  0
VERTEX
  5
69
330
66
100
AcDbEntity
  8
Layer 1
 62
     7
370
    35
100
AcDbVertex
100
AcDb2dVertex
 10
177.7963276417658
 20
187.7085629109732
 30
0.0
  0
VERTEX
  5
6A
330
66
100
AcDbEntity
  8
Layer 1
 62
     7
370
    35
100
AcDbVertex
100
AcDb2dVertex
 10
197.7963259109487
 20
187.7085629109732
 30
0.0
  0
VERTEX
  5
6B
330
66
100
AcDbEntity
  8
Layer 1
 62
     7
370
    35
100
AcDbVertex
100
AcDb2dVertex
 10
197.7963259109487
 20
182.7086925348434
 30
0.0
  0
SEQEND
  5
6C
330
66
100
AcDbEntity
  8
Layer 1
370
    35
  0
POLYLINE
  5
6D
330
1F
100
AcDbEntity
  8
Layer 1
 62
     7
370
    35
100
AcDb2dPolyline
 66
     1
 10
0.0
 20
0.0
 30
0.0
  0
VERTEX
  5
6E
330
6D
100
AcDbEntity
  8
Layer 1
 62
     7
370
    35
100
AcDbVertex
100
AcDb2dVertex
 10
16.34561082242503
 20
127.4520805753443
 30
0.0
  0
VERTEX
  5
6F
330
6D
100
AcDbEntity
  8
Layer 1
 62
     7
370
    35
100
AcDbVertex
100
AcDb2dVertex
 10
11.34574044629523
 20
127.4520805753443
 30
0.0
  0
VERTEX
  5
70
330
6D
100
AcDbEntity
  8
Layer 1
 62
     7
370
    35
100
AcDbVertex
100
AcDb2dVertex
 10
11.34574044629523
 20
147.4520788445271
 30
0.0
  0
VERTEX
  5
71
330
6D
100
AcDbEntity
  8
Layer 1
 62
     7
370
    35
100
AcDbVertex
100
AcDb2dVertex
 10
16.34561082242503
 20
147.4520788445271
 30
0.0
  0
VERTEX
  5
72
330
6D
100
AcDbEntity
  8
Layer 1
 62
     7
370
    35
100
AcDbVertex
100
AcDb2dVertex
 10
16.34561082242503
 20
127.4520805753443
 30
0.0
  0
SEQEND
  5
73
330
6D
100
AcDbEntity
  8
Layer 1
370
    35
  0
POLYLINE
  5
74
330
1F
100
AcDbEntity
  8
Layer 1
 62
     7
370
    35
100
AcDb2dPolyline
 66
     1
 10
0.0
 20
0.0
 30
0.0
  0
VERTEX
  5
75
330
74
100
AcDbEntity
  8
Layer 1
 62
     7
370
    35
100
AcDbVertex
100
AcDb2dVertex
 10
16.34561082242503
 20
53.01592037772083
 30
0.0
  0
VERTEX
  5
76
330
74
100
AcDbEntity
  8
Layer 1
 62
     7
370
    35
100
AcDbVertex
100
AcDb2dVertex
 10
11.34574044629523
 20
53.01592037772083
 30
0.0
  0
VERTEX
  5
77
330
74
100
AcDbEntity
  8
Layer 1
 62
     7
370
    35
100
AcDbVertex
100
AcDb2dVertex
 10
11.34574044629523
 20
73.01574639201583
 30
0.0
  0
VERTEX
  5
78
330
74
100
AcDbEntity
  8
Layer 1
 62
     7
370
    35
100
AcDbVertex
100
AcDb2dVertex
 10
16.34561082242503
 20
73.01574639201583
 30
0.0
  0
VERTEX
  5
79
330
74
100
AcDbEntity
  8
Layer 1
 62
     7
370
    35
100
AcDbVertex
100
AcDb2dVertex
 10
16.34561082242503
 20
53.01592037772083
 30
0.0
  0
SEQEND
  5
7A
330
74
100
AcDbEntity
  8
Layer 1
370
    35
  0
POLYLINE
  5
7B
330
1F
100
AcDbEntity
  8
Layer 1
 62
     7
370
    35
100
AcDb2dPolyline
 66
     1
 10
0.0
 20
0.0
 30
0.0
  0
VERTEX
  5
7C
330
7B
100
AcDbEntity
  8
Layer 1
 62
     7
370
    35
100
AcDbVertex
100
AcDb2dVertex
 10
16.34561082242503
 20
92.17427953381657
 30
0.0
  0
VERTEX
  5
7D
330
7B
100
AcDbEntity
  8
Layer 1
 62
     7
370
    35
100
AcDbVertex
100
AcDb2dVertex
 10
11.34574044629523
 20
92.17427953381657
 30
0.0
  0
VERTEX
  5
7E
330
7B
100
AcDbEntity
  8
Layer 1
 62
     7
370
    35
100
AcDbVertex
100
AcDb2dVertex
 10
11.34574044629523
 20
112.1741055481116
 30
0.0
  0
VERTEX
  5
7F
330
7B
100
AcDbEntity
  8
Layer 1
 62
     7
370
    35
100
AcDbVertex
100
AcDb2dVertex
 10
16.34561082242503
 20
112.1741055481116
 30
0.0
  0
VERTEX
  5
80
330
7B
100
AcDbEntity
  8
Layer 1
 62
     7
370
    35
100
AcDbVertex
100
AcDb2dVertex
 10
16.34561082242503
 20
92.17427953381657
 30
0.0
  0
SEQEND
  5
81
330
7B
100
AcDbEntity
  8
Layer 1
370
    35
  0
POLYLINE
  5
82
330
1F
100
AcDbEntity
  8
Layer 1
 62
     7
370
    35
100
AcDb2dPolyline
 66
     1
 10
0.0
 20
0.0
 30
0.0
  0
VERTEX
  5
83
330
82
100
AcDbEntity
  8
Layer 1
 62
     7
370
    35
100
AcDbVertex
100
AcDb2dVertex
 10
209.8712212977165
 20
127.4520805753443
 30
0.0
  0
VERTEX
  5
84
330
82
100
AcDbEntity
  8
Layer 1
 62
     7
370
    35
100
AcDbVertex
100
AcDb2dVertex
 10
204.8715231764746
 20
127.4520805753443
 30
0.0
  0
VERTEX
  5
85
330
82
100
AcDbEntity
  8
Layer 1
 62
     7
370
    35
100
AcDbVertex
100
AcDb2dVertex
 10
204.8715231764746
 20
147.4520788445271
 30
0.0
  0
VERTEX
  5
86
330
82
100
AcDbEntity
  8
Layer 1
 62
     7
370
    35
100
AcDbVertex
100
AcDb2dVertex
 10
209.8712212977165
 20
147.4520788445271
 30
0.0
  0
VERTEX
  5
87
330
82
100
AcDbEntity
  8
Layer 1
 62
     7
370
    35
100
AcDbVertex
100
AcDb2dVertex
 10
209.8712212977165
 20
127.4520805753443
 30
0.0
  0
SEQEND
  5
88
330
82
100
AcDbEntity
  8
Layer 1
370
    35
  0
POLYLINE
  5
89
330
1F
100
AcDbEntity
  8
Layer 1
 62
     7
370
    35
100
AcDb2dPolyline
 66
     1
 10
0.0
 20
0.0
 30
0.0
  0
VERTEX
  5
8A
330
89
100
AcDbEntity
  8
Layer 1
 62
     7
370
    35
100
AcDbVertex
100
AcDb2dVertex
 10
209.8712212977165
 20
53.01592037772083
 30
0.0
  0
VERTEX
  5
8B
330
89
100
AcDbEntity
  8
Layer 1
 62
     7
370
    35
100
AcDbVertex
100
AcDb2dVertex
 10
204.8715231764746
 20
53.01592037772083
 30
0.0
  0
VERTEX
  5
8C
330
89
100
AcDbEntity
  8
Layer 1
 62
     7
370
    35
100
AcDbVertex
100
AcDb2dVertex
 10
204.8715231764746
 20
73.01574639201583
 30
0.0
  0
VERTEX
  5
8D
330
89
100
AcDbEntity
  8
Layer 1
 62
     7
370
    35
100
AcDbVertex
100
AcDb2dVertex
 10
209.8712212977165
 20
73.01574639201583
 30
0.0
  0
VERTEX
  5
8E
330
89
100
AcDbEntity
  8
Layer 1
 62
     7
370
    35
100
AcDbVertex
100
AcDb2dVertex
 10
209.8712212977165
 20
53.01592037772083
 30
0.0
  0
SEQEND
  5
8F
330
89
100
AcDbEntity
  8
Layer 1
370
    35
  0
POLYLINE
  5
90
330
1F
100
AcDbEntity
  8
Layer 1
 62
     7
370
    35
100
AcDb2dPolyline
 66
     1
 10
0.0
 20
0.0
 30
0.0
  0
VERTEX
  5
91
330
90
100
AcDbEntity
  8
Layer 1
 62
     7
370
    35
100
AcDbVertex
100
AcDb2dVertex
 10
209.8712212977165
 20
92.17427953381657
 30
0.0
  0
VERTEX
  5
92
330
90
100
AcDbEntity
  8
Layer 1
 62
     7
370
    35
100
AcDbVertex
100
AcDb2dVertex
 10
204.8715231764746
 20
92.17427953381657
 30
0.0
  0
VERTEX
  5
93
330
90
100
AcDbEntity
  8
Layer 1
 62
     7
370
    35
100
AcDbVertex
100
AcDb2dVertex
 10
204.8715231764746
 20
112.1741055481116
 30
0.0
  0
VERTEX
  5
94
330
90
100
AcDbEntity
  8
Layer 1
 62
     7
370
    35
100
AcDbVertex
100
AcDb2dVertex
 10
209.8712212977165
 20
112.1741055481116
 30
0.0
  0
VERTEX
  5
95
330
90
100
AcDbEntity
  8
Layer 1
 62
     7
370
    35
100
AcDbVertex
100
AcDb2dVertex
 10
209.8712212977165
 20
92.17427953381657
 30
0.0
  0
SEQEND
  5
96
330
90
100
AcDbEntity
  8
Layer 1
370
    35
  0
INSERT
  5
98
330
1F
100
AcDbEntity
  8
Layer 1
100
AcDbBlockReference
  2
block 2
 10
0.0
 20
0.0
 30
0.0
  0
ENDSEC
  0
SECTION
  2
OBJECTS
  0
DICTIONARY
  5
C
330
0
100
AcDbDictionary
281
     1
  3
ACAD_GROUP
350
D
  3
ACAD_LAYOUT
350
1A
  3
ACAD_MLINESTYLE
350
17
  3
ACAD_PLOTSETTINGS
350
19
  3
ACAD_PLOTSTYLENAME
350
E
  3
ACAD_TABLESTYLE
350
1D2
  3
ACAD_VISUALSTYLE
350
2A
  0
DICTIONARY
  5
D
102
{ACAD_REACTORS
330
C
102
}
330
C
100
AcDbDictionary
281
     1
  0
DICTIONARY
  5
1A
102
{ACAD_REACTORS
330
C
102
}
330
C
100
AcDbDictionary
281
     1
  3
Layout1
350
1E
  3
Layout2
350
26
  3
Model
350
22
  0
DICTIONARY
  5
17
102
{ACAD_REACTORS
330
C
102
}
330
C
100
AcDbDictionary
281
     1
  3
Standard
350
18
  0
DICTIONARY
  5
19
102
{ACAD_REACTORS
330
C
102
}
330
C
100
AcDbDictionary
281
     1
  0
ACDBDICTIONARYWDFLT
  5
E
102
{ACAD_REACTORS
330
C
102
}
330
C
100
AcDbDictionary
281
     1
  3
Normal
350
F
100
AcDbDictionaryWithDefault
340
F
  0
DICTIONARY
  5
1D2
102
{ACAD_REACTORS
330
C
102
}
330
C
100
AcDbDictionary
281
     1
  0
DICTIONARY
  5
2A
102
{ACAD_REACTORS
330
C
102
}
330
C
100
AcDbDictionary
281
     1
  3
2dWireframe
350
2F
  3
3D Hidden
350
31
  3
3dWireframe
350
30
  3
Basic
350
32
  3
Brighten
350
36
  3
ColorChange
350
3A
  3
Conceptual
350
34
  3
Dim
350
35
  3
Facepattern
350
39
  3
Flat
350
2B
  3
FlatWithEdges
350
2C
  3
Gouraud
350
2D
  3
GouraudWithEdges
350
2E
  3
Linepattern
350
38
  3
Realistic
350
33
  3
Thicken
350
37
  0
LAYOUT
  5
1E
102
{ACAD_REACTORS
330
1A
102
}
330
1A
100
AcDbPlotSettings
  1

  2
none_device
  4

  6

 40
0.0
 41
0.0
 42
0.0
 43
0.0
 44
0.0
 45
0.0
 46
0.0
 47
0.0
 48
0.0
 49
0.0
140
0.0
141
0.0
142
1.0
143
1.0
 70
   688
 72
     0
 73
     0
 74
     5
  7

 75
    16
147
1.0
148
0.0
149
0.0
100
AcDbLayout
  1
Layout1
 70
     1
 71
     1
 10
0.0
 20
0.0
 11
12.0
 21
9.0
 12
0.0
 22
0.0
 32
0.0
 14
1.000000000000000E+20
 24
1.000000000000000E+20
 34
1.000000000000000E+20
 15
-1.000000000000000E+20
 25
-1.000000000000000E+20
 35
-1.000000000000000E+20
146
0.0
 13
0.0
 23
0.0
 33
0.0
 16
1.0
 26
0.0
 36
0.0
 17
0.0
 27
1.0
 37
0.0
 76
     0
330
1B
  0
LAYOUT
  5
26
102
{ACAD_REACTORS
330
1A
102
}
330
1A
100
AcDbPlotSettings
  1

  2
none_device
  4

  6

 40
0.0
 41
0.0
 42
0.0
 43
0.0
 44
0.0
 45
0.0
 46
0.0
 47
0.0
 48
0.0
 49
0.0
140
0.0
141
0.0
142
1.0
143
1.0
 70
   688
 72
     0
 73
     0
 74
     5
  7

 75
    16
147
1.0
148
0.0
149
0.0
100
AcDbLayout
  1
Layout2
 70
     1
 71
     2
 10
0.0
 20
0.0
 11
0.0
 21
0.0
 12
0.0
 22
0.0
 32
0.0
 14
0.0
 24
0.0
 34
0.0
 15
0.0
 25
0.0
 35
0.0
146
0.0
 13
0.0
 23
0.0
 33
0.0
 16
1.0
 26
0.0
 36
0.0
 17
0.0
 27
1.0
 37
0.0
 76
     0
330
23
  0
LAYOUT
  5
22
102
{ACAD_REACTORS
330
1A
102
}
330
1A
100
AcDbPlotSettings
  1

  2
none_device
  4

  6

 40
0.0
 41
0.0
 42
0.0
 43
0.0
 44
0.0
 45
0.0
 46
0.0
 47
0.0
 48
0.0
 49
0.0
140
0.0
141
0.0
142
1.0
143
1.0
 70
  1712
 72
     0
 73
     0
 74
     0
  7

 75
     0
147
1.0
148
0.0
149
0.0
100
AcDbLayout
  1
Model
 70
     1
 71
     0
 10
0.0
 20
0.0
 11
12.0
 21
9.0
 12
0.0
 22
0.0
 32
0.0
 14
1.000000000000000E+20
 24
1.000000000000000E+20
 34
1.000000000000000E+20
 15
-1.000000000000000E+20
 25
-1.000000000000000E+20
 35
-1.000000000000000E+20
146
0.0
 13
0.0
 23
0.0
 33
0.0
 16
1.0
 26
0.0
 36
0.0
 17
0.0
 27
1.0
 37
0.0
 76
     0
330
1F
331
29
  0
MLINESTYLE
  5
18
102
{ACAD_REACTORS
330
17
102
}
330
17
100
AcDbMlineStyle
  2
Standard
 70
     0
  3

 62
   256
 51
90.0
 52
90.0
 71
     2
 49
0.5
 62
   256
  6
BYLAYER
 49
-0.5
 62
   256
  6
BYLAYER
  0
ACDBPLACEHOLDER
  5
F
102
{ACAD_REACTORS
330
E
102
}
330
E
  0
VISUALSTYLE
  5
2F
102
{ACAD_REACTORS
330
2A
102
}
330
2A
100
AcDbVisualStyle
  2
2dWireframe
 70
     4
 71
     0
 72
     2
 73
     0
 90
        0
 40
-0.6
 41
-30.0
 62
     5
 63
     7
 74
     1
 91
        4
 64
     7
 65
   257
 75
     1
175
     1
 42
1.0
 92
        0
 66
   257
 43
1.0
 76
     1
 77
     6
 78
     2
 67
     7
 79
     5
170
     0
171
     0
290
     0
174
     0
 93
        1
 44
0.0
173
     0
291
     0
 45
0.0
1001
ACAD
1000
AcDbSavedByObjectVersion
1070
     0
  0
VISUALSTYLE
  5
31
102
{ACAD_REACTORS
330
2A
102
}
330
2A
100
AcDbVisualStyle
  2
3D Hidden
 70
     6
 71
     1
 72
     2
 73
     2
 90
        0
 40
-0.6
 41
-30.0
 62
     5
 63
     7
 74
     2
 91
        2
 64
     7
 65
   257
 75
     2
175
     1
 42
40.0
 92
        0
 66
   257
 43
1.0
 76
     1
 77
     6
 78
     2
 67
     7
 79
     3
170
     0
171
     0
290
     0
174
     0
 93
        1
 44
0.0
173
     0
291
     0
 45
0.0
1001
ACAD
1000
AcDbSavedByObjectVersion
1070
     0
  0
VISUALSTYLE
  5
30
102
{ACAD_REACTORS
330
2A
102
}
330
2A
100
AcDbVisualStyle
  2
3dWireframe
 70
     5
 71
     0
 72
     2
 73
     0
 90
        0
 40
-0.6
 41
-30.0
 62
     5
 63
     7
 74
     1
 91
        4
 64
     7
 65
   257
 75
     1
175
     1
 42
1.0
 92
        0
 66
   257
 43
1.0
 76
     1
 77
     6
 78
     2
 67
     7
 79
     5
170
     0
171
     0
290
     0
174
     0
 93
        1
 44
0.0
173
     0
291
     0
 45
0.0
1001
ACAD
1000
AcDbSavedByObjectVersion
1070
     0
  0
VISUALSTYLE
  5
32
102
{ACAD_REACTORS
330
2A
102
}
330
2A
100
AcDbVisualStyle
  2
Basic
 70
     7
 71
     1
 72
     0
 73
     1
 90
        0
 40
-0.6
 41
-30.0
 62
     5
 63
     7
 74
     0
 91
        4
 64
     7
 65
   257
 75
     1
175
     1
 42
1.0
 92
        8
 66
     7
 43
1.0
 76
     1
 77
     6
 78
     2
 67
     7
 79
     5
170
     0
171
     0
290
     0
174
     0
 93
        1
 44
0.0
173
     0
291
     1
 45
0.0
1001
ACAD
1000
AcDbSavedByObjectVersion
1070
     0
  0
VISUALSTYLE
  5
36
102
{ACAD_REACTORS
330
2A
102
}
330
2A
100
AcDbVisualStyle
  2
Brighten
 70
    12
 71
     2
 72
     2
 73
     0
 90
        0
 40
-0.6
 41
-30.0
 62
     5
 63
     7
 74
     1
 91
        4
 64
     7
 65
   257
 75
     1
175
     1
 42
1.0
 92
        8
 66
     7
 43
1.0
 76
     1
 77
     6
 78
     2
 67
     7
 79
     5
170
     0
171
     0
290
     0
174
     0
 93
        1
 44
50.0
173
     0
291
     1
 45
0.0
1001
ACAD
1000
AcDbSavedByObjectVersion
1070
     0
  0
VISUALSTYLE
  5
3A
102
{ACAD_REACTORS
330
2A
102
}
330
2A
100
AcDbVisualStyle
  2
ColorChange
 70
    16
 71
     2
 72
     2
 73
     3
 90
        0
 40
-0.6
 41
-30.0
 62
     5
 63
     8
 74
     1
 91
        4
 64
     7
 65
   257
 75
     1
175
     1
 42
1.0
 92
        8
 66
     8
 43
1.0
 76
     1
 77
     6
 78
     2
 67
     7
 79
     5
170
     0
171
     0
290
     0
174
     0
 93
        1
 44
0.0
173
     0
291
     1
 45
0.0
1001
ACAD
1000
AcDbSavedByObjectVersion
1070
     0
  0
VISUALSTYLE
  5
34
102
{ACAD_REACTORS
330
2A
102
}
330
2A
100
AcDbVisualStyle
  2
Conceptual
 70
     9
 71
     3
 72
     2
 73
     0
 90
        0
 40
-0.6
 41
-30.0
 62
     5
 63
     7
 74
     2
 91
        2
 64
     7
 65
   257
 75
     1
175
     1
 42
40.0
 92
        8
 66
     7
 43
1.0
 76
     1
 77
     6
 78
     2
 67
     7
 79
     3
170
     0
171
     0
290
     0
174
     0
 93
        1
 44
0.0
173
     0
291
     0
 45
0.0
1001
ACAD
1000
AcDbSavedByObjectVersion
1070
     0
  0
VISUALSTYLE
  5
35
102
{ACAD_REACTORS
330
2A
102
}
330
2A
100
AcDbVisualStyle
  2
Dim
 70
    11
 71
     2
 72
     2
 73
     0
 90
        0
 40
-0.6
 41
-30.0
 62
     5
 63
     7
 74
     1
 91
        4
 64
     7
 65
   257
 75
     1
175
     1
 42
1.0
 92
        8
 66
     7
 43
1.0
 76
     1
 77
     6
 78
     2
 67
     7
 79
     5
170
     0
171
     0
290
     0
174
     0
 93
        1
 44
-50.0
173
     0
291
     1
 45
0.0
1001
ACAD
1000
AcDbSavedByObjectVersion
1070
     0
  0
VISUALSTYLE
  5
39
102
{ACAD_REACTORS
330
2A
102
}
330
2A
100
AcDbVisualStyle
  2
Facepattern
 70
    15
 71
     2
 72
     2
 73
     0
 90
        0
 40
-0.6
 41
-30.0
 62
     5
 63
     7
 74
     1
 91
        4
 64
     7
 65
   257
 75
     1
175
     1
 42
1.0
 92
        8
 66
     7
 43
1.0
 76
     1
 77
     6
 78
     2
 67
     7
 79
     5
170
     0
171
     0
290
     0
174
     0
 93
        1
 44
0.0
173
     0
291
     1
 45
0.0
1001
ACAD
1000
AcDbSavedByObjectVersion
1070
     0
  0
VISUALSTYLE
  5
2B
102
{ACAD_REACTORS
330
2A
102
}
330
2A
100
AcDbVisualStyle
  2
Flat
 70
     0
 71
     2
 72
     1
 73
     1
 90
        2
 40
-0.6
 41
30.0
 62
     5
 63
     7
 74
     0
 91
        4
 64
     7
 65
   257
 75
     1
175
     1
 42
1.0
 92
        8
 66
     7
 43
1.0
 76
     1
 77
     6
 78
     2
 67
     7
 79
     5
170
     0
171
     0
290
     0
174
     0
 93
       13
 44
0.0
173
     0
291
     1
 45
0.0
1001
ACAD
1000
AcDbSavedByObjectVersion
1070
     0
  0
VISUALSTYLE
  5
2C
102
{ACAD_REACTORS
330
2A
102
}
330
2A
100
AcDbVisualStyle
  2
FlatWithEdges
 70
     1
 71
     2
 72
     1
 73
     1
 90
        2
 40
-0.6
 41
30.0
 62
     5
 63
     7
 74
     1
 91
        4
 64
     7
 65
   257
 75
     1
175
     1
 42
1.0
 92
        0
 66
   257
 43
1.0
 76
     1
 77
     6
 78
     2
 67
     7
 79
     5
170
     0
171
     0
290
     0
174
     0
 93
       13
 44
0.0
173
     0
291
     1
 45
0.0
1001
ACAD
1000
AcDbSavedByObjectVersion
1070
     0
  0
VISUALSTYLE
  5
2D
102
{ACAD_REACTORS
330
2A
102
}
330
2A
100
AcDbVisualStyle
  2
Gouraud
 70
     2
 71
     2
 72
     2
 73
     1
 90
        2
 40
-0.6
 41
30.0
 62
     5
 63
     7
 74
     0
 91
        4
 64
     7
 65
   257
 75
     1
175
     1
 42
1.0
 92
        0
 66
     7
 43
1.0
 76
     1
 77
     6
 78
     2
 67
     7
 79
     5
170
     0
171
     0
290
     0
174
     0
 93
       13
 44
0.0
173
     0
291
     1
 45
0.0
1001
ACAD
1000
AcDbSavedByObjectVersion
1070
     0
  0
VISUALSTYLE
  5
2E
102
{ACAD_REACTORS
330
2A
102
}
330
2A
100
AcDbVisualStyle
  2
GouraudWithEdges
 70
     3
 71
     2
 72
     2
 73
     1
 90
        2
 40
-0.6
 41
30.0
 62
     5
 63
     7
 74
     1
 91
        4
 64
     7
 65
   257
 75
     1
175
     1
 42
1.0
 92
        0
 66
   257
 43
1.0
 76
     1
 77
     6
 78
     2
 67
     7
 79
     5
170
     0
171
     0
290
     0
174
     0
 93
       13
 44
0.0
173
     0
291
     1
 45
0.0
1001
ACAD
1000
AcDbSavedByObjectVersion
1070
     0
  0
VISUALSTYLE
  5
38
102
{ACAD_REACTORS
330
2A
102
}
330
2A
100
AcDbVisualStyle
  2
Linepattern
 70
    14
 71
     2
 72
     2
 73
     0
 90
        0
 40
-0.6
 41
-30.0
 62
     5
 63
     7
 74
     1
 91
        4
 64
     7
 65
   257
 75
     7
175
     7
 42
1.0
 92
        8
 66
     7
 43
1.0
 76
     1
 77
     6
 78
     2
 67
     7
 79
     5
170
     0
171
     0
290
     0
174
     0
 93
        1
 44
0.0
173
     0
291
     1
 45
0.0
1001
ACAD
1000
AcDbSavedByObjectVersion
1070
     0
  0
VISUALSTYLE
  5
33
102
{ACAD_REACTORS
330
2A
102
}
330
2A
100
AcDbVisualStyle
  2
Realistic
 70
     8
 71
     2
 72
     2
 73
     0
 90
        0
 40
-0.6
 41
-30.0
 62
     5
 63
     7
 74
     1
 91
        0
 64
     7
 65
   257
 75
     1
175
     1
 42
1.0
 92
        8
 66
     8
 43
1.0
 76
     1
 77
     6
 78
     2
 67
     7
 79
     5
170
     0
171
     0
290
     0
174
     0
 93
       13
 44
0.0
173
     0
291
     0
 45
0.0
1001
ACAD
1000
AcDbSavedByObjectVersion
1070
     0
  0
VISUALSTYLE
  5
37
102
{ACAD_REACTORS
330
2A
102
}
330
2A
100
AcDbVisualStyle
  2
Thicken
 70
    13
 71
     2
 72
     2
 73
     0
 90
        0
 40
-0.6
 41
-30.0
 62
     5
 63
     7
 74
     1
 91
        4
 64
     7
 65
   257
 75
     1
175
     1
 42
1.0
 92
       12
 66
     7
 43
1.0
 76
     1
 77
     6
 78
     2
 67
     7
 79
     5
170
     0
171
     0
290
     0
174
     0
 93
        1
 44
0.0
173
     0
291
     1
 45
0.0
1001
ACAD
1000
AcDbSavedByObjectVersion
1070
     0
  0
ENDSEC
  0
EOF
